M48
; DRILL file {KiCad 5.1.5-52549c5~86~ubuntu16.04.1} date Вт 28 апр 2020 14:27:53
; FORMAT={-:-/ absolute / inch / decimal}
; #@! TF.CreationDate,2020-04-28T14:27:53+03:00
; #@! TF.GenerationSoftware,Kicad,Pcbnew,5.1.5-52549c5~86~ubuntu16.04.1
; #@! TF.FileFunction,Plated,1,4,PTH
FMAT,2
INCH
T1C0.0157
T2C0.0236
T3C0.0335
T4C0.0394
%
G90
G05
T1
X4.8956Y-3.523
X4.8984Y-3.5622
X4.9584Y-4.6776
X4.9716Y-4.7857
X5.0061Y-4.0442
X5.0142Y-4.8305
X5.0146Y-4.0832
X5.0146Y-4.0832
X5.0194Y-4.6904
X5.0354Y-3.7936
X5.0384Y-3.9656
X5.0531Y-3.8288
X5.0657Y-4.8803
X5.0699Y-3.8663
X5.0872Y-4.0021
X5.0875Y-3.9039
X5.0894Y-4.0453
X5.1058Y-4.7357
X5.1128Y-4.9197
X5.1241Y-4.3328
X5.1305Y-4.2766
X5.1405Y-3.5571
X5.1748Y-4.295
X5.2173Y-3.837
X5.2195Y-4.0389
X5.2205Y-3.9711
X5.2417Y-3.7163
X5.2458Y-4.1577
X5.2868Y-3.722
X5.2868Y-4.152
X5.287Y-4.2766
X5.3055Y-3.937
X5.3455Y-4.282
X5.3464Y-3.5958
X5.372Y-3.5659
X5.4321Y-4.1699
X5.4386Y-4.3951
X5.4515Y-3.7037
X5.4764Y-4.2458
X5.479Y-4.9358
X5.511Y-4.9596
X5.5111Y-4.3707
X5.5158Y-4.2468
X5.5305Y-3.412
X5.5355Y-3.472
X5.5393Y-4.712
X5.5397Y-3.9258
X5.5455Y-3.9685
X5.546Y-3.778
X5.549Y-3.229
X5.5505Y-4.0344
X5.5565Y-4.416
X5.558Y-4.6699
X5.5584Y-3.3842
X5.565Y-4.1113
X5.5743Y-3.7506
X5.5805Y-3.4498
X5.587Y-3.9662
X5.5963Y-3.5528
X5.6005Y-4.0256
X5.604Y-4.4801
X5.6136Y-3.9349
X5.6291Y-4.3329
X5.6322Y-4.4504
X5.6338Y-4.1004
X5.6357Y-3.8159
X5.6457Y-4.3745
X5.65Y-3.9101
X5.6741Y-4.2013
X5.6805Y-4.087
X5.6829Y-4.4199
X5.6871Y-4.5961
X5.6896Y-3.3176
X5.6901Y-3.2777
X5.6905Y-4.5557
X5.6991Y-3.6484
X5.7118Y-4.1901
X5.7124Y-4.2469
X5.7152Y-3.6113
X5.7382Y-3.6432
X5.7455Y-3.917
X5.7476Y-3.7799
X5.7551Y-3.7412
X5.772Y-4.8455
X5.7775Y-3.6435
X5.7905Y-4.206
X5.7905Y-4.2534
X5.7961Y-3.2561
X5.7978Y-3.9495
X5.7995Y-3.1145
X5.7998Y-4.8177
X5.8114Y-4.6331
X5.8118Y-3.6204
X5.8205Y-3.582
X5.8455Y-3.113
X5.8505Y-4.812
X5.8555Y-4.762
X5.8585Y-2.937
X5.8655Y-3.252
X5.8655Y-4.212
X5.8671Y-3.0156
X5.8681Y-4.2691
X5.8762Y-3.6882
X5.8805Y-4.062
X5.8845Y-3.5921
X5.8855Y-3.997
X5.8957Y-2.9134
X5.8975Y-3.7225
X5.9012Y-4.102
X5.9038Y-4.2857
X5.9055Y-3.337
X5.9055Y-4.537
X5.9146Y-3.5667
X5.9255Y-3.842
X5.927Y-2.9962
X5.9291Y-4.3165
X5.9298Y-4.2274
X5.9332Y-3.6656
X5.9439Y-4.837
X5.9455Y-3.0529
X5.9496Y-4.612
X5.9506Y-3.1175
X5.9506Y-3.1175
X5.9605Y-4.162
X5.9605Y-4.252
X5.9688Y-4.7592
X5.9695Y-3.6808
X5.9814Y-4.2861
X5.9841Y-2.9766
X6.0055Y-3.912
X6.0055Y-3.9514
X6.0064Y-4.2285
X6.0068Y-4.625
X6.0105Y-3.2561
X6.0113Y-3.0761
X6.012Y-4.7565
X6.0266Y-3.6585
X6.0272Y-3.5843
X6.028Y-3.1194
X6.0637Y-3.1028
X6.0735Y-3.6218
X6.0753Y-3.6924
X6.0905Y-3.8035
X6.0918Y-3.6567
X6.1041Y-4.0975
X6.1041Y-4.1368
X6.1098Y-4.1758
X6.1205Y-3.4541
X6.1205Y-4.5557
X6.1212Y-4.5962
X6.1225Y-3.7806
X6.1254Y-3.2773
X6.1261Y-3.3167
X6.132Y-3.4918
X6.1572Y-4.007
X6.1572Y-4.007
X6.1589Y-3.7656
X6.1662Y-4.1163
X6.1786Y-3.9736
X6.1905Y-3.525
X6.1915Y-3.9352
X6.1995Y-4.3329
X6.2001Y-3.712
X6.2189Y-4.0535
X6.2205Y-3.747
X6.2251Y-4.1116
X6.241Y-4.0209
X6.2536Y-3.4851
X6.2555Y-4.387
X6.2643Y-4.2944
X6.2655Y-4.657
X6.2805Y-3.5626
X6.2825Y-3.1772
X6.2919Y-4.232
X6.3045Y-4.6626
X6.3052Y-3.6655
X6.3055Y-4.432
X6.3076Y-3.534
X6.3348Y-2.8755
X6.3465Y-4.457
X6.3687Y-4.1733
X6.3844Y-4.2591
X6.397Y-3.6841
X6.4006Y-4.9288
X6.4024Y-3.4406
X6.4027Y-4.6406
X6.4191Y-3.5484
X6.4255Y-4.267
X6.4305Y-4.612
X6.4305Y-4.712
X6.4555Y-5.037
X6.4755Y-4.462
X6.4885Y-4.728
X6.496Y-4.4965
X6.5055Y-3.937
X6.5188Y-3.5797
X6.5249Y-3.7211
X6.5305Y-4.7875
X6.5352Y-4.1594
X6.5403Y-4.4422
X6.5644Y-3.7156
X6.5705Y-3.597
X6.5705Y-4.4762
X6.5743Y-4.1642
X6.5855Y-3.8979
X6.5921Y-3.8344
X6.5968Y-4.0441
X6.5986Y-4.8189
X6.6037Y-4.6028
X6.6065Y-4.3935
X6.6076Y-4.9532
X6.6305Y-4.862
X6.6805Y-2.9519
X6.6813Y-4.427
X6.7132Y-4.4793
X6.7304Y-3.8745
X6.7305Y-3.987
X6.7308Y-3.8352
X6.7355Y-4.442
X6.7566Y-4.6109
X6.7584Y-4.4841
X6.7755Y-3.997
X6.7893Y-4.0454
X6.8055Y-3.887
X6.8168Y-4.0735
X6.8305Y-4.787
X6.9305Y-4.557
X6.9352Y-4.7147
T3
X6.6952Y-3.0089
X6.8344Y-3.1481
X4.9766Y-4.7267
X5.1158Y-4.8659
T4
X5.4555Y-2.712
X5.4555Y-2.812
X5.5555Y-2.712
X5.5555Y-2.812
X5.6555Y-2.712
X5.6555Y-2.812
X5.7555Y-2.712
X5.7555Y-2.812
X5.8555Y-2.712
X5.8555Y-2.812
X5.9555Y-2.712
X5.9555Y-2.812
X6.0555Y-2.712
X6.0555Y-2.812
X6.1555Y-2.712
X6.1555Y-2.812
X6.2555Y-2.712
X6.2555Y-2.812
X6.3555Y-2.712
X6.3555Y-2.812
X7.0305Y-3.487
X7.0305Y-3.587
X7.0305Y-3.687
X7.0305Y-3.787
X7.0305Y-3.887
X7.0305Y-3.987
X7.0305Y-4.087
X7.0305Y-4.187
X7.0305Y-4.287
X7.0305Y-4.387
X7.1305Y-3.487
X7.1305Y-3.587
X7.1305Y-3.687
X7.1305Y-3.787
X7.1305Y-3.887
X7.1305Y-3.987
X7.1305Y-4.087
X7.1305Y-4.187
X7.1305Y-4.287
X7.1305Y-4.387
X4.7934Y-3.1784
X4.8641Y-3.1077
X4.8641Y-3.2491
X4.9348Y-3.037
X4.9348Y-3.1784
X5.0055Y-3.1077
X6.6098Y-2.9077
X6.6805Y-2.837
X6.7555Y-4.312
X6.8555Y-4.312
X6.7555Y-3.562
X6.8555Y-3.562
X4.8055Y-4.712
X4.8762Y-4.6413
X5.5305Y-2.987
X5.5305Y-3.087
X5.0055Y-2.9663
X5.0762Y-2.8956
X5.0762Y-3.037
X5.1469Y-2.8249
X5.1469Y-2.9663
X5.2176Y-2.8956
X5.5305Y-4.787
X5.5305Y-4.887
X4.6805Y-3.487
X4.6805Y-3.587
X4.6805Y-3.687
X4.6805Y-3.787
X4.6805Y-3.887
X4.6805Y-3.987
X4.6805Y-4.087
X4.6805Y-4.187
X4.6805Y-4.287
X4.6805Y-4.387
X4.7805Y-3.487
X4.7805Y-3.587
X4.7805Y-3.687
X4.7805Y-3.787
X4.7805Y-3.887
X4.7805Y-3.987
X4.7805Y-4.087
X4.7805Y-4.187
X4.7805Y-4.287
X4.7805Y-4.387
X6.4641Y-5.112
X6.5348Y-5.0413
X6.5348Y-5.1827
X6.6055Y-5.112
X4.9555Y-4.312
X5.0555Y-4.312
X6.9348Y-3.2327
X7.0055Y-3.162
X6.2805Y-4.787
X6.2805Y-4.887
X5.4555Y-5.062
X5.4555Y-5.162
X5.5555Y-5.062
X5.5555Y-5.162
X5.6555Y-5.062
X5.6555Y-5.162
X5.7555Y-5.062
X5.7555Y-5.162
X5.8555Y-5.062
X5.8555Y-5.162
X5.9555Y-5.062
X5.9555Y-5.162
X6.0555Y-5.062
X6.0555Y-5.162
X6.1555Y-5.062
X6.1555Y-5.162
X6.2555Y-5.062
X6.2555Y-5.162
X6.3555Y-5.062
X6.3555Y-5.162
X6.2805Y-2.987
X6.2805Y-3.087
X5.8555Y-4.912
X5.9555Y-4.912
X4.9555Y-3.562
X5.0555Y-3.562
X7.0098Y-4.5663
X7.0805Y-4.4956
X7.0805Y-4.637
X7.1512Y-4.5663
X4.9305Y-3.887
X4.9305Y-3.987
X6.8805Y-3.887
X6.8805Y-3.987
X5.1305Y-5.037
X5.2012Y-4.9663
T2
G00X6.7328Y-2.9156
M15
G01X6.7523Y-2.8961
M16
G05
G00X6.9471Y-3.091
M15
G01X6.9277Y-3.1105
M16
G05
G00X4.8639Y-4.7838
M15
G01X4.8834Y-4.7643
M16
G05
G00X5.0782Y-4.9592
M15
G01X5.0588Y-4.9786
M16
G05
T0
M30
