G04 #@! TF.GenerationSoftware,KiCad,Pcbnew,5.1.5-52549c5~86~ubuntu16.04.1*
G04 #@! TF.CreationDate,2020-04-21T20:00:46+03:00*
G04 #@! TF.ProjectId,FreeEEG32-beta,46726565-4545-4473-9332-2d626574612e,rev?*
G04 #@! TF.SameCoordinates,Original*
G04 #@! TF.FileFunction,Legend,Bot*
G04 #@! TF.FilePolarity,Positive*
%FSLAX46Y46*%
G04 Gerber Fmt 4.6, Leading zero omitted, Abs format (unit mm)*
G04 Created by KiCad (PCBNEW 5.1.5-52549c5~86~ubuntu16.04.1) date 2020-04-21 20:00:46*
%MOMM*%
%LPD*%
G04 APERTURE LIST*
%ADD10C,0.150000*%
%ADD11C,0.120000*%
%ADD12C,0.075000*%
G04 APERTURE END LIST*
D10*
X165802893Y-77126039D02*
X172873961Y-84197107D01*
X172873961Y-84197107D02*
X167217107Y-89853961D01*
X167217107Y-89853961D02*
X160146039Y-82782893D01*
X160146039Y-82782893D02*
X165802893Y-77126039D01*
X149310571Y-113700194D02*
X148391332Y-114619433D01*
X164389623Y-100000000D02*
X163647161Y-100742462D01*
X150000000Y-85610377D02*
X149257538Y-86352839D01*
X135610377Y-100000000D02*
X136352839Y-99257538D01*
X150000000Y-114389623D02*
X150742462Y-113647161D01*
X135610377Y-100000000D02*
X136352839Y-100742462D01*
X150000000Y-85610377D02*
X150742462Y-86352839D01*
X164389623Y-100000000D02*
X163647161Y-99257538D01*
X150000000Y-114389623D02*
X149310571Y-113700194D01*
X152075000Y-73345000D02*
X153475000Y-73344999D01*
X152075001Y-78445000D02*
X147924999Y-78445000D01*
X152075001Y-73295000D02*
X147924999Y-73295000D01*
X152075001Y-78445000D02*
X152075000Y-78300000D01*
X147924999Y-78445000D02*
X147925000Y-78300000D01*
X147924999Y-73295000D02*
X147925000Y-73440000D01*
X152075001Y-73295000D02*
X152075000Y-73345000D01*
X162134315Y-91059429D02*
X161179720Y-90104835D01*
X161179720Y-90104835D02*
X162311091Y-88973464D01*
X162311091Y-88973464D02*
X164220280Y-90882653D01*
X164220280Y-90882653D02*
X163088909Y-92014024D01*
X163088909Y-92014024D02*
X162134315Y-91059429D01*
X158465753Y-118367938D02*
X168365248Y-108468443D01*
X169213776Y-129115961D02*
X158465753Y-118367938D01*
X178406164Y-118509359D02*
X170274436Y-126641087D01*
X168365248Y-108468443D02*
X178406164Y-118509359D01*
X170981543Y-127348194D02*
X169213776Y-129115961D01*
X170274436Y-126641087D02*
X170981543Y-127348194D01*
D11*
X129977266Y-122426897D02*
X129659068Y-122745095D01*
X129977266Y-122426897D02*
X129659068Y-122108699D01*
X125628559Y-118856008D02*
X125946757Y-119174206D01*
X124320412Y-120164155D02*
X125628559Y-118856008D01*
X128032722Y-127482711D02*
X128209499Y-127305934D01*
X122517289Y-121967278D02*
X122694066Y-121790501D01*
X129835845Y-125679588D02*
X131143992Y-124371441D01*
X131143992Y-124371441D02*
X130825794Y-124053243D01*
X163023225Y-94103359D02*
X163253430Y-93873154D01*
X163744474Y-94824608D02*
X163974679Y-94594403D01*
D10*
X134515305Y-123015382D02*
X134320850Y-122820928D01*
X139995382Y-117535305D02*
X139744359Y-117284282D01*
X132464695Y-110004618D02*
X132715718Y-110255641D01*
X126984618Y-115484695D02*
X127235641Y-115735718D01*
X134515305Y-123015382D02*
X139995382Y-117535305D01*
X126984618Y-115484695D02*
X132464695Y-110004618D01*
X134320850Y-122820928D02*
X133242513Y-123899266D01*
X139995382Y-82464695D02*
X139800928Y-82659150D01*
X134515305Y-76984618D02*
X134264282Y-77235641D01*
X126984618Y-84515305D02*
X127235641Y-84264282D01*
X132464695Y-89995382D02*
X132715718Y-89744359D01*
X139995382Y-82464695D02*
X134515305Y-76984618D01*
X132464695Y-89995382D02*
X126984618Y-84515305D01*
X139800928Y-82659150D02*
X140879266Y-83737487D01*
D11*
X160662046Y-108385162D02*
X162394457Y-110117574D01*
X159657954Y-111934838D02*
X158385162Y-110662046D01*
X162820127Y-111954922D02*
X162589922Y-112185127D01*
X162098878Y-111233673D02*
X161868673Y-111463878D01*
X155590000Y-76977221D02*
X155590000Y-77302779D01*
X154570000Y-76977221D02*
X154570000Y-77302779D01*
X145630000Y-76678222D02*
X145630000Y-77195378D01*
X144210000Y-76678222D02*
X144210000Y-77195378D01*
X143404478Y-87775727D02*
X143174273Y-87545522D01*
X144125727Y-87054478D02*
X143895522Y-86824273D01*
X159914478Y-90574863D02*
X159684273Y-90805068D01*
X160635727Y-91296112D02*
X160405522Y-91526317D01*
D10*
X159136091Y-85798464D02*
X160090685Y-86753059D01*
X158004720Y-86929835D02*
X159136091Y-85798464D01*
X159913909Y-88839024D02*
X158004720Y-86929835D01*
X161045280Y-87707653D02*
X159913909Y-88839024D01*
X160090685Y-86753059D02*
X161045280Y-87707653D01*
D11*
X174634838Y-77660790D02*
X172548873Y-79746755D01*
X171085162Y-76656698D02*
X172357954Y-75383906D01*
X141331727Y-89213478D02*
X141101522Y-88983273D01*
X140610478Y-89934727D02*
X140380273Y-89704522D01*
D10*
X167015075Y-82917579D02*
X166611014Y-83321640D01*
X167520152Y-83826717D02*
X166813045Y-83119610D01*
X166712030Y-84634839D02*
X167116091Y-84230778D01*
X166914060Y-84432808D02*
X166206953Y-83725701D01*
X166375312Y-83759373D01*
X166509999Y-83759373D01*
X166611014Y-83725701D01*
D12*
X158686361Y-108122213D02*
X158972571Y-108408423D01*
X158989407Y-108458930D01*
X158989407Y-108492602D01*
X158972571Y-108543110D01*
X158905227Y-108610453D01*
X158854720Y-108627289D01*
X158821048Y-108627289D01*
X158770540Y-108610453D01*
X158484330Y-108324243D01*
X158652689Y-108862991D02*
X158585346Y-108930335D01*
X158534838Y-108947171D01*
X158501166Y-108947171D01*
X158416987Y-108930335D01*
X158332808Y-108879827D01*
X158198121Y-108745140D01*
X158181285Y-108694633D01*
X158181285Y-108660961D01*
X158198121Y-108610453D01*
X158265464Y-108543110D01*
X158315972Y-108526274D01*
X158349643Y-108526274D01*
X158400151Y-108543110D01*
X158484330Y-108627289D01*
X158501166Y-108677797D01*
X158501166Y-108711469D01*
X158484330Y-108761976D01*
X158416987Y-108829320D01*
X158366479Y-108846156D01*
X158332808Y-108846156D01*
X158282300Y-108829320D01*
X150380952Y-72096190D02*
X150380952Y-72500952D01*
X150357142Y-72548571D01*
X150333333Y-72572380D01*
X150285714Y-72596190D01*
X150190476Y-72596190D01*
X150142857Y-72572380D01*
X150119047Y-72548571D01*
X150095238Y-72500952D01*
X150095238Y-72096190D01*
X149904761Y-72096190D02*
X149571428Y-72096190D01*
X149785714Y-72596190D01*
X164756815Y-92724695D02*
X165110368Y-92371142D01*
X165026189Y-92286963D01*
X164958845Y-92253291D01*
X164891502Y-92253291D01*
X164840994Y-92270127D01*
X164756815Y-92320634D01*
X164706307Y-92371142D01*
X164655800Y-92455321D01*
X164638964Y-92505829D01*
X164638964Y-92573173D01*
X164672635Y-92640516D01*
X164756815Y-92724695D01*
X164739979Y-92068096D02*
X164739979Y-92034424D01*
X164723143Y-91983917D01*
X164638964Y-91899737D01*
X164588456Y-91882902D01*
X164554784Y-91882902D01*
X164504277Y-91899737D01*
X164470605Y-91933409D01*
X164436933Y-92000753D01*
X164436933Y-92404814D01*
X164218067Y-92185947D01*
X169316475Y-118443699D02*
X169602685Y-118729909D01*
X169619520Y-118780417D01*
X169619520Y-118814088D01*
X169602685Y-118864596D01*
X169535341Y-118931940D01*
X169484833Y-118948775D01*
X169451162Y-118948775D01*
X169400654Y-118931940D01*
X169114444Y-118645730D01*
X169114444Y-119352836D02*
X169316475Y-119150806D01*
X169215459Y-119251821D02*
X168861906Y-118898268D01*
X168946085Y-118915104D01*
X169013429Y-118915104D01*
X169063937Y-118898268D01*
X168643040Y-119117134D02*
X168424173Y-119336001D01*
X168676711Y-119352836D01*
X168626204Y-119403344D01*
X168609368Y-119453852D01*
X168609368Y-119487523D01*
X168626204Y-119538031D01*
X168710383Y-119622210D01*
X168760891Y-119639046D01*
X168794563Y-119639046D01*
X168845070Y-119622210D01*
X168946085Y-119521195D01*
X168962921Y-119470688D01*
X168962921Y-119437016D01*
X129820692Y-120751727D02*
X129568154Y-121004265D01*
X129534482Y-121071608D01*
X129534482Y-121138952D01*
X129568154Y-121206295D01*
X129601826Y-121239967D01*
X129483974Y-120415009D02*
X129652333Y-120583368D01*
X129500810Y-120768563D01*
X129500810Y-120734891D01*
X129483974Y-120684383D01*
X129399795Y-120600204D01*
X129349287Y-120583368D01*
X129315616Y-120583368D01*
X129265108Y-120600204D01*
X129180929Y-120684383D01*
X129164093Y-120734891D01*
X129164093Y-120768563D01*
X129180929Y-120819070D01*
X129265108Y-120903250D01*
X129315616Y-120920086D01*
X129349287Y-120920086D01*
X128776868Y-120415009D02*
X128978898Y-120617040D01*
X128877883Y-120516025D02*
X129231436Y-120162471D01*
X129214600Y-120246651D01*
X129214600Y-120313994D01*
X129231436Y-120364502D01*
X165990512Y-92542425D02*
X166024183Y-92542425D01*
X166091527Y-92508754D01*
X166125199Y-92475082D01*
X166158870Y-92407738D01*
X166158870Y-92340395D01*
X166142035Y-92289887D01*
X166091527Y-92205708D01*
X166041019Y-92155200D01*
X165956840Y-92104693D01*
X165906332Y-92087857D01*
X165838989Y-92087857D01*
X165771645Y-92121529D01*
X165737974Y-92155200D01*
X165704302Y-92222544D01*
X165704302Y-92256216D01*
X165687466Y-92912815D02*
X165889496Y-92710784D01*
X165788481Y-92811800D02*
X165434928Y-92458246D01*
X165519107Y-92475082D01*
X165586451Y-92475082D01*
X165636958Y-92458246D01*
X165115046Y-92778128D02*
X165081374Y-92811800D01*
X165064538Y-92862307D01*
X165064538Y-92895979D01*
X165081374Y-92946487D01*
X165131882Y-93030666D01*
X165216061Y-93114845D01*
X165300241Y-93165353D01*
X165350748Y-93182189D01*
X165384420Y-93182189D01*
X165434928Y-93165353D01*
X165468600Y-93131681D01*
X165485435Y-93081174D01*
X165485435Y-93047502D01*
X165468600Y-92996994D01*
X165418092Y-92912815D01*
X165333912Y-92828635D01*
X165249733Y-92778128D01*
X165199225Y-92761292D01*
X165165554Y-92761292D01*
X165115046Y-92778128D01*
X164812000Y-93316876D02*
X165047703Y-93552578D01*
X164761493Y-93098009D02*
X165098210Y-93266368D01*
X164879344Y-93485235D01*
X138687120Y-120628454D02*
X138973330Y-120914664D01*
X138990165Y-120965172D01*
X138990165Y-120998843D01*
X138973330Y-121049351D01*
X138905986Y-121116695D01*
X138855478Y-121133530D01*
X138821807Y-121133530D01*
X138771299Y-121116695D01*
X138485089Y-120830485D01*
X138485089Y-121537591D02*
X138687120Y-121335561D01*
X138586104Y-121436576D02*
X138232551Y-121083023D01*
X138316730Y-121099859D01*
X138384074Y-121099859D01*
X138434582Y-121083023D01*
X138013685Y-121301889D02*
X137777982Y-121537591D01*
X138283059Y-121739622D01*
X138540762Y-79314703D02*
X138254552Y-79600913D01*
X138204044Y-79617748D01*
X138170373Y-79617748D01*
X138119865Y-79600913D01*
X138052521Y-79533569D01*
X138035686Y-79483061D01*
X138035686Y-79449390D01*
X138052521Y-79398882D01*
X138338731Y-79112672D01*
X137631625Y-79112672D02*
X137833655Y-79314703D01*
X137732640Y-79213687D02*
X138086193Y-78860134D01*
X138069357Y-78944313D01*
X138069357Y-79011657D01*
X138086193Y-79062165D01*
X137463266Y-78944313D02*
X137395922Y-78876970D01*
X137379086Y-78826462D01*
X137379086Y-78792791D01*
X137395922Y-78708611D01*
X137446430Y-78624432D01*
X137581117Y-78489745D01*
X137631625Y-78472909D01*
X137665296Y-78472909D01*
X137715804Y-78489745D01*
X137783147Y-78557088D01*
X137799983Y-78607596D01*
X137799983Y-78641268D01*
X137783147Y-78691775D01*
X137698968Y-78775955D01*
X137648460Y-78792791D01*
X137614789Y-78792791D01*
X137564281Y-78775955D01*
X137496938Y-78708611D01*
X137480102Y-78658104D01*
X137480102Y-78624432D01*
X137496938Y-78573924D01*
X144184171Y-117661771D02*
X144207980Y-117637961D01*
X144231790Y-117566533D01*
X144231790Y-117518914D01*
X144207980Y-117447485D01*
X144160361Y-117399866D01*
X144112742Y-117376057D01*
X144017504Y-117352247D01*
X143946076Y-117352247D01*
X143850838Y-117376057D01*
X143803219Y-117399866D01*
X143755600Y-117447485D01*
X143731790Y-117518914D01*
X143731790Y-117566533D01*
X143755600Y-117637961D01*
X143779409Y-117661771D01*
X143731790Y-117828438D02*
X143731790Y-118137961D01*
X143922266Y-117971295D01*
X143922266Y-118042723D01*
X143946076Y-118090342D01*
X143969885Y-118114152D01*
X144017504Y-118137961D01*
X144136552Y-118137961D01*
X144184171Y-118114152D01*
X144207980Y-118090342D01*
X144231790Y-118042723D01*
X144231790Y-117899866D01*
X144207980Y-117852247D01*
X144184171Y-117828438D01*
X143731790Y-118304628D02*
X143731790Y-118614152D01*
X143922266Y-118447485D01*
X143922266Y-118518914D01*
X143946076Y-118566533D01*
X143969885Y-118590342D01*
X144017504Y-118614152D01*
X144136552Y-118614152D01*
X144184171Y-118590342D01*
X144207980Y-118566533D01*
X144231790Y-118518914D01*
X144231790Y-118376057D01*
X144207980Y-118328438D01*
X144184171Y-118304628D01*
X144031771Y-115401171D02*
X144055580Y-115377361D01*
X144079390Y-115305933D01*
X144079390Y-115258314D01*
X144055580Y-115186885D01*
X144007961Y-115139266D01*
X143960342Y-115115457D01*
X143865104Y-115091647D01*
X143793676Y-115091647D01*
X143698438Y-115115457D01*
X143650819Y-115139266D01*
X143603200Y-115186885D01*
X143579390Y-115258314D01*
X143579390Y-115305933D01*
X143603200Y-115377361D01*
X143627009Y-115401171D01*
X143579390Y-115567838D02*
X143579390Y-115877361D01*
X143769866Y-115710695D01*
X143769866Y-115782123D01*
X143793676Y-115829742D01*
X143817485Y-115853552D01*
X143865104Y-115877361D01*
X143984152Y-115877361D01*
X144031771Y-115853552D01*
X144055580Y-115829742D01*
X144079390Y-115782123D01*
X144079390Y-115639266D01*
X144055580Y-115591647D01*
X144031771Y-115567838D01*
X144079390Y-116353552D02*
X144079390Y-116067838D01*
X144079390Y-116210695D02*
X143579390Y-116210695D01*
X143650819Y-116163076D01*
X143698438Y-116115457D01*
X143722247Y-116067838D01*
X152277228Y-120422371D02*
X152301038Y-120446180D01*
X152372466Y-120469990D01*
X152420085Y-120469990D01*
X152491514Y-120446180D01*
X152539133Y-120398561D01*
X152562942Y-120350942D01*
X152586752Y-120255704D01*
X152586752Y-120184276D01*
X152562942Y-120089038D01*
X152539133Y-120041419D01*
X152491514Y-119993800D01*
X152420085Y-119969990D01*
X152372466Y-119969990D01*
X152301038Y-119993800D01*
X152277228Y-120017609D01*
X151848657Y-120136657D02*
X151848657Y-120469990D01*
X151967704Y-119946180D02*
X152086752Y-120303323D01*
X151777228Y-120303323D01*
X151610561Y-120017609D02*
X151586752Y-119993800D01*
X151539133Y-119969990D01*
X151420085Y-119969990D01*
X151372466Y-119993800D01*
X151348657Y-120017609D01*
X151324847Y-120065228D01*
X151324847Y-120112847D01*
X151348657Y-120184276D01*
X151634371Y-120469990D01*
X151324847Y-120469990D01*
X152918953Y-114961184D02*
X152952625Y-114961184D01*
X153019968Y-114927512D01*
X153053640Y-114893841D01*
X153087312Y-114826497D01*
X153087312Y-114759154D01*
X153070476Y-114708646D01*
X153019968Y-114624467D01*
X152969461Y-114573959D01*
X152885281Y-114523451D01*
X152834774Y-114506616D01*
X152767430Y-114506616D01*
X152700087Y-114540287D01*
X152666415Y-114573959D01*
X152632743Y-114641303D01*
X152632743Y-114674974D01*
X152498056Y-114809661D02*
X152464384Y-114809661D01*
X152413877Y-114826497D01*
X152329697Y-114910677D01*
X152312861Y-114961184D01*
X152312861Y-114994856D01*
X152329697Y-115045364D01*
X152363369Y-115079035D01*
X152430712Y-115112707D01*
X152834774Y-115112707D01*
X152615907Y-115331574D01*
X152447548Y-115499932D02*
X152380205Y-115567276D01*
X152329697Y-115584112D01*
X152296025Y-115584112D01*
X152211846Y-115567276D01*
X152127667Y-115516768D01*
X151992980Y-115382081D01*
X151976144Y-115331574D01*
X151976144Y-115297902D01*
X151992980Y-115247394D01*
X152060323Y-115180051D01*
X152110831Y-115163215D01*
X152144503Y-115163215D01*
X152195010Y-115180051D01*
X152279190Y-115264230D01*
X152296025Y-115314738D01*
X152296025Y-115348409D01*
X152279190Y-115398917D01*
X152211846Y-115466261D01*
X152161338Y-115483096D01*
X152127667Y-115483096D01*
X152077159Y-115466261D01*
X155766571Y-117534771D02*
X155790380Y-117510961D01*
X155814190Y-117439533D01*
X155814190Y-117391914D01*
X155790380Y-117320485D01*
X155742761Y-117272866D01*
X155695142Y-117249057D01*
X155599904Y-117225247D01*
X155528476Y-117225247D01*
X155433238Y-117249057D01*
X155385619Y-117272866D01*
X155338000Y-117320485D01*
X155314190Y-117391914D01*
X155314190Y-117439533D01*
X155338000Y-117510961D01*
X155361809Y-117534771D01*
X155361809Y-117725247D02*
X155338000Y-117749057D01*
X155314190Y-117796676D01*
X155314190Y-117915723D01*
X155338000Y-117963342D01*
X155361809Y-117987152D01*
X155409428Y-118010961D01*
X155457047Y-118010961D01*
X155528476Y-117987152D01*
X155814190Y-117701438D01*
X155814190Y-118010961D01*
X155314190Y-118177628D02*
X155314190Y-118487152D01*
X155504666Y-118320485D01*
X155504666Y-118391914D01*
X155528476Y-118439533D01*
X155552285Y-118463342D01*
X155599904Y-118487152D01*
X155718952Y-118487152D01*
X155766571Y-118463342D01*
X155790380Y-118439533D01*
X155814190Y-118391914D01*
X155814190Y-118249057D01*
X155790380Y-118201438D01*
X155766571Y-118177628D01*
X155487171Y-113597771D02*
X155510980Y-113573961D01*
X155534790Y-113502533D01*
X155534790Y-113454914D01*
X155510980Y-113383485D01*
X155463361Y-113335866D01*
X155415742Y-113312057D01*
X155320504Y-113288247D01*
X155249076Y-113288247D01*
X155153838Y-113312057D01*
X155106219Y-113335866D01*
X155058600Y-113383485D01*
X155034790Y-113454914D01*
X155034790Y-113502533D01*
X155058600Y-113573961D01*
X155082409Y-113597771D01*
X155082409Y-113788247D02*
X155058600Y-113812057D01*
X155034790Y-113859676D01*
X155034790Y-113978723D01*
X155058600Y-114026342D01*
X155082409Y-114050152D01*
X155130028Y-114073961D01*
X155177647Y-114073961D01*
X155249076Y-114050152D01*
X155534790Y-113764438D01*
X155534790Y-114073961D01*
X155034790Y-114526342D02*
X155034790Y-114288247D01*
X155272885Y-114264438D01*
X155249076Y-114288247D01*
X155225266Y-114335866D01*
X155225266Y-114454914D01*
X155249076Y-114502533D01*
X155272885Y-114526342D01*
X155320504Y-114550152D01*
X155439552Y-114550152D01*
X155487171Y-114526342D01*
X155510980Y-114502533D01*
X155534790Y-114454914D01*
X155534790Y-114335866D01*
X155510980Y-114288247D01*
X155487171Y-114264438D01*
X156553971Y-83828971D02*
X156577780Y-83805161D01*
X156601590Y-83733733D01*
X156601590Y-83686114D01*
X156577780Y-83614685D01*
X156530161Y-83567066D01*
X156482542Y-83543257D01*
X156387304Y-83519447D01*
X156315876Y-83519447D01*
X156220638Y-83543257D01*
X156173019Y-83567066D01*
X156125400Y-83614685D01*
X156101590Y-83686114D01*
X156101590Y-83733733D01*
X156125400Y-83805161D01*
X156149209Y-83828971D01*
X156101590Y-83995638D02*
X156101590Y-84328971D01*
X156601590Y-84114685D01*
X156101590Y-84471828D02*
X156101590Y-84781352D01*
X156292066Y-84614685D01*
X156292066Y-84686114D01*
X156315876Y-84733733D01*
X156339685Y-84757542D01*
X156387304Y-84781352D01*
X156506352Y-84781352D01*
X156553971Y-84757542D01*
X156577780Y-84733733D01*
X156601590Y-84686114D01*
X156601590Y-84543257D01*
X156577780Y-84495638D01*
X156553971Y-84471828D01*
X143879371Y-82863771D02*
X143903180Y-82839961D01*
X143926990Y-82768533D01*
X143926990Y-82720914D01*
X143903180Y-82649485D01*
X143855561Y-82601866D01*
X143807942Y-82578057D01*
X143712704Y-82554247D01*
X143641276Y-82554247D01*
X143546038Y-82578057D01*
X143498419Y-82601866D01*
X143450800Y-82649485D01*
X143426990Y-82720914D01*
X143426990Y-82768533D01*
X143450800Y-82839961D01*
X143474609Y-82863771D01*
X143426990Y-83292342D02*
X143426990Y-83197104D01*
X143450800Y-83149485D01*
X143474609Y-83125676D01*
X143546038Y-83078057D01*
X143641276Y-83054247D01*
X143831752Y-83054247D01*
X143879371Y-83078057D01*
X143903180Y-83101866D01*
X143926990Y-83149485D01*
X143926990Y-83244723D01*
X143903180Y-83292342D01*
X143879371Y-83316152D01*
X143831752Y-83339961D01*
X143712704Y-83339961D01*
X143665085Y-83316152D01*
X143641276Y-83292342D01*
X143617466Y-83244723D01*
X143617466Y-83149485D01*
X143641276Y-83101866D01*
X143665085Y-83078057D01*
X143712704Y-83054247D01*
X143426990Y-83506628D02*
X143426990Y-83839961D01*
X143926990Y-83625676D01*
X147635753Y-84887584D02*
X147669425Y-84887584D01*
X147736768Y-84853912D01*
X147770440Y-84820241D01*
X147804112Y-84752897D01*
X147804112Y-84685554D01*
X147787276Y-84635046D01*
X147736768Y-84550867D01*
X147686261Y-84500359D01*
X147602081Y-84449851D01*
X147551574Y-84433016D01*
X147484230Y-84433016D01*
X147416887Y-84466687D01*
X147383215Y-84500359D01*
X147349543Y-84567703D01*
X147349543Y-84601374D01*
X147198020Y-84685554D02*
X146962318Y-84921256D01*
X147467394Y-85123287D01*
X146995990Y-85594691D02*
X147198020Y-85392661D01*
X147097005Y-85493676D02*
X146743451Y-85140122D01*
X146827631Y-85156958D01*
X146894974Y-85156958D01*
X146945482Y-85140122D01*
X144031771Y-80933371D02*
X144055580Y-80909561D01*
X144079390Y-80838133D01*
X144079390Y-80790514D01*
X144055580Y-80719085D01*
X144007961Y-80671466D01*
X143960342Y-80647657D01*
X143865104Y-80623847D01*
X143793676Y-80623847D01*
X143698438Y-80647657D01*
X143650819Y-80671466D01*
X143603200Y-80719085D01*
X143579390Y-80790514D01*
X143579390Y-80838133D01*
X143603200Y-80909561D01*
X143627009Y-80933371D01*
X143579390Y-81361942D02*
X143579390Y-81266704D01*
X143603200Y-81219085D01*
X143627009Y-81195276D01*
X143698438Y-81147657D01*
X143793676Y-81123847D01*
X143984152Y-81123847D01*
X144031771Y-81147657D01*
X144055580Y-81171466D01*
X144079390Y-81219085D01*
X144079390Y-81314323D01*
X144055580Y-81361942D01*
X144031771Y-81385752D01*
X143984152Y-81409561D01*
X143865104Y-81409561D01*
X143817485Y-81385752D01*
X143793676Y-81361942D01*
X143769866Y-81314323D01*
X143769866Y-81219085D01*
X143793676Y-81171466D01*
X143817485Y-81147657D01*
X143865104Y-81123847D01*
X143579390Y-81861942D02*
X143579390Y-81623847D01*
X143817485Y-81600038D01*
X143793676Y-81623847D01*
X143769866Y-81671466D01*
X143769866Y-81790514D01*
X143793676Y-81838133D01*
X143817485Y-81861942D01*
X143865104Y-81885752D01*
X143984152Y-81885752D01*
X144031771Y-81861942D01*
X144055580Y-81838133D01*
X144079390Y-81790514D01*
X144079390Y-81671466D01*
X144055580Y-81623847D01*
X144031771Y-81600038D01*
X148467228Y-80366571D02*
X148491038Y-80390380D01*
X148562466Y-80414190D01*
X148610085Y-80414190D01*
X148681514Y-80390380D01*
X148729133Y-80342761D01*
X148752942Y-80295142D01*
X148776752Y-80199904D01*
X148776752Y-80128476D01*
X148752942Y-80033238D01*
X148729133Y-79985619D01*
X148681514Y-79938000D01*
X148610085Y-79914190D01*
X148562466Y-79914190D01*
X148491038Y-79938000D01*
X148467228Y-79961809D01*
X148181514Y-80128476D02*
X148229133Y-80104666D01*
X148252942Y-80080857D01*
X148276752Y-80033238D01*
X148276752Y-80009428D01*
X148252942Y-79961809D01*
X148229133Y-79938000D01*
X148181514Y-79914190D01*
X148086276Y-79914190D01*
X148038657Y-79938000D01*
X148014847Y-79961809D01*
X147991038Y-80009428D01*
X147991038Y-80033238D01*
X148014847Y-80080857D01*
X148038657Y-80104666D01*
X148086276Y-80128476D01*
X148181514Y-80128476D01*
X148229133Y-80152285D01*
X148252942Y-80176095D01*
X148276752Y-80223714D01*
X148276752Y-80318952D01*
X148252942Y-80366571D01*
X148229133Y-80390380D01*
X148181514Y-80414190D01*
X148086276Y-80414190D01*
X148038657Y-80390380D01*
X148014847Y-80366571D01*
X147991038Y-80318952D01*
X147991038Y-80223714D01*
X148014847Y-80176095D01*
X148038657Y-80152285D01*
X148086276Y-80128476D01*
X147562466Y-80080857D02*
X147562466Y-80414190D01*
X147681514Y-79890380D02*
X147800561Y-80247523D01*
X147491038Y-80247523D01*
X156528571Y-81898571D02*
X156552380Y-81874761D01*
X156576190Y-81803333D01*
X156576190Y-81755714D01*
X156552380Y-81684285D01*
X156504761Y-81636666D01*
X156457142Y-81612857D01*
X156361904Y-81589047D01*
X156290476Y-81589047D01*
X156195238Y-81612857D01*
X156147619Y-81636666D01*
X156100000Y-81684285D01*
X156076190Y-81755714D01*
X156076190Y-81803333D01*
X156100000Y-81874761D01*
X156123809Y-81898571D01*
X156076190Y-82065238D02*
X156076190Y-82398571D01*
X156576190Y-82184285D01*
X156076190Y-82827142D02*
X156076190Y-82589047D01*
X156314285Y-82565238D01*
X156290476Y-82589047D01*
X156266666Y-82636666D01*
X156266666Y-82755714D01*
X156290476Y-82803333D01*
X156314285Y-82827142D01*
X156361904Y-82850952D01*
X156480952Y-82850952D01*
X156528571Y-82827142D01*
X156552380Y-82803333D01*
X156576190Y-82755714D01*
X156576190Y-82636666D01*
X156552380Y-82589047D01*
X156528571Y-82565238D01*
X134497228Y-93853971D02*
X134521038Y-93877780D01*
X134592466Y-93901590D01*
X134640085Y-93901590D01*
X134711514Y-93877780D01*
X134759133Y-93830161D01*
X134782942Y-93782542D01*
X134806752Y-93687304D01*
X134806752Y-93615876D01*
X134782942Y-93520638D01*
X134759133Y-93473019D01*
X134711514Y-93425400D01*
X134640085Y-93401590D01*
X134592466Y-93401590D01*
X134521038Y-93425400D01*
X134497228Y-93449209D01*
X134044847Y-93401590D02*
X134282942Y-93401590D01*
X134306752Y-93639685D01*
X134282942Y-93615876D01*
X134235323Y-93592066D01*
X134116276Y-93592066D01*
X134068657Y-93615876D01*
X134044847Y-93639685D01*
X134021038Y-93687304D01*
X134021038Y-93806352D01*
X134044847Y-93853971D01*
X134068657Y-93877780D01*
X134116276Y-93901590D01*
X134235323Y-93901590D01*
X134282942Y-93877780D01*
X134306752Y-93853971D01*
X133830561Y-93449209D02*
X133806752Y-93425400D01*
X133759133Y-93401590D01*
X133640085Y-93401590D01*
X133592466Y-93425400D01*
X133568657Y-93449209D01*
X133544847Y-93496828D01*
X133544847Y-93544447D01*
X133568657Y-93615876D01*
X133854371Y-93901590D01*
X133544847Y-93901590D01*
X131855628Y-106528571D02*
X131879438Y-106552380D01*
X131950866Y-106576190D01*
X131998485Y-106576190D01*
X132069914Y-106552380D01*
X132117533Y-106504761D01*
X132141342Y-106457142D01*
X132165152Y-106361904D01*
X132165152Y-106290476D01*
X132141342Y-106195238D01*
X132117533Y-106147619D01*
X132069914Y-106100000D01*
X131998485Y-106076190D01*
X131950866Y-106076190D01*
X131879438Y-106100000D01*
X131855628Y-106123809D01*
X131427057Y-106242857D02*
X131427057Y-106576190D01*
X131546104Y-106052380D02*
X131665152Y-106409523D01*
X131355628Y-106409523D01*
X130950866Y-106242857D02*
X130950866Y-106576190D01*
X131069914Y-106052380D02*
X131188961Y-106409523D01*
X130879438Y-106409523D01*
X133709828Y-106579371D02*
X133733638Y-106603180D01*
X133805066Y-106626990D01*
X133852685Y-106626990D01*
X133924114Y-106603180D01*
X133971733Y-106555561D01*
X133995542Y-106507942D01*
X134019352Y-106412704D01*
X134019352Y-106341276D01*
X133995542Y-106246038D01*
X133971733Y-106198419D01*
X133924114Y-106150800D01*
X133852685Y-106126990D01*
X133805066Y-106126990D01*
X133733638Y-106150800D01*
X133709828Y-106174609D01*
X133281257Y-106293657D02*
X133281257Y-106626990D01*
X133400304Y-106103180D02*
X133519352Y-106460323D01*
X133209828Y-106460323D01*
X132805066Y-106126990D02*
X132900304Y-106126990D01*
X132947923Y-106150800D01*
X132971733Y-106174609D01*
X133019352Y-106246038D01*
X133043161Y-106341276D01*
X133043161Y-106531752D01*
X133019352Y-106579371D01*
X132995542Y-106603180D01*
X132947923Y-106626990D01*
X132852685Y-106626990D01*
X132805066Y-106603180D01*
X132781257Y-106579371D01*
X132757447Y-106531752D01*
X132757447Y-106412704D01*
X132781257Y-106365085D01*
X132805066Y-106341276D01*
X132852685Y-106317466D01*
X132947923Y-106317466D01*
X132995542Y-106341276D01*
X133019352Y-106365085D01*
X133043161Y-106412704D01*
X129883971Y-101481971D02*
X129907780Y-101458161D01*
X129931590Y-101386733D01*
X129931590Y-101339114D01*
X129907780Y-101267685D01*
X129860161Y-101220066D01*
X129812542Y-101196257D01*
X129717304Y-101172447D01*
X129645876Y-101172447D01*
X129550638Y-101196257D01*
X129503019Y-101220066D01*
X129455400Y-101267685D01*
X129431590Y-101339114D01*
X129431590Y-101386733D01*
X129455400Y-101458161D01*
X129479209Y-101481971D01*
X129431590Y-101910542D02*
X129431590Y-101815304D01*
X129455400Y-101767685D01*
X129479209Y-101743876D01*
X129550638Y-101696257D01*
X129645876Y-101672447D01*
X129836352Y-101672447D01*
X129883971Y-101696257D01*
X129907780Y-101720066D01*
X129931590Y-101767685D01*
X129931590Y-101862923D01*
X129907780Y-101910542D01*
X129883971Y-101934352D01*
X129836352Y-101958161D01*
X129717304Y-101958161D01*
X129669685Y-101934352D01*
X129645876Y-101910542D01*
X129622066Y-101862923D01*
X129622066Y-101767685D01*
X129645876Y-101720066D01*
X129669685Y-101696257D01*
X129717304Y-101672447D01*
X129431590Y-102124828D02*
X129431590Y-102434352D01*
X129622066Y-102267685D01*
X129622066Y-102339114D01*
X129645876Y-102386733D01*
X129669685Y-102410542D01*
X129717304Y-102434352D01*
X129836352Y-102434352D01*
X129883971Y-102410542D01*
X129907780Y-102386733D01*
X129931590Y-102339114D01*
X129931590Y-102196257D01*
X129907780Y-102148638D01*
X129883971Y-102124828D01*
X135038815Y-103045953D02*
X135038815Y-103079625D01*
X135072487Y-103146968D01*
X135106158Y-103180640D01*
X135173502Y-103214312D01*
X135240845Y-103214312D01*
X135291353Y-103197476D01*
X135375532Y-103146968D01*
X135426040Y-103096461D01*
X135476548Y-103012281D01*
X135493383Y-102961774D01*
X135493383Y-102894430D01*
X135459712Y-102827087D01*
X135426040Y-102793415D01*
X135358696Y-102759743D01*
X135325025Y-102759743D01*
X135038815Y-102406190D02*
X135207174Y-102574548D01*
X135055651Y-102759743D01*
X135055651Y-102726071D01*
X135038815Y-102675564D01*
X134954635Y-102591384D01*
X134904128Y-102574548D01*
X134870456Y-102574548D01*
X134819948Y-102591384D01*
X134735769Y-102675564D01*
X134718933Y-102726071D01*
X134718933Y-102759743D01*
X134735769Y-102810251D01*
X134819948Y-102894430D01*
X134870456Y-102911266D01*
X134904128Y-102911266D01*
X134803112Y-102170487D02*
X134769441Y-102136816D01*
X134718933Y-102119980D01*
X134685261Y-102119980D01*
X134634754Y-102136816D01*
X134550574Y-102187323D01*
X134466395Y-102271503D01*
X134415887Y-102355682D01*
X134399051Y-102406190D01*
X134399051Y-102439861D01*
X134415887Y-102490369D01*
X134449559Y-102524041D01*
X134500067Y-102540877D01*
X134533738Y-102540877D01*
X134584246Y-102524041D01*
X134668425Y-102473533D01*
X134752605Y-102389354D01*
X134803112Y-102305174D01*
X134819948Y-102254667D01*
X134819948Y-102220995D01*
X134803112Y-102170487D01*
X132668428Y-93828571D02*
X132692238Y-93852380D01*
X132763666Y-93876190D01*
X132811285Y-93876190D01*
X132882714Y-93852380D01*
X132930333Y-93804761D01*
X132954142Y-93757142D01*
X132977952Y-93661904D01*
X132977952Y-93590476D01*
X132954142Y-93495238D01*
X132930333Y-93447619D01*
X132882714Y-93400000D01*
X132811285Y-93376190D01*
X132763666Y-93376190D01*
X132692238Y-93400000D01*
X132668428Y-93423809D01*
X132216047Y-93376190D02*
X132454142Y-93376190D01*
X132477952Y-93614285D01*
X132454142Y-93590476D01*
X132406523Y-93566666D01*
X132287476Y-93566666D01*
X132239857Y-93590476D01*
X132216047Y-93614285D01*
X132192238Y-93661904D01*
X132192238Y-93780952D01*
X132216047Y-93828571D01*
X132239857Y-93852380D01*
X132287476Y-93876190D01*
X132406523Y-93876190D01*
X132454142Y-93852380D01*
X132477952Y-93828571D01*
X131763666Y-93542857D02*
X131763666Y-93876190D01*
X131882714Y-93352380D02*
X132001761Y-93709523D01*
X131692238Y-93709523D01*
X166755228Y-106655571D02*
X166779038Y-106679380D01*
X166850466Y-106703190D01*
X166898085Y-106703190D01*
X166969514Y-106679380D01*
X167017133Y-106631761D01*
X167040942Y-106584142D01*
X167064752Y-106488904D01*
X167064752Y-106417476D01*
X167040942Y-106322238D01*
X167017133Y-106274619D01*
X166969514Y-106227000D01*
X166898085Y-106203190D01*
X166850466Y-106203190D01*
X166779038Y-106227000D01*
X166755228Y-106250809D01*
X166279038Y-106703190D02*
X166564752Y-106703190D01*
X166421895Y-106703190D02*
X166421895Y-106203190D01*
X166469514Y-106274619D01*
X166517133Y-106322238D01*
X166564752Y-106346047D01*
X165969514Y-106203190D02*
X165921895Y-106203190D01*
X165874276Y-106227000D01*
X165850466Y-106250809D01*
X165826657Y-106298428D01*
X165802847Y-106393666D01*
X165802847Y-106512714D01*
X165826657Y-106607952D01*
X165850466Y-106655571D01*
X165874276Y-106679380D01*
X165921895Y-106703190D01*
X165969514Y-106703190D01*
X166017133Y-106679380D01*
X166040942Y-106655571D01*
X166064752Y-106607952D01*
X166088561Y-106512714D01*
X166088561Y-106393666D01*
X166064752Y-106298428D01*
X166040942Y-106250809D01*
X166017133Y-106227000D01*
X165969514Y-106203190D01*
X168990428Y-106426971D02*
X169014238Y-106450780D01*
X169085666Y-106474590D01*
X169133285Y-106474590D01*
X169204714Y-106450780D01*
X169252333Y-106403161D01*
X169276142Y-106355542D01*
X169299952Y-106260304D01*
X169299952Y-106188876D01*
X169276142Y-106093638D01*
X169252333Y-106046019D01*
X169204714Y-105998400D01*
X169133285Y-105974590D01*
X169085666Y-105974590D01*
X169014238Y-105998400D01*
X168990428Y-106022209D01*
X168514238Y-106474590D02*
X168799952Y-106474590D01*
X168657095Y-106474590D02*
X168657095Y-105974590D01*
X168704714Y-106046019D01*
X168752333Y-106093638D01*
X168799952Y-106117447D01*
X168323761Y-106022209D02*
X168299952Y-105998400D01*
X168252333Y-105974590D01*
X168133285Y-105974590D01*
X168085666Y-105998400D01*
X168061857Y-106022209D01*
X168038047Y-106069828D01*
X168038047Y-106117447D01*
X168061857Y-106188876D01*
X168347571Y-106474590D01*
X168038047Y-106474590D01*
X165526794Y-102886743D02*
X165560466Y-102886743D01*
X165627809Y-102853071D01*
X165661481Y-102819400D01*
X165695153Y-102752056D01*
X165695153Y-102684712D01*
X165678317Y-102634205D01*
X165627809Y-102550025D01*
X165577302Y-102499518D01*
X165493122Y-102449010D01*
X165442615Y-102432174D01*
X165375271Y-102432174D01*
X165307928Y-102465846D01*
X165274256Y-102499518D01*
X165240584Y-102566861D01*
X165240584Y-102600533D01*
X164903867Y-102869907D02*
X164971210Y-102802564D01*
X165021718Y-102785728D01*
X165055390Y-102785728D01*
X165139569Y-102802564D01*
X165223748Y-102853071D01*
X165358435Y-102987758D01*
X165375271Y-103038266D01*
X165375271Y-103071938D01*
X165358435Y-103122445D01*
X165291092Y-103189789D01*
X165240584Y-103206625D01*
X165206912Y-103206625D01*
X165156405Y-103189789D01*
X165072225Y-103105609D01*
X165055390Y-103055102D01*
X165055390Y-103021430D01*
X165072225Y-102970922D01*
X165139569Y-102903579D01*
X165190077Y-102886743D01*
X165223748Y-102886743D01*
X165274256Y-102903579D01*
X170523971Y-99602371D02*
X170547780Y-99578561D01*
X170571590Y-99507133D01*
X170571590Y-99459514D01*
X170547780Y-99388085D01*
X170500161Y-99340466D01*
X170452542Y-99316657D01*
X170357304Y-99292847D01*
X170285876Y-99292847D01*
X170190638Y-99316657D01*
X170143019Y-99340466D01*
X170095400Y-99388085D01*
X170071590Y-99459514D01*
X170071590Y-99507133D01*
X170095400Y-99578561D01*
X170119209Y-99602371D01*
X170571590Y-100078561D02*
X170571590Y-99792847D01*
X170571590Y-99935704D02*
X170071590Y-99935704D01*
X170143019Y-99888085D01*
X170190638Y-99840466D01*
X170214447Y-99792847D01*
X170285876Y-100364276D02*
X170262066Y-100316657D01*
X170238257Y-100292847D01*
X170190638Y-100269038D01*
X170166828Y-100269038D01*
X170119209Y-100292847D01*
X170095400Y-100316657D01*
X170071590Y-100364276D01*
X170071590Y-100459514D01*
X170095400Y-100507133D01*
X170119209Y-100530942D01*
X170166828Y-100554752D01*
X170190638Y-100554752D01*
X170238257Y-100530942D01*
X170262066Y-100507133D01*
X170285876Y-100459514D01*
X170285876Y-100364276D01*
X170309685Y-100316657D01*
X170333495Y-100292847D01*
X170381114Y-100269038D01*
X170476352Y-100269038D01*
X170523971Y-100292847D01*
X170547780Y-100316657D01*
X170571590Y-100364276D01*
X170571590Y-100459514D01*
X170547780Y-100507133D01*
X170523971Y-100530942D01*
X170476352Y-100554752D01*
X170381114Y-100554752D01*
X170333495Y-100530942D01*
X170309685Y-100507133D01*
X170285876Y-100459514D01*
X138456912Y-108366625D02*
X138490583Y-108366625D01*
X138557927Y-108332954D01*
X138591599Y-108299282D01*
X138625270Y-108231938D01*
X138625270Y-108164595D01*
X138608435Y-108114087D01*
X138557927Y-108029908D01*
X138507419Y-107979400D01*
X138423240Y-107928893D01*
X138372732Y-107912057D01*
X138305389Y-107912057D01*
X138238045Y-107945729D01*
X138204374Y-107979400D01*
X138170702Y-108046744D01*
X138170702Y-108080416D01*
X138153866Y-108737015D02*
X138355896Y-108534984D01*
X138254881Y-108636000D02*
X137901328Y-108282446D01*
X137985507Y-108299282D01*
X138052851Y-108299282D01*
X138103358Y-108282446D01*
X137699297Y-108551820D02*
X137665625Y-108551820D01*
X137615118Y-108568656D01*
X137530938Y-108652835D01*
X137514103Y-108703343D01*
X137514103Y-108737015D01*
X137530938Y-108787522D01*
X137564610Y-108821194D01*
X137631954Y-108854866D01*
X138036015Y-108854866D01*
X137817148Y-109073732D01*
X137413087Y-109073732D02*
X137429923Y-109023225D01*
X137429923Y-108989553D01*
X137413087Y-108939045D01*
X137396251Y-108922209D01*
X137345744Y-108905374D01*
X137312072Y-108905374D01*
X137261564Y-108922209D01*
X137194221Y-108989553D01*
X137177385Y-109040061D01*
X137177385Y-109073732D01*
X137194221Y-109124240D01*
X137211057Y-109141076D01*
X137261564Y-109157912D01*
X137295236Y-109157912D01*
X137345744Y-109141076D01*
X137413087Y-109073732D01*
X137463595Y-109056896D01*
X137497267Y-109056896D01*
X137547774Y-109073732D01*
X137615118Y-109141076D01*
X137631954Y-109191583D01*
X137631954Y-109225255D01*
X137615118Y-109275763D01*
X137547774Y-109343106D01*
X137497267Y-109359942D01*
X137463595Y-109359942D01*
X137413087Y-109343106D01*
X137345744Y-109275763D01*
X137328908Y-109225255D01*
X137328908Y-109191583D01*
X137345744Y-109141076D01*
X135316753Y-97257385D02*
X135350425Y-97257385D01*
X135417768Y-97223713D01*
X135451440Y-97190042D01*
X135485112Y-97122698D01*
X135485112Y-97055355D01*
X135468276Y-97004847D01*
X135417768Y-96920668D01*
X135367261Y-96870160D01*
X135283081Y-96819652D01*
X135232574Y-96802817D01*
X135165230Y-96802817D01*
X135097887Y-96836488D01*
X135064215Y-96870160D01*
X135030543Y-96937504D01*
X135030543Y-96971175D01*
X134811677Y-97358401D02*
X135047379Y-97594103D01*
X134761169Y-97139534D02*
X135097887Y-97307893D01*
X134879020Y-97526759D01*
X134609646Y-97627775D02*
X134626482Y-97577267D01*
X134626482Y-97543595D01*
X134609646Y-97493088D01*
X134592810Y-97476252D01*
X134542303Y-97459416D01*
X134508631Y-97459416D01*
X134458123Y-97476252D01*
X134390780Y-97543595D01*
X134373944Y-97594103D01*
X134373944Y-97627775D01*
X134390780Y-97678282D01*
X134407616Y-97695118D01*
X134458123Y-97711954D01*
X134491795Y-97711954D01*
X134542303Y-97695118D01*
X134609646Y-97627775D01*
X134660154Y-97610939D01*
X134693825Y-97610939D01*
X134744333Y-97627775D01*
X134811677Y-97695118D01*
X134828512Y-97745626D01*
X134828512Y-97779297D01*
X134811677Y-97829805D01*
X134744333Y-97897149D01*
X134693825Y-97913984D01*
X134660154Y-97913984D01*
X134609646Y-97897149D01*
X134542303Y-97829805D01*
X134525467Y-97779297D01*
X134525467Y-97745626D01*
X134542303Y-97695118D01*
X129807771Y-99602371D02*
X129831580Y-99578561D01*
X129855390Y-99507133D01*
X129855390Y-99459514D01*
X129831580Y-99388085D01*
X129783961Y-99340466D01*
X129736342Y-99316657D01*
X129641104Y-99292847D01*
X129569676Y-99292847D01*
X129474438Y-99316657D01*
X129426819Y-99340466D01*
X129379200Y-99388085D01*
X129355390Y-99459514D01*
X129355390Y-99507133D01*
X129379200Y-99578561D01*
X129403009Y-99602371D01*
X129355390Y-100030942D02*
X129355390Y-99935704D01*
X129379200Y-99888085D01*
X129403009Y-99864276D01*
X129474438Y-99816657D01*
X129569676Y-99792847D01*
X129760152Y-99792847D01*
X129807771Y-99816657D01*
X129831580Y-99840466D01*
X129855390Y-99888085D01*
X129855390Y-99983323D01*
X129831580Y-100030942D01*
X129807771Y-100054752D01*
X129760152Y-100078561D01*
X129641104Y-100078561D01*
X129593485Y-100054752D01*
X129569676Y-100030942D01*
X129545866Y-99983323D01*
X129545866Y-99888085D01*
X129569676Y-99840466D01*
X129593485Y-99816657D01*
X129641104Y-99792847D01*
X129355390Y-100388085D02*
X129355390Y-100435704D01*
X129379200Y-100483323D01*
X129403009Y-100507133D01*
X129450628Y-100530942D01*
X129545866Y-100554752D01*
X129664914Y-100554752D01*
X129760152Y-100530942D01*
X129807771Y-100507133D01*
X129831580Y-100483323D01*
X129855390Y-100435704D01*
X129855390Y-100388085D01*
X129831580Y-100340466D01*
X129807771Y-100316657D01*
X129760152Y-100292847D01*
X129664914Y-100269038D01*
X129545866Y-100269038D01*
X129450628Y-100292847D01*
X129403009Y-100316657D01*
X129379200Y-100340466D01*
X129355390Y-100388085D01*
X129883971Y-97494171D02*
X129907780Y-97470361D01*
X129931590Y-97398933D01*
X129931590Y-97351314D01*
X129907780Y-97279885D01*
X129860161Y-97232266D01*
X129812542Y-97208457D01*
X129717304Y-97184647D01*
X129645876Y-97184647D01*
X129550638Y-97208457D01*
X129503019Y-97232266D01*
X129455400Y-97279885D01*
X129431590Y-97351314D01*
X129431590Y-97398933D01*
X129455400Y-97470361D01*
X129479209Y-97494171D01*
X129431590Y-97946552D02*
X129431590Y-97708457D01*
X129669685Y-97684647D01*
X129645876Y-97708457D01*
X129622066Y-97756076D01*
X129622066Y-97875123D01*
X129645876Y-97922742D01*
X129669685Y-97946552D01*
X129717304Y-97970361D01*
X129836352Y-97970361D01*
X129883971Y-97946552D01*
X129907780Y-97922742D01*
X129931590Y-97875123D01*
X129931590Y-97756076D01*
X129907780Y-97708457D01*
X129883971Y-97684647D01*
X129645876Y-98256076D02*
X129622066Y-98208457D01*
X129598257Y-98184647D01*
X129550638Y-98160838D01*
X129526828Y-98160838D01*
X129479209Y-98184647D01*
X129455400Y-98208457D01*
X129431590Y-98256076D01*
X129431590Y-98351314D01*
X129455400Y-98398933D01*
X129479209Y-98422742D01*
X129526828Y-98446552D01*
X129550638Y-98446552D01*
X129598257Y-98422742D01*
X129622066Y-98398933D01*
X129645876Y-98351314D01*
X129645876Y-98256076D01*
X129669685Y-98208457D01*
X129693495Y-98184647D01*
X129741114Y-98160838D01*
X129836352Y-98160838D01*
X129883971Y-98184647D01*
X129907780Y-98208457D01*
X129931590Y-98256076D01*
X129931590Y-98351314D01*
X129907780Y-98398933D01*
X129883971Y-98422742D01*
X129836352Y-98446552D01*
X129741114Y-98446552D01*
X129693495Y-98422742D01*
X129669685Y-98398933D01*
X129645876Y-98351314D01*
X150423028Y-120549371D02*
X150446838Y-120573180D01*
X150518266Y-120596990D01*
X150565885Y-120596990D01*
X150637314Y-120573180D01*
X150684933Y-120525561D01*
X150708742Y-120477942D01*
X150732552Y-120382704D01*
X150732552Y-120311276D01*
X150708742Y-120216038D01*
X150684933Y-120168419D01*
X150637314Y-120120800D01*
X150565885Y-120096990D01*
X150518266Y-120096990D01*
X150446838Y-120120800D01*
X150423028Y-120144609D01*
X150256361Y-120096990D02*
X149946838Y-120096990D01*
X150113504Y-120287466D01*
X150042076Y-120287466D01*
X149994457Y-120311276D01*
X149970647Y-120335085D01*
X149946838Y-120382704D01*
X149946838Y-120501752D01*
X149970647Y-120549371D01*
X149994457Y-120573180D01*
X150042076Y-120596990D01*
X150184933Y-120596990D01*
X150232552Y-120573180D01*
X150256361Y-120549371D01*
X149708742Y-120596990D02*
X149613504Y-120596990D01*
X149565885Y-120573180D01*
X149542076Y-120549371D01*
X149494457Y-120477942D01*
X149470647Y-120382704D01*
X149470647Y-120192228D01*
X149494457Y-120144609D01*
X149518266Y-120120800D01*
X149565885Y-120096990D01*
X149661123Y-120096990D01*
X149708742Y-120120800D01*
X149732552Y-120144609D01*
X149756361Y-120192228D01*
X149756361Y-120311276D01*
X149732552Y-120358895D01*
X149708742Y-120382704D01*
X149661123Y-120406514D01*
X149565885Y-120406514D01*
X149518266Y-120382704D01*
X149494457Y-120358895D01*
X149470647Y-120311276D01*
X147484815Y-115441153D02*
X147484815Y-115474825D01*
X147518487Y-115542168D01*
X147552158Y-115575840D01*
X147619502Y-115609512D01*
X147686845Y-115609512D01*
X147737353Y-115592676D01*
X147821532Y-115542168D01*
X147872040Y-115491661D01*
X147922548Y-115407481D01*
X147939383Y-115356974D01*
X147939383Y-115289630D01*
X147905712Y-115222287D01*
X147872040Y-115188615D01*
X147804696Y-115154943D01*
X147771025Y-115154943D01*
X147636338Y-115020256D02*
X147636338Y-114986584D01*
X147619502Y-114936077D01*
X147535322Y-114851897D01*
X147484815Y-114835061D01*
X147451143Y-114835061D01*
X147400635Y-114851897D01*
X147366964Y-114885569D01*
X147333292Y-114952912D01*
X147333292Y-115356974D01*
X147114425Y-115138107D01*
X147350128Y-114666703D02*
X147114425Y-114431000D01*
X146912395Y-114936077D01*
X152920415Y-85316753D02*
X152920415Y-85350425D01*
X152954087Y-85417768D01*
X152987758Y-85451440D01*
X153055102Y-85485112D01*
X153122445Y-85485112D01*
X153172953Y-85468276D01*
X153257132Y-85417768D01*
X153307640Y-85367261D01*
X153358148Y-85283081D01*
X153374983Y-85232574D01*
X153374983Y-85165230D01*
X153341312Y-85097887D01*
X153307640Y-85064215D01*
X153240296Y-85030543D01*
X153206625Y-85030543D01*
X152937251Y-84693825D02*
X153004594Y-84761169D01*
X153021430Y-84811677D01*
X153021430Y-84845348D01*
X153004594Y-84929528D01*
X152954087Y-85013707D01*
X152819400Y-85148394D01*
X152768892Y-85165230D01*
X152735220Y-85165230D01*
X152684712Y-85148394D01*
X152617369Y-85081051D01*
X152600533Y-85030543D01*
X152600533Y-84996871D01*
X152617369Y-84946364D01*
X152701548Y-84862184D01*
X152752056Y-84845348D01*
X152785728Y-84845348D01*
X152836235Y-84862184D01*
X152903579Y-84929528D01*
X152920415Y-84980035D01*
X152920415Y-85013707D01*
X152903579Y-85064215D01*
X152381667Y-84845348D02*
X152314323Y-84778005D01*
X152297487Y-84727497D01*
X152297487Y-84693825D01*
X152314323Y-84609646D01*
X152364831Y-84525467D01*
X152499518Y-84390780D01*
X152550025Y-84373944D01*
X152583697Y-84373944D01*
X152634205Y-84390780D01*
X152701548Y-84458123D01*
X152718384Y-84508631D01*
X152718384Y-84542303D01*
X152701548Y-84592810D01*
X152617369Y-84676990D01*
X152566861Y-84693825D01*
X152533190Y-84693825D01*
X152482682Y-84676990D01*
X152415338Y-84609646D01*
X152398503Y-84559138D01*
X152398503Y-84525467D01*
X152415338Y-84474959D01*
X150397628Y-80341171D02*
X150421438Y-80364980D01*
X150492866Y-80388790D01*
X150540485Y-80388790D01*
X150611914Y-80364980D01*
X150659533Y-80317361D01*
X150683342Y-80269742D01*
X150707152Y-80174504D01*
X150707152Y-80103076D01*
X150683342Y-80007838D01*
X150659533Y-79960219D01*
X150611914Y-79912600D01*
X150540485Y-79888790D01*
X150492866Y-79888790D01*
X150421438Y-79912600D01*
X150397628Y-79936409D01*
X150111914Y-80103076D02*
X150159533Y-80079266D01*
X150183342Y-80055457D01*
X150207152Y-80007838D01*
X150207152Y-79984028D01*
X150183342Y-79936409D01*
X150159533Y-79912600D01*
X150111914Y-79888790D01*
X150016676Y-79888790D01*
X149969057Y-79912600D01*
X149945247Y-79936409D01*
X149921438Y-79984028D01*
X149921438Y-80007838D01*
X149945247Y-80055457D01*
X149969057Y-80079266D01*
X150016676Y-80103076D01*
X150111914Y-80103076D01*
X150159533Y-80126885D01*
X150183342Y-80150695D01*
X150207152Y-80198314D01*
X150207152Y-80293552D01*
X150183342Y-80341171D01*
X150159533Y-80364980D01*
X150111914Y-80388790D01*
X150016676Y-80388790D01*
X149969057Y-80364980D01*
X149945247Y-80341171D01*
X149921438Y-80293552D01*
X149921438Y-80198314D01*
X149945247Y-80150695D01*
X149969057Y-80126885D01*
X150016676Y-80103076D01*
X149445247Y-80388790D02*
X149730961Y-80388790D01*
X149588104Y-80388790D02*
X149588104Y-79888790D01*
X149635723Y-79960219D01*
X149683342Y-80007838D01*
X149730961Y-80031647D01*
X152429628Y-80366571D02*
X152453438Y-80390380D01*
X152524866Y-80414190D01*
X152572485Y-80414190D01*
X152643914Y-80390380D01*
X152691533Y-80342761D01*
X152715342Y-80295142D01*
X152739152Y-80199904D01*
X152739152Y-80128476D01*
X152715342Y-80033238D01*
X152691533Y-79985619D01*
X152643914Y-79938000D01*
X152572485Y-79914190D01*
X152524866Y-79914190D01*
X152453438Y-79938000D01*
X152429628Y-79961809D01*
X152262961Y-79914190D02*
X151929628Y-79914190D01*
X152143914Y-80414190D01*
X151715342Y-80414190D02*
X151620104Y-80414190D01*
X151572485Y-80390380D01*
X151548676Y-80366571D01*
X151501057Y-80295142D01*
X151477247Y-80199904D01*
X151477247Y-80009428D01*
X151501057Y-79961809D01*
X151524866Y-79938000D01*
X151572485Y-79914190D01*
X151667723Y-79914190D01*
X151715342Y-79938000D01*
X151739152Y-79961809D01*
X151762961Y-80009428D01*
X151762961Y-80128476D01*
X151739152Y-80176095D01*
X151715342Y-80199904D01*
X151667723Y-80223714D01*
X151572485Y-80223714D01*
X151524866Y-80199904D01*
X151501057Y-80176095D01*
X151477247Y-80128476D01*
X171692371Y-101837571D02*
X171716180Y-101813761D01*
X171739990Y-101742333D01*
X171739990Y-101694714D01*
X171716180Y-101623285D01*
X171668561Y-101575666D01*
X171620942Y-101551857D01*
X171525704Y-101528047D01*
X171454276Y-101528047D01*
X171359038Y-101551857D01*
X171311419Y-101575666D01*
X171263800Y-101623285D01*
X171239990Y-101694714D01*
X171239990Y-101742333D01*
X171263800Y-101813761D01*
X171287609Y-101837571D01*
X171739990Y-102313761D02*
X171739990Y-102028047D01*
X171739990Y-102170904D02*
X171239990Y-102170904D01*
X171311419Y-102123285D01*
X171359038Y-102075666D01*
X171382847Y-102028047D01*
X171239990Y-102742333D02*
X171239990Y-102647095D01*
X171263800Y-102599476D01*
X171287609Y-102575666D01*
X171359038Y-102528047D01*
X171454276Y-102504238D01*
X171644752Y-102504238D01*
X171692371Y-102528047D01*
X171716180Y-102551857D01*
X171739990Y-102599476D01*
X171739990Y-102694714D01*
X171716180Y-102742333D01*
X171692371Y-102766142D01*
X171644752Y-102789952D01*
X171525704Y-102789952D01*
X171478085Y-102766142D01*
X171454276Y-102742333D01*
X171430466Y-102694714D01*
X171430466Y-102599476D01*
X171454276Y-102551857D01*
X171478085Y-102528047D01*
X171525704Y-102504238D01*
X148213228Y-120574771D02*
X148237038Y-120598580D01*
X148308466Y-120622390D01*
X148356085Y-120622390D01*
X148427514Y-120598580D01*
X148475133Y-120550961D01*
X148498942Y-120503342D01*
X148522752Y-120408104D01*
X148522752Y-120336676D01*
X148498942Y-120241438D01*
X148475133Y-120193819D01*
X148427514Y-120146200D01*
X148356085Y-120122390D01*
X148308466Y-120122390D01*
X148237038Y-120146200D01*
X148213228Y-120170009D01*
X148046561Y-120122390D02*
X147737038Y-120122390D01*
X147903704Y-120312866D01*
X147832276Y-120312866D01*
X147784657Y-120336676D01*
X147760847Y-120360485D01*
X147737038Y-120408104D01*
X147737038Y-120527152D01*
X147760847Y-120574771D01*
X147784657Y-120598580D01*
X147832276Y-120622390D01*
X147975133Y-120622390D01*
X148022752Y-120598580D01*
X148046561Y-120574771D01*
X147570371Y-120122390D02*
X147237038Y-120122390D01*
X147451323Y-120622390D01*
X170844628Y-106350771D02*
X170868438Y-106374580D01*
X170939866Y-106398390D01*
X170987485Y-106398390D01*
X171058914Y-106374580D01*
X171106533Y-106326961D01*
X171130342Y-106279342D01*
X171154152Y-106184104D01*
X171154152Y-106112676D01*
X171130342Y-106017438D01*
X171106533Y-105969819D01*
X171058914Y-105922200D01*
X170987485Y-105898390D01*
X170939866Y-105898390D01*
X170868438Y-105922200D01*
X170844628Y-105946009D01*
X170368438Y-106398390D02*
X170654152Y-106398390D01*
X170511295Y-106398390D02*
X170511295Y-105898390D01*
X170558914Y-105969819D01*
X170606533Y-106017438D01*
X170654152Y-106041247D01*
X169939866Y-106065057D02*
X169939866Y-106398390D01*
X170058914Y-105874580D02*
X170177961Y-106231723D01*
X169868438Y-106231723D01*
X170844628Y-106985771D02*
X170868438Y-107009580D01*
X170939866Y-107033390D01*
X170987485Y-107033390D01*
X171058914Y-107009580D01*
X171106533Y-106961961D01*
X171130342Y-106914342D01*
X171154152Y-106819104D01*
X171154152Y-106747676D01*
X171130342Y-106652438D01*
X171106533Y-106604819D01*
X171058914Y-106557200D01*
X170987485Y-106533390D01*
X170939866Y-106533390D01*
X170868438Y-106557200D01*
X170844628Y-106581009D01*
X170368438Y-107033390D02*
X170654152Y-107033390D01*
X170511295Y-107033390D02*
X170511295Y-106533390D01*
X170558914Y-106604819D01*
X170606533Y-106652438D01*
X170654152Y-106676247D01*
X170201771Y-106533390D02*
X169892247Y-106533390D01*
X170058914Y-106723866D01*
X169987485Y-106723866D01*
X169939866Y-106747676D01*
X169916057Y-106771485D01*
X169892247Y-106819104D01*
X169892247Y-106938152D01*
X169916057Y-106985771D01*
X169939866Y-107009580D01*
X169987485Y-107033390D01*
X170130342Y-107033390D01*
X170177961Y-107009580D01*
X170201771Y-106985771D01*
X143447571Y-119998571D02*
X143471380Y-119974761D01*
X143495190Y-119903333D01*
X143495190Y-119855714D01*
X143471380Y-119784285D01*
X143423761Y-119736666D01*
X143376142Y-119712857D01*
X143280904Y-119689047D01*
X143209476Y-119689047D01*
X143114238Y-119712857D01*
X143066619Y-119736666D01*
X143019000Y-119784285D01*
X142995190Y-119855714D01*
X142995190Y-119903333D01*
X143019000Y-119974761D01*
X143042809Y-119998571D01*
X142995190Y-120165238D02*
X142995190Y-120474761D01*
X143185666Y-120308095D01*
X143185666Y-120379523D01*
X143209476Y-120427142D01*
X143233285Y-120450952D01*
X143280904Y-120474761D01*
X143399952Y-120474761D01*
X143447571Y-120450952D01*
X143471380Y-120427142D01*
X143495190Y-120379523D01*
X143495190Y-120236666D01*
X143471380Y-120189047D01*
X143447571Y-120165238D01*
X143161857Y-120903333D02*
X143495190Y-120903333D01*
X142971380Y-120784285D02*
X143328523Y-120665238D01*
X143328523Y-120974761D01*
X144285771Y-119922371D02*
X144309580Y-119898561D01*
X144333390Y-119827133D01*
X144333390Y-119779514D01*
X144309580Y-119708085D01*
X144261961Y-119660466D01*
X144214342Y-119636657D01*
X144119104Y-119612847D01*
X144047676Y-119612847D01*
X143952438Y-119636657D01*
X143904819Y-119660466D01*
X143857200Y-119708085D01*
X143833390Y-119779514D01*
X143833390Y-119827133D01*
X143857200Y-119898561D01*
X143881009Y-119922371D01*
X143833390Y-120089038D02*
X143833390Y-120398561D01*
X144023866Y-120231895D01*
X144023866Y-120303323D01*
X144047676Y-120350942D01*
X144071485Y-120374752D01*
X144119104Y-120398561D01*
X144238152Y-120398561D01*
X144285771Y-120374752D01*
X144309580Y-120350942D01*
X144333390Y-120303323D01*
X144333390Y-120160466D01*
X144309580Y-120112847D01*
X144285771Y-120089038D01*
X143833390Y-120850942D02*
X143833390Y-120612847D01*
X144071485Y-120589038D01*
X144047676Y-120612847D01*
X144023866Y-120660466D01*
X144023866Y-120779514D01*
X144047676Y-120827133D01*
X144071485Y-120850942D01*
X144119104Y-120874752D01*
X144238152Y-120874752D01*
X144285771Y-120850942D01*
X144309580Y-120827133D01*
X144333390Y-120779514D01*
X144333390Y-120660466D01*
X144309580Y-120612847D01*
X144285771Y-120589038D01*
X157290571Y-79917371D02*
X157314380Y-79893561D01*
X157338190Y-79822133D01*
X157338190Y-79774514D01*
X157314380Y-79703085D01*
X157266761Y-79655466D01*
X157219142Y-79631657D01*
X157123904Y-79607847D01*
X157052476Y-79607847D01*
X156957238Y-79631657D01*
X156909619Y-79655466D01*
X156862000Y-79703085D01*
X156838190Y-79774514D01*
X156838190Y-79822133D01*
X156862000Y-79893561D01*
X156885809Y-79917371D01*
X156838190Y-80084038D02*
X156838190Y-80417371D01*
X157338190Y-80203085D01*
X156838190Y-80822133D02*
X156838190Y-80726895D01*
X156862000Y-80679276D01*
X156885809Y-80655466D01*
X156957238Y-80607847D01*
X157052476Y-80584038D01*
X157242952Y-80584038D01*
X157290571Y-80607847D01*
X157314380Y-80631657D01*
X157338190Y-80679276D01*
X157338190Y-80774514D01*
X157314380Y-80822133D01*
X157290571Y-80845942D01*
X157242952Y-80869752D01*
X157123904Y-80869752D01*
X157076285Y-80845942D01*
X157052476Y-80822133D01*
X157028666Y-80774514D01*
X157028666Y-80679276D01*
X157052476Y-80631657D01*
X157076285Y-80607847D01*
X157123904Y-80584038D01*
X156528571Y-79968171D02*
X156552380Y-79944361D01*
X156576190Y-79872933D01*
X156576190Y-79825314D01*
X156552380Y-79753885D01*
X156504761Y-79706266D01*
X156457142Y-79682457D01*
X156361904Y-79658647D01*
X156290476Y-79658647D01*
X156195238Y-79682457D01*
X156147619Y-79706266D01*
X156100000Y-79753885D01*
X156076190Y-79825314D01*
X156076190Y-79872933D01*
X156100000Y-79944361D01*
X156123809Y-79968171D01*
X156076190Y-80134838D02*
X156076190Y-80468171D01*
X156576190Y-80253885D01*
X156076190Y-80611028D02*
X156076190Y-80944361D01*
X156576190Y-80730076D01*
X156477771Y-74204771D02*
X156501580Y-74180961D01*
X156525390Y-74109533D01*
X156525390Y-74061914D01*
X156501580Y-73990485D01*
X156453961Y-73942866D01*
X156406342Y-73919057D01*
X156311104Y-73895247D01*
X156239676Y-73895247D01*
X156144438Y-73919057D01*
X156096819Y-73942866D01*
X156049200Y-73990485D01*
X156025390Y-74061914D01*
X156025390Y-74109533D01*
X156049200Y-74180961D01*
X156073009Y-74204771D01*
X156525390Y-74442866D02*
X156525390Y-74538104D01*
X156501580Y-74585723D01*
X156477771Y-74609533D01*
X156406342Y-74657152D01*
X156311104Y-74680961D01*
X156120628Y-74680961D01*
X156073009Y-74657152D01*
X156049200Y-74633342D01*
X156025390Y-74585723D01*
X156025390Y-74490485D01*
X156049200Y-74442866D01*
X156073009Y-74419057D01*
X156120628Y-74395247D01*
X156239676Y-74395247D01*
X156287295Y-74419057D01*
X156311104Y-74442866D01*
X156334914Y-74490485D01*
X156334914Y-74585723D01*
X156311104Y-74633342D01*
X156287295Y-74657152D01*
X156239676Y-74680961D01*
X156525390Y-75157152D02*
X156525390Y-74871438D01*
X156525390Y-75014295D02*
X156025390Y-75014295D01*
X156096819Y-74966676D01*
X156144438Y-74919057D01*
X156168247Y-74871438D01*
X143752371Y-73999171D02*
X143776180Y-73975361D01*
X143799990Y-73903933D01*
X143799990Y-73856314D01*
X143776180Y-73784885D01*
X143728561Y-73737266D01*
X143680942Y-73713457D01*
X143585704Y-73689647D01*
X143514276Y-73689647D01*
X143419038Y-73713457D01*
X143371419Y-73737266D01*
X143323800Y-73784885D01*
X143299990Y-73856314D01*
X143299990Y-73903933D01*
X143323800Y-73975361D01*
X143347609Y-73999171D01*
X143514276Y-74284885D02*
X143490466Y-74237266D01*
X143466657Y-74213457D01*
X143419038Y-74189647D01*
X143395228Y-74189647D01*
X143347609Y-74213457D01*
X143323800Y-74237266D01*
X143299990Y-74284885D01*
X143299990Y-74380123D01*
X143323800Y-74427742D01*
X143347609Y-74451552D01*
X143395228Y-74475361D01*
X143419038Y-74475361D01*
X143466657Y-74451552D01*
X143490466Y-74427742D01*
X143514276Y-74380123D01*
X143514276Y-74284885D01*
X143538085Y-74237266D01*
X143561895Y-74213457D01*
X143609514Y-74189647D01*
X143704752Y-74189647D01*
X143752371Y-74213457D01*
X143776180Y-74237266D01*
X143799990Y-74284885D01*
X143799990Y-74380123D01*
X143776180Y-74427742D01*
X143752371Y-74451552D01*
X143704752Y-74475361D01*
X143609514Y-74475361D01*
X143561895Y-74451552D01*
X143538085Y-74427742D01*
X143514276Y-74380123D01*
X143799990Y-74713457D02*
X143799990Y-74808695D01*
X143776180Y-74856314D01*
X143752371Y-74880123D01*
X143680942Y-74927742D01*
X143585704Y-74951552D01*
X143395228Y-74951552D01*
X143347609Y-74927742D01*
X143323800Y-74903933D01*
X143299990Y-74856314D01*
X143299990Y-74761076D01*
X143323800Y-74713457D01*
X143347609Y-74689647D01*
X143395228Y-74665838D01*
X143514276Y-74665838D01*
X143561895Y-74689647D01*
X143585704Y-74713457D01*
X143609514Y-74761076D01*
X143609514Y-74856314D01*
X143585704Y-74903933D01*
X143561895Y-74927742D01*
X143514276Y-74951552D01*
X155029971Y-119947771D02*
X155053780Y-119923961D01*
X155077590Y-119852533D01*
X155077590Y-119804914D01*
X155053780Y-119733485D01*
X155006161Y-119685866D01*
X154958542Y-119662057D01*
X154863304Y-119638247D01*
X154791876Y-119638247D01*
X154696638Y-119662057D01*
X154649019Y-119685866D01*
X154601400Y-119733485D01*
X154577590Y-119804914D01*
X154577590Y-119852533D01*
X154601400Y-119923961D01*
X154625209Y-119947771D01*
X154744257Y-120376342D02*
X155077590Y-120376342D01*
X154553780Y-120257295D02*
X154910923Y-120138247D01*
X154910923Y-120447771D01*
X154577590Y-120733485D02*
X154577590Y-120781104D01*
X154601400Y-120828723D01*
X154625209Y-120852533D01*
X154672828Y-120876342D01*
X154768066Y-120900152D01*
X154887114Y-120900152D01*
X154982352Y-120876342D01*
X155029971Y-120852533D01*
X155053780Y-120828723D01*
X155077590Y-120781104D01*
X155077590Y-120733485D01*
X155053780Y-120685866D01*
X155029971Y-120662057D01*
X154982352Y-120638247D01*
X154887114Y-120614438D01*
X154768066Y-120614438D01*
X154672828Y-120638247D01*
X154625209Y-120662057D01*
X154601400Y-120685866D01*
X154577590Y-120733485D01*
X143422171Y-117737971D02*
X143445980Y-117714161D01*
X143469790Y-117642733D01*
X143469790Y-117595114D01*
X143445980Y-117523685D01*
X143398361Y-117476066D01*
X143350742Y-117452257D01*
X143255504Y-117428447D01*
X143184076Y-117428447D01*
X143088838Y-117452257D01*
X143041219Y-117476066D01*
X142993600Y-117523685D01*
X142969790Y-117595114D01*
X142969790Y-117642733D01*
X142993600Y-117714161D01*
X143017409Y-117737971D01*
X142969790Y-117904638D02*
X142969790Y-118214161D01*
X143160266Y-118047495D01*
X143160266Y-118118923D01*
X143184076Y-118166542D01*
X143207885Y-118190352D01*
X143255504Y-118214161D01*
X143374552Y-118214161D01*
X143422171Y-118190352D01*
X143445980Y-118166542D01*
X143469790Y-118118923D01*
X143469790Y-117976066D01*
X143445980Y-117928447D01*
X143422171Y-117904638D01*
X143017409Y-118404638D02*
X142993600Y-118428447D01*
X142969790Y-118476066D01*
X142969790Y-118595114D01*
X142993600Y-118642733D01*
X143017409Y-118666542D01*
X143065028Y-118690352D01*
X143112647Y-118690352D01*
X143184076Y-118666542D01*
X143469790Y-118380828D01*
X143469790Y-118690352D01*
X152512553Y-114503984D02*
X152546225Y-114503984D01*
X152613568Y-114470312D01*
X152647240Y-114436641D01*
X152680912Y-114369297D01*
X152680912Y-114301954D01*
X152664076Y-114251446D01*
X152613568Y-114167267D01*
X152563061Y-114116759D01*
X152478881Y-114066251D01*
X152428374Y-114049416D01*
X152361030Y-114049416D01*
X152293687Y-114083087D01*
X152260015Y-114116759D01*
X152226343Y-114184103D01*
X152226343Y-114217774D01*
X152091656Y-114352461D02*
X152057984Y-114352461D01*
X152007477Y-114369297D01*
X151923297Y-114453477D01*
X151906461Y-114503984D01*
X151906461Y-114537656D01*
X151923297Y-114588164D01*
X151956969Y-114621835D01*
X152024312Y-114655507D01*
X152428374Y-114655507D01*
X152209507Y-114874374D01*
X151805446Y-114874374D02*
X151822282Y-114823866D01*
X151822282Y-114790194D01*
X151805446Y-114739687D01*
X151788610Y-114722851D01*
X151738103Y-114706015D01*
X151704431Y-114706015D01*
X151653923Y-114722851D01*
X151586580Y-114790194D01*
X151569744Y-114840702D01*
X151569744Y-114874374D01*
X151586580Y-114924881D01*
X151603416Y-114941717D01*
X151653923Y-114958553D01*
X151687595Y-114958553D01*
X151738103Y-114941717D01*
X151805446Y-114874374D01*
X151855954Y-114857538D01*
X151889625Y-114857538D01*
X151940133Y-114874374D01*
X152007477Y-114941717D01*
X152024312Y-114992225D01*
X152024312Y-115025896D01*
X152007477Y-115076404D01*
X151940133Y-115143748D01*
X151889625Y-115160583D01*
X151855954Y-115160583D01*
X151805446Y-115143748D01*
X151738103Y-115076404D01*
X151721267Y-115025896D01*
X151721267Y-114992225D01*
X151738103Y-114941717D01*
X156477771Y-117534771D02*
X156501580Y-117510961D01*
X156525390Y-117439533D01*
X156525390Y-117391914D01*
X156501580Y-117320485D01*
X156453961Y-117272866D01*
X156406342Y-117249057D01*
X156311104Y-117225247D01*
X156239676Y-117225247D01*
X156144438Y-117249057D01*
X156096819Y-117272866D01*
X156049200Y-117320485D01*
X156025390Y-117391914D01*
X156025390Y-117439533D01*
X156049200Y-117510961D01*
X156073009Y-117534771D01*
X156073009Y-117725247D02*
X156049200Y-117749057D01*
X156025390Y-117796676D01*
X156025390Y-117915723D01*
X156049200Y-117963342D01*
X156073009Y-117987152D01*
X156120628Y-118010961D01*
X156168247Y-118010961D01*
X156239676Y-117987152D01*
X156525390Y-117701438D01*
X156525390Y-118010961D01*
X156073009Y-118201438D02*
X156049200Y-118225247D01*
X156025390Y-118272866D01*
X156025390Y-118391914D01*
X156049200Y-118439533D01*
X156073009Y-118463342D01*
X156120628Y-118487152D01*
X156168247Y-118487152D01*
X156239676Y-118463342D01*
X156525390Y-118177628D01*
X156525390Y-118487152D01*
X143371371Y-115401171D02*
X143395180Y-115377361D01*
X143418990Y-115305933D01*
X143418990Y-115258314D01*
X143395180Y-115186885D01*
X143347561Y-115139266D01*
X143299942Y-115115457D01*
X143204704Y-115091647D01*
X143133276Y-115091647D01*
X143038038Y-115115457D01*
X142990419Y-115139266D01*
X142942800Y-115186885D01*
X142918990Y-115258314D01*
X142918990Y-115305933D01*
X142942800Y-115377361D01*
X142966609Y-115401171D01*
X142918990Y-115567838D02*
X142918990Y-115877361D01*
X143109466Y-115710695D01*
X143109466Y-115782123D01*
X143133276Y-115829742D01*
X143157085Y-115853552D01*
X143204704Y-115877361D01*
X143323752Y-115877361D01*
X143371371Y-115853552D01*
X143395180Y-115829742D01*
X143418990Y-115782123D01*
X143418990Y-115639266D01*
X143395180Y-115591647D01*
X143371371Y-115567838D01*
X142918990Y-116186885D02*
X142918990Y-116234504D01*
X142942800Y-116282123D01*
X142966609Y-116305933D01*
X143014228Y-116329742D01*
X143109466Y-116353552D01*
X143228514Y-116353552D01*
X143323752Y-116329742D01*
X143371371Y-116305933D01*
X143395180Y-116282123D01*
X143418990Y-116234504D01*
X143418990Y-116186885D01*
X143395180Y-116139266D01*
X143371371Y-116115457D01*
X143323752Y-116091647D01*
X143228514Y-116067838D01*
X143109466Y-116067838D01*
X143014228Y-116091647D01*
X142966609Y-116115457D01*
X142942800Y-116139266D01*
X142918990Y-116186885D01*
X156249171Y-113597771D02*
X156272980Y-113573961D01*
X156296790Y-113502533D01*
X156296790Y-113454914D01*
X156272980Y-113383485D01*
X156225361Y-113335866D01*
X156177742Y-113312057D01*
X156082504Y-113288247D01*
X156011076Y-113288247D01*
X155915838Y-113312057D01*
X155868219Y-113335866D01*
X155820600Y-113383485D01*
X155796790Y-113454914D01*
X155796790Y-113502533D01*
X155820600Y-113573961D01*
X155844409Y-113597771D01*
X155844409Y-113788247D02*
X155820600Y-113812057D01*
X155796790Y-113859676D01*
X155796790Y-113978723D01*
X155820600Y-114026342D01*
X155844409Y-114050152D01*
X155892028Y-114073961D01*
X155939647Y-114073961D01*
X156011076Y-114050152D01*
X156296790Y-113764438D01*
X156296790Y-114073961D01*
X155963457Y-114502533D02*
X156296790Y-114502533D01*
X155772980Y-114383485D02*
X156130123Y-114264438D01*
X156130123Y-114573961D01*
X152277228Y-121793971D02*
X152301038Y-121817780D01*
X152372466Y-121841590D01*
X152420085Y-121841590D01*
X152491514Y-121817780D01*
X152539133Y-121770161D01*
X152562942Y-121722542D01*
X152586752Y-121627304D01*
X152586752Y-121555876D01*
X152562942Y-121460638D01*
X152539133Y-121413019D01*
X152491514Y-121365400D01*
X152420085Y-121341590D01*
X152372466Y-121341590D01*
X152301038Y-121365400D01*
X152277228Y-121389209D01*
X151848657Y-121508257D02*
X151848657Y-121841590D01*
X151967704Y-121317780D02*
X152086752Y-121674923D01*
X151777228Y-121674923D01*
X151324847Y-121841590D02*
X151610561Y-121841590D01*
X151467704Y-121841590D02*
X151467704Y-121341590D01*
X151515323Y-121413019D01*
X151562942Y-121460638D01*
X151610561Y-121484447D01*
X148467228Y-79756971D02*
X148491038Y-79780780D01*
X148562466Y-79804590D01*
X148610085Y-79804590D01*
X148681514Y-79780780D01*
X148729133Y-79733161D01*
X148752942Y-79685542D01*
X148776752Y-79590304D01*
X148776752Y-79518876D01*
X148752942Y-79423638D01*
X148729133Y-79376019D01*
X148681514Y-79328400D01*
X148610085Y-79304590D01*
X148562466Y-79304590D01*
X148491038Y-79328400D01*
X148467228Y-79352209D01*
X148181514Y-79518876D02*
X148229133Y-79495066D01*
X148252942Y-79471257D01*
X148276752Y-79423638D01*
X148276752Y-79399828D01*
X148252942Y-79352209D01*
X148229133Y-79328400D01*
X148181514Y-79304590D01*
X148086276Y-79304590D01*
X148038657Y-79328400D01*
X148014847Y-79352209D01*
X147991038Y-79399828D01*
X147991038Y-79423638D01*
X148014847Y-79471257D01*
X148038657Y-79495066D01*
X148086276Y-79518876D01*
X148181514Y-79518876D01*
X148229133Y-79542685D01*
X148252942Y-79566495D01*
X148276752Y-79614114D01*
X148276752Y-79709352D01*
X148252942Y-79756971D01*
X148229133Y-79780780D01*
X148181514Y-79804590D01*
X148086276Y-79804590D01*
X148038657Y-79780780D01*
X148014847Y-79756971D01*
X147991038Y-79709352D01*
X147991038Y-79614114D01*
X148014847Y-79566495D01*
X148038657Y-79542685D01*
X148086276Y-79518876D01*
X147824371Y-79304590D02*
X147514847Y-79304590D01*
X147681514Y-79495066D01*
X147610085Y-79495066D01*
X147562466Y-79518876D01*
X147538657Y-79542685D01*
X147514847Y-79590304D01*
X147514847Y-79709352D01*
X147538657Y-79756971D01*
X147562466Y-79780780D01*
X147610085Y-79804590D01*
X147752942Y-79804590D01*
X147800561Y-79780780D01*
X147824371Y-79756971D01*
X145377971Y-79333171D02*
X145401780Y-79309361D01*
X145425590Y-79237933D01*
X145425590Y-79190314D01*
X145401780Y-79118885D01*
X145354161Y-79071266D01*
X145306542Y-79047457D01*
X145211304Y-79023647D01*
X145139876Y-79023647D01*
X145044638Y-79047457D01*
X144997019Y-79071266D01*
X144949400Y-79118885D01*
X144925590Y-79190314D01*
X144925590Y-79237933D01*
X144949400Y-79309361D01*
X144973209Y-79333171D01*
X145139876Y-79618885D02*
X145116066Y-79571266D01*
X145092257Y-79547457D01*
X145044638Y-79523647D01*
X145020828Y-79523647D01*
X144973209Y-79547457D01*
X144949400Y-79571266D01*
X144925590Y-79618885D01*
X144925590Y-79714123D01*
X144949400Y-79761742D01*
X144973209Y-79785552D01*
X145020828Y-79809361D01*
X145044638Y-79809361D01*
X145092257Y-79785552D01*
X145116066Y-79761742D01*
X145139876Y-79714123D01*
X145139876Y-79618885D01*
X145163685Y-79571266D01*
X145187495Y-79547457D01*
X145235114Y-79523647D01*
X145330352Y-79523647D01*
X145377971Y-79547457D01*
X145401780Y-79571266D01*
X145425590Y-79618885D01*
X145425590Y-79714123D01*
X145401780Y-79761742D01*
X145377971Y-79785552D01*
X145330352Y-79809361D01*
X145235114Y-79809361D01*
X145187495Y-79785552D01*
X145163685Y-79761742D01*
X145139876Y-79714123D01*
X144973209Y-79999838D02*
X144949400Y-80023647D01*
X144925590Y-80071266D01*
X144925590Y-80190314D01*
X144949400Y-80237933D01*
X144973209Y-80261742D01*
X145020828Y-80285552D01*
X145068447Y-80285552D01*
X145139876Y-80261742D01*
X145425590Y-79976028D01*
X145425590Y-80285552D01*
X157239771Y-81873171D02*
X157263580Y-81849361D01*
X157287390Y-81777933D01*
X157287390Y-81730314D01*
X157263580Y-81658885D01*
X157215961Y-81611266D01*
X157168342Y-81587457D01*
X157073104Y-81563647D01*
X157001676Y-81563647D01*
X156906438Y-81587457D01*
X156858819Y-81611266D01*
X156811200Y-81658885D01*
X156787390Y-81730314D01*
X156787390Y-81777933D01*
X156811200Y-81849361D01*
X156835009Y-81873171D01*
X156787390Y-82039838D02*
X156787390Y-82373171D01*
X157287390Y-82158885D01*
X156954057Y-82777933D02*
X157287390Y-82777933D01*
X156763580Y-82658885D02*
X157120723Y-82539838D01*
X157120723Y-82849361D01*
X148143753Y-85395584D02*
X148177425Y-85395584D01*
X148244768Y-85361912D01*
X148278440Y-85328241D01*
X148312112Y-85260897D01*
X148312112Y-85193554D01*
X148295276Y-85143046D01*
X148244768Y-85058867D01*
X148194261Y-85008359D01*
X148110081Y-84957851D01*
X148059574Y-84941016D01*
X147992230Y-84941016D01*
X147924887Y-84974687D01*
X147891215Y-85008359D01*
X147857543Y-85075703D01*
X147857543Y-85109374D01*
X147706020Y-85193554D02*
X147470318Y-85429256D01*
X147975394Y-85631287D01*
X147268287Y-85631287D02*
X147234616Y-85664958D01*
X147217780Y-85715466D01*
X147217780Y-85749138D01*
X147234616Y-85799645D01*
X147285123Y-85883825D01*
X147369303Y-85968004D01*
X147453482Y-86018512D01*
X147503990Y-86035348D01*
X147537661Y-86035348D01*
X147588169Y-86018512D01*
X147621841Y-85984840D01*
X147638677Y-85934332D01*
X147638677Y-85900661D01*
X147621841Y-85850153D01*
X147571333Y-85765974D01*
X147487154Y-85681794D01*
X147402974Y-85631287D01*
X147352467Y-85614451D01*
X147318795Y-85614451D01*
X147268287Y-85631287D01*
X157290571Y-83828971D02*
X157314380Y-83805161D01*
X157338190Y-83733733D01*
X157338190Y-83686114D01*
X157314380Y-83614685D01*
X157266761Y-83567066D01*
X157219142Y-83543257D01*
X157123904Y-83519447D01*
X157052476Y-83519447D01*
X156957238Y-83543257D01*
X156909619Y-83567066D01*
X156862000Y-83614685D01*
X156838190Y-83686114D01*
X156838190Y-83733733D01*
X156862000Y-83805161D01*
X156885809Y-83828971D01*
X156838190Y-83995638D02*
X156838190Y-84328971D01*
X157338190Y-84114685D01*
X156885809Y-84495638D02*
X156862000Y-84519447D01*
X156838190Y-84567066D01*
X156838190Y-84686114D01*
X156862000Y-84733733D01*
X156885809Y-84757542D01*
X156933428Y-84781352D01*
X156981047Y-84781352D01*
X157052476Y-84757542D01*
X157338190Y-84471828D01*
X157338190Y-84781352D01*
X143168171Y-82863771D02*
X143191980Y-82839961D01*
X143215790Y-82768533D01*
X143215790Y-82720914D01*
X143191980Y-82649485D01*
X143144361Y-82601866D01*
X143096742Y-82578057D01*
X143001504Y-82554247D01*
X142930076Y-82554247D01*
X142834838Y-82578057D01*
X142787219Y-82601866D01*
X142739600Y-82649485D01*
X142715790Y-82720914D01*
X142715790Y-82768533D01*
X142739600Y-82839961D01*
X142763409Y-82863771D01*
X142715790Y-83292342D02*
X142715790Y-83197104D01*
X142739600Y-83149485D01*
X142763409Y-83125676D01*
X142834838Y-83078057D01*
X142930076Y-83054247D01*
X143120552Y-83054247D01*
X143168171Y-83078057D01*
X143191980Y-83101866D01*
X143215790Y-83149485D01*
X143215790Y-83244723D01*
X143191980Y-83292342D01*
X143168171Y-83316152D01*
X143120552Y-83339961D01*
X143001504Y-83339961D01*
X142953885Y-83316152D01*
X142930076Y-83292342D01*
X142906266Y-83244723D01*
X142906266Y-83149485D01*
X142930076Y-83101866D01*
X142953885Y-83078057D01*
X143001504Y-83054247D01*
X142715790Y-83768533D02*
X142715790Y-83673295D01*
X142739600Y-83625676D01*
X142763409Y-83601866D01*
X142834838Y-83554247D01*
X142930076Y-83530438D01*
X143120552Y-83530438D01*
X143168171Y-83554247D01*
X143191980Y-83578057D01*
X143215790Y-83625676D01*
X143215790Y-83720914D01*
X143191980Y-83768533D01*
X143168171Y-83792342D01*
X143120552Y-83816152D01*
X143001504Y-83816152D01*
X142953885Y-83792342D01*
X142930076Y-83768533D01*
X142906266Y-83720914D01*
X142906266Y-83625676D01*
X142930076Y-83578057D01*
X142953885Y-83554247D01*
X143001504Y-83530438D01*
X143345971Y-80933371D02*
X143369780Y-80909561D01*
X143393590Y-80838133D01*
X143393590Y-80790514D01*
X143369780Y-80719085D01*
X143322161Y-80671466D01*
X143274542Y-80647657D01*
X143179304Y-80623847D01*
X143107876Y-80623847D01*
X143012638Y-80647657D01*
X142965019Y-80671466D01*
X142917400Y-80719085D01*
X142893590Y-80790514D01*
X142893590Y-80838133D01*
X142917400Y-80909561D01*
X142941209Y-80933371D01*
X142893590Y-81361942D02*
X142893590Y-81266704D01*
X142917400Y-81219085D01*
X142941209Y-81195276D01*
X143012638Y-81147657D01*
X143107876Y-81123847D01*
X143298352Y-81123847D01*
X143345971Y-81147657D01*
X143369780Y-81171466D01*
X143393590Y-81219085D01*
X143393590Y-81314323D01*
X143369780Y-81361942D01*
X143345971Y-81385752D01*
X143298352Y-81409561D01*
X143179304Y-81409561D01*
X143131685Y-81385752D01*
X143107876Y-81361942D01*
X143084066Y-81314323D01*
X143084066Y-81219085D01*
X143107876Y-81171466D01*
X143131685Y-81147657D01*
X143179304Y-81123847D01*
X143060257Y-81838133D02*
X143393590Y-81838133D01*
X142869780Y-81719085D02*
X143226923Y-81600038D01*
X143226923Y-81909561D01*
X130103028Y-93853971D02*
X130126838Y-93877780D01*
X130198266Y-93901590D01*
X130245885Y-93901590D01*
X130317314Y-93877780D01*
X130364933Y-93830161D01*
X130388742Y-93782542D01*
X130412552Y-93687304D01*
X130412552Y-93615876D01*
X130388742Y-93520638D01*
X130364933Y-93473019D01*
X130317314Y-93425400D01*
X130245885Y-93401590D01*
X130198266Y-93401590D01*
X130126838Y-93425400D01*
X130103028Y-93449209D01*
X129650647Y-93401590D02*
X129888742Y-93401590D01*
X129912552Y-93639685D01*
X129888742Y-93615876D01*
X129841123Y-93592066D01*
X129722076Y-93592066D01*
X129674457Y-93615876D01*
X129650647Y-93639685D01*
X129626838Y-93687304D01*
X129626838Y-93806352D01*
X129650647Y-93853971D01*
X129674457Y-93877780D01*
X129722076Y-93901590D01*
X129841123Y-93901590D01*
X129888742Y-93877780D01*
X129912552Y-93853971D01*
X129198266Y-93401590D02*
X129293504Y-93401590D01*
X129341123Y-93425400D01*
X129364933Y-93449209D01*
X129412552Y-93520638D01*
X129436361Y-93615876D01*
X129436361Y-93806352D01*
X129412552Y-93853971D01*
X129388742Y-93877780D01*
X129341123Y-93901590D01*
X129245885Y-93901590D01*
X129198266Y-93877780D01*
X129174457Y-93853971D01*
X129150647Y-93806352D01*
X129150647Y-93687304D01*
X129174457Y-93639685D01*
X129198266Y-93615876D01*
X129245885Y-93592066D01*
X129341123Y-93592066D01*
X129388742Y-93615876D01*
X129412552Y-93639685D01*
X129436361Y-93687304D01*
X128512371Y-101380371D02*
X128536180Y-101356561D01*
X128559990Y-101285133D01*
X128559990Y-101237514D01*
X128536180Y-101166085D01*
X128488561Y-101118466D01*
X128440942Y-101094657D01*
X128345704Y-101070847D01*
X128274276Y-101070847D01*
X128179038Y-101094657D01*
X128131419Y-101118466D01*
X128083800Y-101166085D01*
X128059990Y-101237514D01*
X128059990Y-101285133D01*
X128083800Y-101356561D01*
X128107609Y-101380371D01*
X128059990Y-101808942D02*
X128059990Y-101713704D01*
X128083800Y-101666085D01*
X128107609Y-101642276D01*
X128179038Y-101594657D01*
X128274276Y-101570847D01*
X128464752Y-101570847D01*
X128512371Y-101594657D01*
X128536180Y-101618466D01*
X128559990Y-101666085D01*
X128559990Y-101761323D01*
X128536180Y-101808942D01*
X128512371Y-101832752D01*
X128464752Y-101856561D01*
X128345704Y-101856561D01*
X128298085Y-101832752D01*
X128274276Y-101808942D01*
X128250466Y-101761323D01*
X128250466Y-101666085D01*
X128274276Y-101618466D01*
X128298085Y-101594657D01*
X128345704Y-101570847D01*
X128107609Y-102047038D02*
X128083800Y-102070847D01*
X128059990Y-102118466D01*
X128059990Y-102237514D01*
X128083800Y-102285133D01*
X128107609Y-102308942D01*
X128155228Y-102332752D01*
X128202847Y-102332752D01*
X128274276Y-102308942D01*
X128559990Y-102023228D01*
X128559990Y-102332752D01*
X130103028Y-93091971D02*
X130126838Y-93115780D01*
X130198266Y-93139590D01*
X130245885Y-93139590D01*
X130317314Y-93115780D01*
X130364933Y-93068161D01*
X130388742Y-93020542D01*
X130412552Y-92925304D01*
X130412552Y-92853876D01*
X130388742Y-92758638D01*
X130364933Y-92711019D01*
X130317314Y-92663400D01*
X130245885Y-92639590D01*
X130198266Y-92639590D01*
X130126838Y-92663400D01*
X130103028Y-92687209D01*
X129650647Y-92639590D02*
X129888742Y-92639590D01*
X129912552Y-92877685D01*
X129888742Y-92853876D01*
X129841123Y-92830066D01*
X129722076Y-92830066D01*
X129674457Y-92853876D01*
X129650647Y-92877685D01*
X129626838Y-92925304D01*
X129626838Y-93044352D01*
X129650647Y-93091971D01*
X129674457Y-93115780D01*
X129722076Y-93139590D01*
X129841123Y-93139590D01*
X129888742Y-93115780D01*
X129912552Y-93091971D01*
X129174457Y-92639590D02*
X129412552Y-92639590D01*
X129436361Y-92877685D01*
X129412552Y-92853876D01*
X129364933Y-92830066D01*
X129245885Y-92830066D01*
X129198266Y-92853876D01*
X129174457Y-92877685D01*
X129150647Y-92925304D01*
X129150647Y-93044352D01*
X129174457Y-93091971D01*
X129198266Y-93115780D01*
X129245885Y-93139590D01*
X129364933Y-93139590D01*
X129412552Y-93115780D01*
X129436361Y-93091971D01*
X135572215Y-102537953D02*
X135572215Y-102571625D01*
X135605887Y-102638968D01*
X135639558Y-102672640D01*
X135706902Y-102706312D01*
X135774245Y-102706312D01*
X135824753Y-102689476D01*
X135908932Y-102638968D01*
X135959440Y-102588461D01*
X136009948Y-102504281D01*
X136026783Y-102453774D01*
X136026783Y-102386430D01*
X135993112Y-102319087D01*
X135959440Y-102285415D01*
X135892096Y-102251743D01*
X135858425Y-102251743D01*
X135471200Y-102032877D02*
X135235497Y-102268579D01*
X135690066Y-101982369D02*
X135521707Y-102319087D01*
X135302841Y-102100220D01*
X135033467Y-102066548D02*
X134966123Y-101999205D01*
X134949287Y-101948697D01*
X134949287Y-101915025D01*
X134966123Y-101830846D01*
X135016631Y-101746667D01*
X135151318Y-101611980D01*
X135201825Y-101595144D01*
X135235497Y-101595144D01*
X135286005Y-101611980D01*
X135353348Y-101679323D01*
X135370184Y-101729831D01*
X135370184Y-101763503D01*
X135353348Y-101814010D01*
X135269169Y-101898190D01*
X135218661Y-101915025D01*
X135184990Y-101915025D01*
X135134482Y-101898190D01*
X135067138Y-101830846D01*
X135050303Y-101780338D01*
X135050303Y-101746667D01*
X135067138Y-101696159D01*
X134522628Y-93041171D02*
X134546438Y-93064980D01*
X134617866Y-93088790D01*
X134665485Y-93088790D01*
X134736914Y-93064980D01*
X134784533Y-93017361D01*
X134808342Y-92969742D01*
X134832152Y-92874504D01*
X134832152Y-92803076D01*
X134808342Y-92707838D01*
X134784533Y-92660219D01*
X134736914Y-92612600D01*
X134665485Y-92588790D01*
X134617866Y-92588790D01*
X134546438Y-92612600D01*
X134522628Y-92636409D01*
X134070247Y-92588790D02*
X134308342Y-92588790D01*
X134332152Y-92826885D01*
X134308342Y-92803076D01*
X134260723Y-92779266D01*
X134141676Y-92779266D01*
X134094057Y-92803076D01*
X134070247Y-92826885D01*
X134046438Y-92874504D01*
X134046438Y-92993552D01*
X134070247Y-93041171D01*
X134094057Y-93064980D01*
X134141676Y-93088790D01*
X134260723Y-93088790D01*
X134308342Y-93064980D01*
X134332152Y-93041171D01*
X133570247Y-93088790D02*
X133855961Y-93088790D01*
X133713104Y-93088790D02*
X133713104Y-92588790D01*
X133760723Y-92660219D01*
X133808342Y-92707838D01*
X133855961Y-92731647D01*
X133709828Y-107214371D02*
X133733638Y-107238180D01*
X133805066Y-107261990D01*
X133852685Y-107261990D01*
X133924114Y-107238180D01*
X133971733Y-107190561D01*
X133995542Y-107142942D01*
X134019352Y-107047704D01*
X134019352Y-106976276D01*
X133995542Y-106881038D01*
X133971733Y-106833419D01*
X133924114Y-106785800D01*
X133852685Y-106761990D01*
X133805066Y-106761990D01*
X133733638Y-106785800D01*
X133709828Y-106809609D01*
X133281257Y-106928657D02*
X133281257Y-107261990D01*
X133400304Y-106738180D02*
X133519352Y-107095323D01*
X133209828Y-107095323D01*
X132781257Y-106761990D02*
X133019352Y-106761990D01*
X133043161Y-107000085D01*
X133019352Y-106976276D01*
X132971733Y-106952466D01*
X132852685Y-106952466D01*
X132805066Y-106976276D01*
X132781257Y-107000085D01*
X132757447Y-107047704D01*
X132757447Y-107166752D01*
X132781257Y-107214371D01*
X132805066Y-107238180D01*
X132852685Y-107261990D01*
X132971733Y-107261990D01*
X133019352Y-107238180D01*
X133043161Y-107214371D01*
X129976028Y-104953771D02*
X129999838Y-104977580D01*
X130071266Y-105001390D01*
X130118885Y-105001390D01*
X130190314Y-104977580D01*
X130237933Y-104929961D01*
X130261742Y-104882342D01*
X130285552Y-104787104D01*
X130285552Y-104715676D01*
X130261742Y-104620438D01*
X130237933Y-104572819D01*
X130190314Y-104525200D01*
X130118885Y-104501390D01*
X130071266Y-104501390D01*
X129999838Y-104525200D01*
X129976028Y-104549009D01*
X129547457Y-104501390D02*
X129642695Y-104501390D01*
X129690314Y-104525200D01*
X129714123Y-104549009D01*
X129761742Y-104620438D01*
X129785552Y-104715676D01*
X129785552Y-104906152D01*
X129761742Y-104953771D01*
X129737933Y-104977580D01*
X129690314Y-105001390D01*
X129595076Y-105001390D01*
X129547457Y-104977580D01*
X129523647Y-104953771D01*
X129499838Y-104906152D01*
X129499838Y-104787104D01*
X129523647Y-104739485D01*
X129547457Y-104715676D01*
X129595076Y-104691866D01*
X129690314Y-104691866D01*
X129737933Y-104715676D01*
X129761742Y-104739485D01*
X129785552Y-104787104D01*
X129023647Y-105001390D02*
X129309361Y-105001390D01*
X129166504Y-105001390D02*
X129166504Y-104501390D01*
X129214123Y-104572819D01*
X129261742Y-104620438D01*
X129309361Y-104644247D01*
X131881028Y-107188971D02*
X131904838Y-107212780D01*
X131976266Y-107236590D01*
X132023885Y-107236590D01*
X132095314Y-107212780D01*
X132142933Y-107165161D01*
X132166742Y-107117542D01*
X132190552Y-107022304D01*
X132190552Y-106950876D01*
X132166742Y-106855638D01*
X132142933Y-106808019D01*
X132095314Y-106760400D01*
X132023885Y-106736590D01*
X131976266Y-106736590D01*
X131904838Y-106760400D01*
X131881028Y-106784209D01*
X131452457Y-106903257D02*
X131452457Y-107236590D01*
X131571504Y-106712780D02*
X131690552Y-107069923D01*
X131381028Y-107069923D01*
X131238171Y-106736590D02*
X130928647Y-106736590D01*
X131095314Y-106927066D01*
X131023885Y-106927066D01*
X130976266Y-106950876D01*
X130952457Y-106974685D01*
X130928647Y-107022304D01*
X130928647Y-107141352D01*
X130952457Y-107188971D01*
X130976266Y-107212780D01*
X131023885Y-107236590D01*
X131166742Y-107236590D01*
X131214361Y-107212780D01*
X131238171Y-107188971D01*
X132643028Y-93041171D02*
X132666838Y-93064980D01*
X132738266Y-93088790D01*
X132785885Y-93088790D01*
X132857314Y-93064980D01*
X132904933Y-93017361D01*
X132928742Y-92969742D01*
X132952552Y-92874504D01*
X132952552Y-92803076D01*
X132928742Y-92707838D01*
X132904933Y-92660219D01*
X132857314Y-92612600D01*
X132785885Y-92588790D01*
X132738266Y-92588790D01*
X132666838Y-92612600D01*
X132643028Y-92636409D01*
X132190647Y-92588790D02*
X132428742Y-92588790D01*
X132452552Y-92826885D01*
X132428742Y-92803076D01*
X132381123Y-92779266D01*
X132262076Y-92779266D01*
X132214457Y-92803076D01*
X132190647Y-92826885D01*
X132166838Y-92874504D01*
X132166838Y-92993552D01*
X132190647Y-93041171D01*
X132214457Y-93064980D01*
X132262076Y-93088790D01*
X132381123Y-93088790D01*
X132428742Y-93064980D01*
X132452552Y-93041171D01*
X132000171Y-92588790D02*
X131690647Y-92588790D01*
X131857314Y-92779266D01*
X131785885Y-92779266D01*
X131738266Y-92803076D01*
X131714457Y-92826885D01*
X131690647Y-92874504D01*
X131690647Y-92993552D01*
X131714457Y-93041171D01*
X131738266Y-93064980D01*
X131785885Y-93088790D01*
X131928742Y-93088790D01*
X131976361Y-93064980D01*
X132000171Y-93041171D01*
X165120393Y-102378743D02*
X165154065Y-102378743D01*
X165221408Y-102345071D01*
X165255080Y-102311400D01*
X165288752Y-102244056D01*
X165288752Y-102176712D01*
X165271916Y-102126205D01*
X165221408Y-102042025D01*
X165170901Y-101991518D01*
X165086721Y-101941010D01*
X165036214Y-101924174D01*
X164968870Y-101924174D01*
X164901527Y-101957846D01*
X164867855Y-101991518D01*
X164834183Y-102058861D01*
X164834183Y-102092533D01*
X164480630Y-102378743D02*
X164648989Y-102210384D01*
X164834183Y-102361907D01*
X164800511Y-102361907D01*
X164750004Y-102378743D01*
X164665824Y-102462922D01*
X164648989Y-102513430D01*
X164648989Y-102547102D01*
X164665824Y-102597609D01*
X164750004Y-102681789D01*
X164800511Y-102698625D01*
X164834183Y-102698625D01*
X164884691Y-102681789D01*
X164968870Y-102597609D01*
X164985706Y-102547102D01*
X164985706Y-102513430D01*
X171819371Y-99551571D02*
X171843180Y-99527761D01*
X171866990Y-99456333D01*
X171866990Y-99408714D01*
X171843180Y-99337285D01*
X171795561Y-99289666D01*
X171747942Y-99265857D01*
X171652704Y-99242047D01*
X171581276Y-99242047D01*
X171486038Y-99265857D01*
X171438419Y-99289666D01*
X171390800Y-99337285D01*
X171366990Y-99408714D01*
X171366990Y-99456333D01*
X171390800Y-99527761D01*
X171414609Y-99551571D01*
X171866990Y-100027761D02*
X171866990Y-99742047D01*
X171866990Y-99884904D02*
X171366990Y-99884904D01*
X171438419Y-99837285D01*
X171486038Y-99789666D01*
X171509847Y-99742047D01*
X171366990Y-100194428D02*
X171366990Y-100527761D01*
X171866990Y-100313476D01*
X137602752Y-108331784D02*
X137636424Y-108331784D01*
X137703767Y-108298112D01*
X137737439Y-108264441D01*
X137771111Y-108197097D01*
X137771111Y-108129754D01*
X137754275Y-108079246D01*
X137703767Y-107995067D01*
X137653260Y-107944559D01*
X137569080Y-107894051D01*
X137518573Y-107877216D01*
X137451229Y-107877216D01*
X137383886Y-107910887D01*
X137350214Y-107944559D01*
X137316542Y-108011903D01*
X137316542Y-108045574D01*
X137468065Y-108533815D02*
X137400721Y-108601158D01*
X137350214Y-108617994D01*
X137316542Y-108617994D01*
X137232363Y-108601158D01*
X137148183Y-108550651D01*
X137013496Y-108415964D01*
X136996660Y-108365456D01*
X136996660Y-108331784D01*
X137013496Y-108281277D01*
X137080840Y-108213933D01*
X137131347Y-108197097D01*
X137165019Y-108197097D01*
X137215527Y-108213933D01*
X137299706Y-108298112D01*
X137316542Y-108348620D01*
X137316542Y-108382292D01*
X137299706Y-108432799D01*
X137232363Y-108500143D01*
X137181855Y-108516979D01*
X137148183Y-108516979D01*
X137097676Y-108500143D01*
X136643107Y-108651666D02*
X136710450Y-108584322D01*
X136760958Y-108567487D01*
X136794630Y-108567487D01*
X136878809Y-108584322D01*
X136962989Y-108634830D01*
X137097676Y-108769517D01*
X137114511Y-108820025D01*
X137114511Y-108853696D01*
X137097676Y-108904204D01*
X137030332Y-108971548D01*
X136979824Y-108988383D01*
X136946153Y-108988383D01*
X136895645Y-108971548D01*
X136811466Y-108887368D01*
X136794630Y-108836861D01*
X136794630Y-108803189D01*
X136811466Y-108752681D01*
X136878809Y-108685338D01*
X136929317Y-108668502D01*
X136962989Y-108668502D01*
X137013496Y-108685338D01*
X135799353Y-97714584D02*
X135833025Y-97714584D01*
X135900368Y-97680912D01*
X135934040Y-97647241D01*
X135967712Y-97579897D01*
X135967712Y-97512554D01*
X135950876Y-97462046D01*
X135900368Y-97377867D01*
X135849861Y-97327359D01*
X135765681Y-97276851D01*
X135715174Y-97260016D01*
X135647830Y-97260016D01*
X135580487Y-97293687D01*
X135546815Y-97327359D01*
X135513143Y-97394703D01*
X135513143Y-97428374D01*
X135294277Y-97815600D02*
X135529979Y-98051302D01*
X135243769Y-97596733D02*
X135580487Y-97765092D01*
X135361620Y-97983958D01*
X135024903Y-97849271D02*
X134789200Y-98084974D01*
X135294277Y-98287004D01*
X128715571Y-99526171D02*
X128739380Y-99502361D01*
X128763190Y-99430933D01*
X128763190Y-99383314D01*
X128739380Y-99311885D01*
X128691761Y-99264266D01*
X128644142Y-99240457D01*
X128548904Y-99216647D01*
X128477476Y-99216647D01*
X128382238Y-99240457D01*
X128334619Y-99264266D01*
X128287000Y-99311885D01*
X128263190Y-99383314D01*
X128263190Y-99430933D01*
X128287000Y-99502361D01*
X128310809Y-99526171D01*
X128263190Y-99978552D02*
X128263190Y-99740457D01*
X128501285Y-99716647D01*
X128477476Y-99740457D01*
X128453666Y-99788076D01*
X128453666Y-99907123D01*
X128477476Y-99954742D01*
X128501285Y-99978552D01*
X128548904Y-100002361D01*
X128667952Y-100002361D01*
X128715571Y-99978552D01*
X128739380Y-99954742D01*
X128763190Y-99907123D01*
X128763190Y-99788076D01*
X128739380Y-99740457D01*
X128715571Y-99716647D01*
X128763190Y-100240457D02*
X128763190Y-100335695D01*
X128739380Y-100383314D01*
X128715571Y-100407123D01*
X128644142Y-100454742D01*
X128548904Y-100478552D01*
X128358428Y-100478552D01*
X128310809Y-100454742D01*
X128287000Y-100430933D01*
X128263190Y-100383314D01*
X128263190Y-100288076D01*
X128287000Y-100240457D01*
X128310809Y-100216647D01*
X128358428Y-100192838D01*
X128477476Y-100192838D01*
X128525095Y-100216647D01*
X128548904Y-100240457D01*
X128572714Y-100288076D01*
X128572714Y-100383314D01*
X128548904Y-100430933D01*
X128525095Y-100454742D01*
X128477476Y-100478552D01*
X128893371Y-97494171D02*
X128917180Y-97470361D01*
X128940990Y-97398933D01*
X128940990Y-97351314D01*
X128917180Y-97279885D01*
X128869561Y-97232266D01*
X128821942Y-97208457D01*
X128726704Y-97184647D01*
X128655276Y-97184647D01*
X128560038Y-97208457D01*
X128512419Y-97232266D01*
X128464800Y-97279885D01*
X128440990Y-97351314D01*
X128440990Y-97398933D01*
X128464800Y-97470361D01*
X128488609Y-97494171D01*
X128440990Y-97946552D02*
X128440990Y-97708457D01*
X128679085Y-97684647D01*
X128655276Y-97708457D01*
X128631466Y-97756076D01*
X128631466Y-97875123D01*
X128655276Y-97922742D01*
X128679085Y-97946552D01*
X128726704Y-97970361D01*
X128845752Y-97970361D01*
X128893371Y-97946552D01*
X128917180Y-97922742D01*
X128940990Y-97875123D01*
X128940990Y-97756076D01*
X128917180Y-97708457D01*
X128893371Y-97684647D01*
X128440990Y-98137028D02*
X128440990Y-98470361D01*
X128940990Y-98256076D01*
X150397628Y-121768571D02*
X150421438Y-121792380D01*
X150492866Y-121816190D01*
X150540485Y-121816190D01*
X150611914Y-121792380D01*
X150659533Y-121744761D01*
X150683342Y-121697142D01*
X150707152Y-121601904D01*
X150707152Y-121530476D01*
X150683342Y-121435238D01*
X150659533Y-121387619D01*
X150611914Y-121340000D01*
X150540485Y-121316190D01*
X150492866Y-121316190D01*
X150421438Y-121340000D01*
X150397628Y-121363809D01*
X150230961Y-121316190D02*
X149921438Y-121316190D01*
X150088104Y-121506666D01*
X150016676Y-121506666D01*
X149969057Y-121530476D01*
X149945247Y-121554285D01*
X149921438Y-121601904D01*
X149921438Y-121720952D01*
X149945247Y-121768571D01*
X149969057Y-121792380D01*
X150016676Y-121816190D01*
X150159533Y-121816190D01*
X150207152Y-121792380D01*
X150230961Y-121768571D01*
X149635723Y-121530476D02*
X149683342Y-121506666D01*
X149707152Y-121482857D01*
X149730961Y-121435238D01*
X149730961Y-121411428D01*
X149707152Y-121363809D01*
X149683342Y-121340000D01*
X149635723Y-121316190D01*
X149540485Y-121316190D01*
X149492866Y-121340000D01*
X149469057Y-121363809D01*
X149445247Y-121411428D01*
X149445247Y-121435238D01*
X149469057Y-121482857D01*
X149492866Y-121506666D01*
X149540485Y-121530476D01*
X149635723Y-121530476D01*
X149683342Y-121554285D01*
X149707152Y-121578095D01*
X149730961Y-121625714D01*
X149730961Y-121720952D01*
X149707152Y-121768571D01*
X149683342Y-121792380D01*
X149635723Y-121816190D01*
X149540485Y-121816190D01*
X149492866Y-121792380D01*
X149469057Y-121768571D01*
X149445247Y-121720952D01*
X149445247Y-121625714D01*
X149469057Y-121578095D01*
X149492866Y-121554285D01*
X149540485Y-121530476D01*
X147891215Y-114933153D02*
X147891215Y-114966825D01*
X147924887Y-115034168D01*
X147958558Y-115067840D01*
X148025902Y-115101512D01*
X148093245Y-115101512D01*
X148143753Y-115084676D01*
X148227932Y-115034168D01*
X148278440Y-114983661D01*
X148328948Y-114899481D01*
X148345783Y-114848974D01*
X148345783Y-114781630D01*
X148312112Y-114714287D01*
X148278440Y-114680615D01*
X148211096Y-114646943D01*
X148177425Y-114646943D01*
X148042738Y-114512256D02*
X148042738Y-114478584D01*
X148025902Y-114428077D01*
X147941722Y-114343897D01*
X147891215Y-114327061D01*
X147857543Y-114327061D01*
X147807035Y-114343897D01*
X147773364Y-114377569D01*
X147739692Y-114444912D01*
X147739692Y-114848974D01*
X147520825Y-114630107D01*
X147571333Y-113973508D02*
X147638677Y-114040851D01*
X147655512Y-114091359D01*
X147655512Y-114125031D01*
X147638677Y-114209210D01*
X147588169Y-114293390D01*
X147453482Y-114428077D01*
X147402974Y-114444912D01*
X147369303Y-114444912D01*
X147318795Y-114428077D01*
X147251451Y-114360733D01*
X147234616Y-114310225D01*
X147234616Y-114276554D01*
X147251451Y-114226046D01*
X147335631Y-114141867D01*
X147386138Y-114125031D01*
X147419810Y-114125031D01*
X147470318Y-114141867D01*
X147537661Y-114209210D01*
X147554497Y-114259718D01*
X147554497Y-114293390D01*
X147537661Y-114343897D01*
X150423028Y-79756971D02*
X150446838Y-79780780D01*
X150518266Y-79804590D01*
X150565885Y-79804590D01*
X150637314Y-79780780D01*
X150684933Y-79733161D01*
X150708742Y-79685542D01*
X150732552Y-79590304D01*
X150732552Y-79518876D01*
X150708742Y-79423638D01*
X150684933Y-79376019D01*
X150637314Y-79328400D01*
X150565885Y-79304590D01*
X150518266Y-79304590D01*
X150446838Y-79328400D01*
X150423028Y-79352209D01*
X150137314Y-79518876D02*
X150184933Y-79495066D01*
X150208742Y-79471257D01*
X150232552Y-79423638D01*
X150232552Y-79399828D01*
X150208742Y-79352209D01*
X150184933Y-79328400D01*
X150137314Y-79304590D01*
X150042076Y-79304590D01*
X149994457Y-79328400D01*
X149970647Y-79352209D01*
X149946838Y-79399828D01*
X149946838Y-79423638D01*
X149970647Y-79471257D01*
X149994457Y-79495066D01*
X150042076Y-79518876D01*
X150137314Y-79518876D01*
X150184933Y-79542685D01*
X150208742Y-79566495D01*
X150232552Y-79614114D01*
X150232552Y-79709352D01*
X150208742Y-79756971D01*
X150184933Y-79780780D01*
X150137314Y-79804590D01*
X150042076Y-79804590D01*
X149994457Y-79780780D01*
X149970647Y-79756971D01*
X149946838Y-79709352D01*
X149946838Y-79614114D01*
X149970647Y-79566495D01*
X149994457Y-79542685D01*
X150042076Y-79518876D01*
X149637314Y-79304590D02*
X149589695Y-79304590D01*
X149542076Y-79328400D01*
X149518266Y-79352209D01*
X149494457Y-79399828D01*
X149470647Y-79495066D01*
X149470647Y-79614114D01*
X149494457Y-79709352D01*
X149518266Y-79756971D01*
X149542076Y-79780780D01*
X149589695Y-79804590D01*
X149637314Y-79804590D01*
X149684933Y-79780780D01*
X149708742Y-79756971D01*
X149732552Y-79709352D01*
X149756361Y-79614114D01*
X149756361Y-79495066D01*
X149732552Y-79399828D01*
X149708742Y-79352209D01*
X149684933Y-79328400D01*
X149637314Y-79304590D01*
X152437815Y-85850153D02*
X152437815Y-85883825D01*
X152471487Y-85951168D01*
X152505158Y-85984840D01*
X152572502Y-86018512D01*
X152639845Y-86018512D01*
X152690353Y-86001676D01*
X152774532Y-85951168D01*
X152825040Y-85900661D01*
X152875548Y-85816481D01*
X152892383Y-85765974D01*
X152892383Y-85698630D01*
X152858712Y-85631287D01*
X152825040Y-85597615D01*
X152757696Y-85563943D01*
X152724025Y-85563943D01*
X152454651Y-85227225D02*
X152521994Y-85294569D01*
X152538830Y-85345077D01*
X152538830Y-85378748D01*
X152521994Y-85462928D01*
X152471487Y-85547107D01*
X152336800Y-85681794D01*
X152286292Y-85698630D01*
X152252620Y-85698630D01*
X152202112Y-85681794D01*
X152134769Y-85614451D01*
X152117933Y-85563943D01*
X152117933Y-85530271D01*
X152134769Y-85479764D01*
X152218948Y-85395584D01*
X152269456Y-85378748D01*
X152303128Y-85378748D01*
X152353635Y-85395584D01*
X152420979Y-85462928D01*
X152437815Y-85513435D01*
X152437815Y-85547107D01*
X152420979Y-85597615D01*
X152067425Y-85143046D02*
X152117933Y-85159882D01*
X152151605Y-85159882D01*
X152202112Y-85143046D01*
X152218948Y-85126210D01*
X152235784Y-85075703D01*
X152235784Y-85042031D01*
X152218948Y-84991523D01*
X152151605Y-84924180D01*
X152101097Y-84907344D01*
X152067425Y-84907344D01*
X152016918Y-84924180D01*
X152000082Y-84941016D01*
X151983246Y-84991523D01*
X151983246Y-85025195D01*
X152000082Y-85075703D01*
X152067425Y-85143046D01*
X152084261Y-85193554D01*
X152084261Y-85227225D01*
X152067425Y-85277733D01*
X152000082Y-85345077D01*
X151949574Y-85361912D01*
X151915903Y-85361912D01*
X151865395Y-85345077D01*
X151798051Y-85277733D01*
X151781216Y-85227225D01*
X151781216Y-85193554D01*
X151798051Y-85143046D01*
X151865395Y-85075703D01*
X151915903Y-85058867D01*
X151949574Y-85058867D01*
X152000082Y-85075703D01*
X168980933Y-93142771D02*
X169004742Y-93166580D01*
X169076171Y-93190390D01*
X169123790Y-93190390D01*
X169195219Y-93166580D01*
X169242838Y-93118961D01*
X169266647Y-93071342D01*
X169290457Y-92976104D01*
X169290457Y-92904676D01*
X169266647Y-92809438D01*
X169242838Y-92761819D01*
X169195219Y-92714200D01*
X169123790Y-92690390D01*
X169076171Y-92690390D01*
X169004742Y-92714200D01*
X168980933Y-92738009D01*
X168504742Y-93190390D02*
X168790457Y-93190390D01*
X168647600Y-93190390D02*
X168647600Y-92690390D01*
X168695219Y-92761819D01*
X168742838Y-92809438D01*
X168790457Y-92833247D01*
X167634733Y-93168171D02*
X167658542Y-93191980D01*
X167729971Y-93215790D01*
X167777590Y-93215790D01*
X167849019Y-93191980D01*
X167896638Y-93144361D01*
X167920447Y-93096742D01*
X167944257Y-93001504D01*
X167944257Y-92930076D01*
X167920447Y-92834838D01*
X167896638Y-92787219D01*
X167849019Y-92739600D01*
X167777590Y-92715790D01*
X167729971Y-92715790D01*
X167658542Y-92739600D01*
X167634733Y-92763409D01*
X167468066Y-92715790D02*
X167158542Y-92715790D01*
X167325209Y-92906266D01*
X167253780Y-92906266D01*
X167206161Y-92930076D01*
X167182352Y-92953885D01*
X167158542Y-93001504D01*
X167158542Y-93120552D01*
X167182352Y-93168171D01*
X167206161Y-93191980D01*
X167253780Y-93215790D01*
X167396638Y-93215790D01*
X167444257Y-93191980D01*
X167468066Y-93168171D01*
X164613856Y-97924594D02*
X164613856Y-97958266D01*
X164647528Y-98025609D01*
X164681200Y-98059281D01*
X164748543Y-98092953D01*
X164815887Y-98092953D01*
X164866394Y-98076117D01*
X164950574Y-98025609D01*
X165001081Y-97975102D01*
X165051589Y-97890922D01*
X165068425Y-97840415D01*
X165068425Y-97773071D01*
X165034753Y-97705728D01*
X165001081Y-97672056D01*
X164933738Y-97638384D01*
X164900066Y-97638384D01*
X164815887Y-97486861D02*
X164580184Y-97251159D01*
X164378154Y-97756235D01*
X171819371Y-97697371D02*
X171843180Y-97673561D01*
X171866990Y-97602133D01*
X171866990Y-97554514D01*
X171843180Y-97483085D01*
X171795561Y-97435466D01*
X171747942Y-97411657D01*
X171652704Y-97387847D01*
X171581276Y-97387847D01*
X171486038Y-97411657D01*
X171438419Y-97435466D01*
X171390800Y-97483085D01*
X171366990Y-97554514D01*
X171366990Y-97602133D01*
X171390800Y-97673561D01*
X171414609Y-97697371D01*
X171414609Y-97887847D02*
X171390800Y-97911657D01*
X171366990Y-97959276D01*
X171366990Y-98078323D01*
X171390800Y-98125942D01*
X171414609Y-98149752D01*
X171462228Y-98173561D01*
X171509847Y-98173561D01*
X171581276Y-98149752D01*
X171866990Y-97864038D01*
X171866990Y-98173561D01*
X171366990Y-98483085D02*
X171366990Y-98530704D01*
X171390800Y-98578323D01*
X171414609Y-98602133D01*
X171462228Y-98625942D01*
X171557466Y-98649752D01*
X171676514Y-98649752D01*
X171771752Y-98625942D01*
X171819371Y-98602133D01*
X171843180Y-98578323D01*
X171866990Y-98530704D01*
X171866990Y-98483085D01*
X171843180Y-98435466D01*
X171819371Y-98411657D01*
X171771752Y-98387847D01*
X171676514Y-98364038D01*
X171557466Y-98364038D01*
X171462228Y-98387847D01*
X171414609Y-98411657D01*
X171390800Y-98435466D01*
X171366990Y-98483085D01*
X170590628Y-95327171D02*
X170614438Y-95350980D01*
X170685866Y-95374790D01*
X170733485Y-95374790D01*
X170804914Y-95350980D01*
X170852533Y-95303361D01*
X170876342Y-95255742D01*
X170900152Y-95160504D01*
X170900152Y-95089076D01*
X170876342Y-94993838D01*
X170852533Y-94946219D01*
X170804914Y-94898600D01*
X170733485Y-94874790D01*
X170685866Y-94874790D01*
X170614438Y-94898600D01*
X170590628Y-94922409D01*
X170114438Y-95374790D02*
X170400152Y-95374790D01*
X170257295Y-95374790D02*
X170257295Y-94874790D01*
X170304914Y-94946219D01*
X170352533Y-94993838D01*
X170400152Y-95017647D01*
X169876342Y-95374790D02*
X169781104Y-95374790D01*
X169733485Y-95350980D01*
X169709676Y-95327171D01*
X169662057Y-95255742D01*
X169638247Y-95160504D01*
X169638247Y-94970028D01*
X169662057Y-94922409D01*
X169685866Y-94898600D01*
X169733485Y-94874790D01*
X169828723Y-94874790D01*
X169876342Y-94898600D01*
X169900152Y-94922409D01*
X169923961Y-94970028D01*
X169923961Y-95089076D01*
X169900152Y-95136695D01*
X169876342Y-95160504D01*
X169828723Y-95184314D01*
X169733485Y-95184314D01*
X169685866Y-95160504D01*
X169662057Y-95136695D01*
X169638247Y-95089076D01*
X168939628Y-107036571D02*
X168963438Y-107060380D01*
X169034866Y-107084190D01*
X169082485Y-107084190D01*
X169153914Y-107060380D01*
X169201533Y-107012761D01*
X169225342Y-106965142D01*
X169249152Y-106869904D01*
X169249152Y-106798476D01*
X169225342Y-106703238D01*
X169201533Y-106655619D01*
X169153914Y-106608000D01*
X169082485Y-106584190D01*
X169034866Y-106584190D01*
X168963438Y-106608000D01*
X168939628Y-106631809D01*
X168463438Y-107084190D02*
X168749152Y-107084190D01*
X168606295Y-107084190D02*
X168606295Y-106584190D01*
X168653914Y-106655619D01*
X168701533Y-106703238D01*
X168749152Y-106727047D01*
X167987247Y-107084190D02*
X168272961Y-107084190D01*
X168130104Y-107084190D02*
X168130104Y-106584190D01*
X168177723Y-106655619D01*
X168225342Y-106703238D01*
X168272961Y-106727047D01*
X166517133Y-107290571D02*
X166540942Y-107314380D01*
X166612371Y-107338190D01*
X166659990Y-107338190D01*
X166731419Y-107314380D01*
X166779038Y-107266761D01*
X166802847Y-107219142D01*
X166826657Y-107123904D01*
X166826657Y-107052476D01*
X166802847Y-106957238D01*
X166779038Y-106909619D01*
X166731419Y-106862000D01*
X166659990Y-106838190D01*
X166612371Y-106838190D01*
X166540942Y-106862000D01*
X166517133Y-106885809D01*
X166279038Y-107338190D02*
X166183800Y-107338190D01*
X166136180Y-107314380D01*
X166112371Y-107290571D01*
X166064752Y-107219142D01*
X166040942Y-107123904D01*
X166040942Y-106933428D01*
X166064752Y-106885809D01*
X166088561Y-106862000D01*
X166136180Y-106838190D01*
X166231419Y-106838190D01*
X166279038Y-106862000D01*
X166302847Y-106885809D01*
X166326657Y-106933428D01*
X166326657Y-107052476D01*
X166302847Y-107100095D01*
X166279038Y-107123904D01*
X166231419Y-107147714D01*
X166136180Y-107147714D01*
X166088561Y-107123904D01*
X166064752Y-107100095D01*
X166040942Y-107052476D01*
X142531816Y-112393153D02*
X142531816Y-112426825D01*
X142565488Y-112494168D01*
X142599159Y-112527840D01*
X142666503Y-112561512D01*
X142733846Y-112561512D01*
X142784354Y-112544676D01*
X142868533Y-112494168D01*
X142919041Y-112443661D01*
X142969549Y-112359481D01*
X142986384Y-112308974D01*
X142986384Y-112241630D01*
X142952713Y-112174287D01*
X142919041Y-112140615D01*
X142851697Y-112106943D01*
X142818026Y-112106943D01*
X142329785Y-112258466D02*
X142262442Y-112191122D01*
X142245606Y-112140615D01*
X142245606Y-112106943D01*
X142262442Y-112022764D01*
X142312949Y-111938584D01*
X142447636Y-111803897D01*
X142498144Y-111787061D01*
X142531816Y-111787061D01*
X142582323Y-111803897D01*
X142649667Y-111871241D01*
X142666503Y-111921748D01*
X142666503Y-111955420D01*
X142649667Y-112005928D01*
X142565488Y-112090107D01*
X142514980Y-112106943D01*
X142481308Y-112106943D01*
X142430801Y-112090107D01*
X142363457Y-112022764D01*
X142346621Y-111972256D01*
X142346621Y-111938584D01*
X142363457Y-111888077D01*
X142397129Y-111618703D02*
X142178262Y-111399836D01*
X142161426Y-111652374D01*
X142110919Y-111601867D01*
X142060411Y-111585031D01*
X142026739Y-111585031D01*
X141976232Y-111601867D01*
X141892052Y-111686046D01*
X141875217Y-111736554D01*
X141875217Y-111770225D01*
X141892052Y-111820733D01*
X141993068Y-111921748D01*
X142043575Y-111938584D01*
X142077247Y-111938584D01*
X136665771Y-92718971D02*
X136689580Y-92695161D01*
X136713390Y-92623733D01*
X136713390Y-92576114D01*
X136689580Y-92504685D01*
X136641961Y-92457066D01*
X136594342Y-92433257D01*
X136499104Y-92409447D01*
X136427676Y-92409447D01*
X136332438Y-92433257D01*
X136284819Y-92457066D01*
X136237200Y-92504685D01*
X136213390Y-92576114D01*
X136213390Y-92623733D01*
X136237200Y-92695161D01*
X136261009Y-92718971D01*
X136713390Y-92957066D02*
X136713390Y-93052304D01*
X136689580Y-93099923D01*
X136665771Y-93123733D01*
X136594342Y-93171352D01*
X136499104Y-93195161D01*
X136308628Y-93195161D01*
X136261009Y-93171352D01*
X136237200Y-93147542D01*
X136213390Y-93099923D01*
X136213390Y-93004685D01*
X136237200Y-92957066D01*
X136261009Y-92933257D01*
X136308628Y-92909447D01*
X136427676Y-92909447D01*
X136475295Y-92933257D01*
X136499104Y-92957066D01*
X136522914Y-93004685D01*
X136522914Y-93099923D01*
X136499104Y-93147542D01*
X136475295Y-93171352D01*
X136427676Y-93195161D01*
X136213390Y-93361828D02*
X136213390Y-93695161D01*
X136713390Y-93480876D01*
X139179015Y-89710953D02*
X139179015Y-89744625D01*
X139212687Y-89811968D01*
X139246358Y-89845640D01*
X139313702Y-89879312D01*
X139381045Y-89879312D01*
X139431553Y-89862476D01*
X139515732Y-89811968D01*
X139566240Y-89761461D01*
X139616748Y-89677281D01*
X139633583Y-89626774D01*
X139633583Y-89559430D01*
X139599912Y-89492087D01*
X139566240Y-89458415D01*
X139498896Y-89424743D01*
X139465225Y-89424743D01*
X138976984Y-89576266D02*
X138909641Y-89508922D01*
X138892805Y-89458415D01*
X138892805Y-89424743D01*
X138909641Y-89340564D01*
X138960148Y-89256384D01*
X139094835Y-89121697D01*
X139145343Y-89104861D01*
X139179015Y-89104861D01*
X139229522Y-89121697D01*
X139296866Y-89189041D01*
X139313702Y-89239548D01*
X139313702Y-89273220D01*
X139296866Y-89323728D01*
X139212687Y-89407907D01*
X139162179Y-89424743D01*
X139128507Y-89424743D01*
X139078000Y-89407907D01*
X139010656Y-89340564D01*
X138993820Y-89290056D01*
X138993820Y-89256384D01*
X139010656Y-89205877D01*
X138808625Y-89003846D02*
X138859133Y-89020682D01*
X138892805Y-89020682D01*
X138943312Y-89003846D01*
X138960148Y-88987010D01*
X138976984Y-88936503D01*
X138976984Y-88902831D01*
X138960148Y-88852323D01*
X138892805Y-88784980D01*
X138842297Y-88768144D01*
X138808625Y-88768144D01*
X138758118Y-88784980D01*
X138741282Y-88801816D01*
X138724446Y-88852323D01*
X138724446Y-88885995D01*
X138741282Y-88936503D01*
X138808625Y-89003846D01*
X138825461Y-89054354D01*
X138825461Y-89088025D01*
X138808625Y-89138533D01*
X138741282Y-89205877D01*
X138690774Y-89222712D01*
X138657103Y-89222712D01*
X138606595Y-89205877D01*
X138539251Y-89138533D01*
X138522416Y-89088025D01*
X138522416Y-89054354D01*
X138539251Y-89003846D01*
X138606595Y-88936503D01*
X138657103Y-88919667D01*
X138690774Y-88919667D01*
X138741282Y-88936503D01*
X143751015Y-89050553D02*
X143751015Y-89084225D01*
X143784687Y-89151568D01*
X143818358Y-89185240D01*
X143885702Y-89218912D01*
X143953045Y-89218912D01*
X144003553Y-89202076D01*
X144087732Y-89151568D01*
X144138240Y-89101061D01*
X144188748Y-89016881D01*
X144205583Y-88966374D01*
X144205583Y-88899030D01*
X144171912Y-88831687D01*
X144138240Y-88798015D01*
X144070896Y-88764343D01*
X144037225Y-88764343D01*
X143548984Y-88915866D02*
X143481641Y-88848522D01*
X143464805Y-88798015D01*
X143464805Y-88764343D01*
X143481641Y-88680164D01*
X143532148Y-88595984D01*
X143666835Y-88461297D01*
X143717343Y-88444461D01*
X143751015Y-88444461D01*
X143801522Y-88461297D01*
X143868866Y-88528641D01*
X143885702Y-88579148D01*
X143885702Y-88612820D01*
X143868866Y-88663328D01*
X143784687Y-88747507D01*
X143734179Y-88764343D01*
X143700507Y-88764343D01*
X143650000Y-88747507D01*
X143582656Y-88680164D01*
X143565820Y-88629656D01*
X143565820Y-88595984D01*
X143582656Y-88545477D01*
X143212267Y-88579148D02*
X143144923Y-88511805D01*
X143128087Y-88461297D01*
X143128087Y-88427625D01*
X143144923Y-88343446D01*
X143195431Y-88259267D01*
X143330118Y-88124580D01*
X143380625Y-88107744D01*
X143414297Y-88107744D01*
X143464805Y-88124580D01*
X143532148Y-88191923D01*
X143548984Y-88242431D01*
X143548984Y-88276103D01*
X143532148Y-88326610D01*
X143447969Y-88410790D01*
X143397461Y-88427625D01*
X143363790Y-88427625D01*
X143313282Y-88410790D01*
X143245938Y-88343446D01*
X143229103Y-88292938D01*
X143229103Y-88259267D01*
X143245938Y-88208759D01*
X157914774Y-87694912D02*
X157914774Y-87728583D01*
X157948445Y-87795927D01*
X157982117Y-87829599D01*
X158049461Y-87863270D01*
X158116804Y-87863270D01*
X158167312Y-87846435D01*
X158251491Y-87795927D01*
X158301999Y-87745419D01*
X158352506Y-87661240D01*
X158369342Y-87610732D01*
X158369342Y-87543389D01*
X158335670Y-87476045D01*
X158301999Y-87442374D01*
X158234655Y-87408702D01*
X158200983Y-87408702D01*
X157544384Y-87391866D02*
X157746415Y-87593896D01*
X157645400Y-87492881D02*
X157998953Y-87139328D01*
X157982117Y-87223507D01*
X157982117Y-87290851D01*
X157998953Y-87341358D01*
X157679071Y-86819446D02*
X157645400Y-86785774D01*
X157594892Y-86768938D01*
X157561220Y-86768938D01*
X157510712Y-86785774D01*
X157426533Y-86836282D01*
X157342354Y-86920461D01*
X157291846Y-87004641D01*
X157275010Y-87055148D01*
X157275010Y-87088820D01*
X157291846Y-87139328D01*
X157325518Y-87173000D01*
X157376025Y-87189835D01*
X157409697Y-87189835D01*
X157460205Y-87173000D01*
X157544384Y-87122492D01*
X157628564Y-87038312D01*
X157679071Y-86954133D01*
X157695907Y-86903625D01*
X157695907Y-86869954D01*
X157679071Y-86819446D01*
X157392861Y-86600580D02*
X157392861Y-86566908D01*
X157376025Y-86516400D01*
X157291846Y-86432221D01*
X157241338Y-86415385D01*
X157207667Y-86415385D01*
X157157159Y-86432221D01*
X157123487Y-86465893D01*
X157089816Y-86533236D01*
X157089816Y-86937297D01*
X156870949Y-86718431D01*
X161521574Y-94883112D02*
X161521574Y-94916783D01*
X161555245Y-94984127D01*
X161588917Y-95017799D01*
X161656261Y-95051470D01*
X161723604Y-95051470D01*
X161774112Y-95034635D01*
X161858291Y-94984127D01*
X161908799Y-94933619D01*
X161959306Y-94849440D01*
X161976142Y-94798932D01*
X161976142Y-94731589D01*
X161942470Y-94664245D01*
X161908799Y-94630574D01*
X161841455Y-94596902D01*
X161807783Y-94596902D01*
X161151184Y-94580066D02*
X161353215Y-94782096D01*
X161252200Y-94681081D02*
X161605753Y-94327528D01*
X161588917Y-94411707D01*
X161588917Y-94479051D01*
X161605753Y-94529558D01*
X161285871Y-94007646D02*
X161252200Y-93973974D01*
X161201692Y-93957138D01*
X161168020Y-93957138D01*
X161117512Y-93973974D01*
X161033333Y-94024482D01*
X160949154Y-94108661D01*
X160898646Y-94192841D01*
X160881810Y-94243348D01*
X160881810Y-94277020D01*
X160898646Y-94327528D01*
X160932318Y-94361200D01*
X160982825Y-94378035D01*
X161016497Y-94378035D01*
X161067005Y-94361200D01*
X161151184Y-94310692D01*
X161235364Y-94226512D01*
X161285871Y-94142333D01*
X161302707Y-94091825D01*
X161302707Y-94058154D01*
X161285871Y-94007646D01*
X161050169Y-93771944D02*
X160831303Y-93553077D01*
X160814467Y-93805616D01*
X160763959Y-93755108D01*
X160713451Y-93738272D01*
X160679780Y-93738272D01*
X160629272Y-93755108D01*
X160545093Y-93839287D01*
X160528257Y-93889795D01*
X160528257Y-93923467D01*
X160545093Y-93973974D01*
X160646108Y-94074990D01*
X160696616Y-94091825D01*
X160730287Y-94091825D01*
X166549312Y-93025024D02*
X166582983Y-93025024D01*
X166650327Y-92991353D01*
X166683999Y-92957681D01*
X166717670Y-92890337D01*
X166717670Y-92822994D01*
X166700835Y-92772486D01*
X166650327Y-92688307D01*
X166599819Y-92637799D01*
X166515640Y-92587292D01*
X166465132Y-92570456D01*
X166397789Y-92570456D01*
X166330445Y-92604128D01*
X166296774Y-92637799D01*
X166263102Y-92705143D01*
X166263102Y-92738815D01*
X166246266Y-93395414D02*
X166448296Y-93193383D01*
X166347281Y-93294399D02*
X165993728Y-92940845D01*
X166077907Y-92957681D01*
X166145251Y-92957681D01*
X166195758Y-92940845D01*
X165673846Y-93260727D02*
X165640174Y-93294399D01*
X165623338Y-93344906D01*
X165623338Y-93378578D01*
X165640174Y-93429086D01*
X165690682Y-93513265D01*
X165774861Y-93597444D01*
X165859041Y-93647952D01*
X165909548Y-93664788D01*
X165943220Y-93664788D01*
X165993728Y-93647952D01*
X166027400Y-93614280D01*
X166044235Y-93563773D01*
X166044235Y-93530101D01*
X166027400Y-93479593D01*
X165976892Y-93395414D01*
X165892712Y-93311234D01*
X165808533Y-93260727D01*
X165758025Y-93243891D01*
X165724354Y-93243891D01*
X165673846Y-93260727D01*
X165236113Y-93698460D02*
X165404472Y-93530101D01*
X165589667Y-93681624D01*
X165555995Y-93681624D01*
X165505487Y-93698460D01*
X165421308Y-93782639D01*
X165404472Y-93833147D01*
X165404472Y-93866818D01*
X165421308Y-93917326D01*
X165505487Y-94001505D01*
X165555995Y-94018341D01*
X165589667Y-94018341D01*
X165640174Y-94001505D01*
X165724354Y-93917326D01*
X165741190Y-93866818D01*
X165741190Y-93833147D01*
X165660312Y-107960225D02*
X165693983Y-107960225D01*
X165761327Y-107926554D01*
X165794999Y-107892882D01*
X165828670Y-107825538D01*
X165828670Y-107758195D01*
X165811835Y-107707687D01*
X165761327Y-107623508D01*
X165710819Y-107573000D01*
X165626640Y-107522493D01*
X165576132Y-107505657D01*
X165508789Y-107505657D01*
X165441445Y-107539329D01*
X165407774Y-107573000D01*
X165374102Y-107640344D01*
X165374102Y-107674016D01*
X165357266Y-108330615D02*
X165559296Y-108128584D01*
X165458281Y-108229600D02*
X165104728Y-107876046D01*
X165188907Y-107892882D01*
X165256251Y-107892882D01*
X165306758Y-107876046D01*
X164784846Y-108195928D02*
X164751174Y-108229600D01*
X164734338Y-108280107D01*
X164734338Y-108313779D01*
X164751174Y-108364287D01*
X164801682Y-108448466D01*
X164885861Y-108532645D01*
X164970041Y-108583153D01*
X165020548Y-108599989D01*
X165054220Y-108599989D01*
X165104728Y-108583153D01*
X165138400Y-108549481D01*
X165155235Y-108498974D01*
X165155235Y-108465302D01*
X165138400Y-108414794D01*
X165087892Y-108330615D01*
X165003712Y-108246435D01*
X164919533Y-108195928D01*
X164869025Y-108179092D01*
X164835354Y-108179092D01*
X164784846Y-108195928D01*
X164363949Y-108616825D02*
X164431293Y-108549481D01*
X164481800Y-108532645D01*
X164515472Y-108532645D01*
X164599651Y-108549481D01*
X164683831Y-108599989D01*
X164818518Y-108734676D01*
X164835354Y-108785183D01*
X164835354Y-108818855D01*
X164818518Y-108869363D01*
X164751174Y-108936706D01*
X164700667Y-108953542D01*
X164666995Y-108953542D01*
X164616487Y-108936706D01*
X164532308Y-108852527D01*
X164515472Y-108802019D01*
X164515472Y-108768348D01*
X164532308Y-108717840D01*
X164599651Y-108650496D01*
X164650159Y-108633661D01*
X164683831Y-108633661D01*
X164734338Y-108650496D01*
X157186589Y-110506069D02*
X157210399Y-110529878D01*
X157281827Y-110553688D01*
X157329446Y-110553688D01*
X157400875Y-110529878D01*
X157448494Y-110482259D01*
X157472304Y-110434640D01*
X157496113Y-110339402D01*
X157496113Y-110267974D01*
X157472304Y-110172736D01*
X157448494Y-110125117D01*
X157400875Y-110077498D01*
X157329446Y-110053688D01*
X157281827Y-110053688D01*
X157210399Y-110077498D01*
X157186589Y-110101307D01*
X156710399Y-110553688D02*
X156996113Y-110553688D01*
X156853256Y-110553688D02*
X156853256Y-110053688D01*
X156900875Y-110125117D01*
X156948494Y-110172736D01*
X156996113Y-110196545D01*
X156400875Y-110053688D02*
X156353256Y-110053688D01*
X156305637Y-110077498D01*
X156281827Y-110101307D01*
X156258018Y-110148926D01*
X156234208Y-110244164D01*
X156234208Y-110363212D01*
X156258018Y-110458450D01*
X156281827Y-110506069D01*
X156305637Y-110529878D01*
X156353256Y-110553688D01*
X156400875Y-110553688D01*
X156448494Y-110529878D01*
X156472304Y-110506069D01*
X156496113Y-110458450D01*
X156519923Y-110363212D01*
X156519923Y-110244164D01*
X156496113Y-110148926D01*
X156472304Y-110101307D01*
X156448494Y-110077498D01*
X156400875Y-110053688D01*
X156067542Y-110053688D02*
X155734208Y-110053688D01*
X155948494Y-110553688D01*
X138237753Y-106579184D02*
X138271425Y-106579184D01*
X138338768Y-106545512D01*
X138372440Y-106511841D01*
X138406112Y-106444497D01*
X138406112Y-106377154D01*
X138389276Y-106326646D01*
X138338768Y-106242467D01*
X138288261Y-106191959D01*
X138204081Y-106141451D01*
X138153574Y-106124616D01*
X138086230Y-106124616D01*
X138018887Y-106158287D01*
X137985215Y-106191959D01*
X137951543Y-106259303D01*
X137951543Y-106292974D01*
X138103066Y-106781215D02*
X138035722Y-106848558D01*
X137985215Y-106865394D01*
X137951543Y-106865394D01*
X137867364Y-106848558D01*
X137783184Y-106798051D01*
X137648497Y-106663364D01*
X137631661Y-106612856D01*
X137631661Y-106579184D01*
X137648497Y-106528677D01*
X137715841Y-106461333D01*
X137766348Y-106444497D01*
X137800020Y-106444497D01*
X137850528Y-106461333D01*
X137934707Y-106545512D01*
X137951543Y-106596020D01*
X137951543Y-106629692D01*
X137934707Y-106680199D01*
X137867364Y-106747543D01*
X137816856Y-106764379D01*
X137783184Y-106764379D01*
X137732677Y-106747543D01*
X137261272Y-106915902D02*
X137429631Y-106747543D01*
X137614825Y-106899066D01*
X137581154Y-106899066D01*
X137530646Y-106915902D01*
X137446467Y-107000081D01*
X137429631Y-107050589D01*
X137429631Y-107084261D01*
X137446467Y-107134768D01*
X137530646Y-107218948D01*
X137581154Y-107235783D01*
X137614825Y-107235783D01*
X137665333Y-107218948D01*
X137749512Y-107134768D01*
X137766348Y-107084261D01*
X137766348Y-107050589D01*
X138593353Y-109119184D02*
X138627025Y-109119184D01*
X138694368Y-109085512D01*
X138728040Y-109051841D01*
X138761712Y-108984497D01*
X138761712Y-108917154D01*
X138744876Y-108866646D01*
X138694368Y-108782467D01*
X138643861Y-108731959D01*
X138559681Y-108681451D01*
X138509174Y-108664616D01*
X138441830Y-108664616D01*
X138374487Y-108698287D01*
X138340815Y-108731959D01*
X138307143Y-108799303D01*
X138307143Y-108832974D01*
X138458666Y-109321215D02*
X138391322Y-109388558D01*
X138340815Y-109405394D01*
X138307143Y-109405394D01*
X138222964Y-109388558D01*
X138138784Y-109338051D01*
X138004097Y-109203364D01*
X137987261Y-109152856D01*
X137987261Y-109119184D01*
X138004097Y-109068677D01*
X138071441Y-109001333D01*
X138121948Y-108984497D01*
X138155620Y-108984497D01*
X138206128Y-109001333D01*
X138290307Y-109085512D01*
X138307143Y-109136020D01*
X138307143Y-109169692D01*
X138290307Y-109220199D01*
X138222964Y-109287543D01*
X138172456Y-109304379D01*
X138138784Y-109304379D01*
X138088277Y-109287543D01*
X137751559Y-109556917D02*
X137987261Y-109792619D01*
X137701051Y-109338051D02*
X138037769Y-109506409D01*
X137818903Y-109725276D01*
X158778374Y-116930312D02*
X158778374Y-116963983D01*
X158812045Y-117031327D01*
X158845717Y-117064999D01*
X158913061Y-117098670D01*
X158980404Y-117098670D01*
X159030912Y-117081835D01*
X159115091Y-117031327D01*
X159165599Y-116980819D01*
X159216106Y-116896640D01*
X159232942Y-116846132D01*
X159232942Y-116778789D01*
X159199270Y-116711445D01*
X159165599Y-116677774D01*
X159098255Y-116644102D01*
X159064583Y-116644102D01*
X158407984Y-116627266D02*
X158610015Y-116829296D01*
X158509000Y-116728281D02*
X158862553Y-116374728D01*
X158845717Y-116458907D01*
X158845717Y-116526251D01*
X158862553Y-116576758D01*
X158542671Y-116054846D02*
X158509000Y-116021174D01*
X158458492Y-116004338D01*
X158424820Y-116004338D01*
X158374312Y-116021174D01*
X158290133Y-116071682D01*
X158205954Y-116155861D01*
X158155446Y-116240041D01*
X158138610Y-116290548D01*
X158138610Y-116324220D01*
X158155446Y-116374728D01*
X158189118Y-116408400D01*
X158239625Y-116425235D01*
X158273297Y-116425235D01*
X158323805Y-116408400D01*
X158407984Y-116357892D01*
X158492164Y-116273712D01*
X158542671Y-116189533D01*
X158559507Y-116139025D01*
X158559507Y-116105354D01*
X158542671Y-116054846D01*
X158071267Y-115886487D02*
X158121774Y-115903323D01*
X158155446Y-115903323D01*
X158205954Y-115886487D01*
X158222790Y-115869651D01*
X158239625Y-115819144D01*
X158239625Y-115785472D01*
X158222790Y-115734964D01*
X158155446Y-115667621D01*
X158104938Y-115650785D01*
X158071267Y-115650785D01*
X158020759Y-115667621D01*
X158003923Y-115684457D01*
X157987087Y-115734964D01*
X157987087Y-115768636D01*
X158003923Y-115819144D01*
X158071267Y-115886487D01*
X158088103Y-115936995D01*
X158088103Y-115970667D01*
X158071267Y-116021174D01*
X158003923Y-116088518D01*
X157953416Y-116105354D01*
X157919744Y-116105354D01*
X157869236Y-116088518D01*
X157801893Y-116021174D01*
X157785057Y-115970667D01*
X157785057Y-115936995D01*
X157801893Y-115886487D01*
X157869236Y-115819144D01*
X157919744Y-115802308D01*
X157953416Y-115802308D01*
X158003923Y-115819144D01*
X143563774Y-85815312D02*
X143563774Y-85848983D01*
X143597445Y-85916327D01*
X143631117Y-85949999D01*
X143698461Y-85983670D01*
X143765804Y-85983670D01*
X143816312Y-85966835D01*
X143900491Y-85916327D01*
X143950999Y-85865819D01*
X144001506Y-85781640D01*
X144018342Y-85731132D01*
X144018342Y-85663789D01*
X143984670Y-85596445D01*
X143950999Y-85562774D01*
X143883655Y-85529102D01*
X143849983Y-85529102D01*
X143193384Y-85512266D02*
X143395415Y-85714296D01*
X143294400Y-85613281D02*
X143647953Y-85259728D01*
X143631117Y-85343907D01*
X143631117Y-85411251D01*
X143647953Y-85461758D01*
X143328071Y-84939846D02*
X143294400Y-84906174D01*
X143243892Y-84889338D01*
X143210220Y-84889338D01*
X143159712Y-84906174D01*
X143075533Y-84956682D01*
X142991354Y-85040861D01*
X142940846Y-85125041D01*
X142924010Y-85175548D01*
X142924010Y-85209220D01*
X142940846Y-85259728D01*
X142974518Y-85293400D01*
X143025025Y-85310235D01*
X143058697Y-85310235D01*
X143109205Y-85293400D01*
X143193384Y-85242892D01*
X143277564Y-85158712D01*
X143328071Y-85074533D01*
X143344907Y-85024025D01*
X143344907Y-84990354D01*
X143328071Y-84939846D01*
X142519949Y-84838831D02*
X142721980Y-85040861D01*
X142620964Y-84939846D02*
X142974518Y-84586293D01*
X142957682Y-84670472D01*
X142957682Y-84737816D01*
X142974518Y-84788323D01*
X158675313Y-89240425D02*
X158708984Y-89240425D01*
X158776328Y-89206754D01*
X158810000Y-89173082D01*
X158843671Y-89105738D01*
X158843671Y-89038395D01*
X158826836Y-88987887D01*
X158776328Y-88903708D01*
X158725820Y-88853200D01*
X158641641Y-88802693D01*
X158591133Y-88785857D01*
X158523790Y-88785857D01*
X158456446Y-88819529D01*
X158422775Y-88853200D01*
X158389103Y-88920544D01*
X158389103Y-88954216D01*
X158372267Y-89610815D02*
X158574297Y-89408784D01*
X158473282Y-89509800D02*
X158119729Y-89156246D01*
X158203908Y-89173082D01*
X158271252Y-89173082D01*
X158321759Y-89156246D01*
X158035549Y-89947532D02*
X158237580Y-89745502D01*
X158136565Y-89846517D02*
X157783011Y-89492964D01*
X157867191Y-89509799D01*
X157934534Y-89509799D01*
X157985042Y-89492964D01*
X157496801Y-90014876D02*
X157732504Y-90250578D01*
X157446294Y-89796009D02*
X157783011Y-89964368D01*
X157564145Y-90183235D01*
X140896774Y-115888912D02*
X140896774Y-115922583D01*
X140930445Y-115989927D01*
X140964117Y-116023599D01*
X141031461Y-116057270D01*
X141098804Y-116057270D01*
X141149312Y-116040435D01*
X141233491Y-115989927D01*
X141283999Y-115939419D01*
X141334506Y-115855240D01*
X141351342Y-115804732D01*
X141351342Y-115737389D01*
X141317670Y-115670045D01*
X141283999Y-115636374D01*
X141216655Y-115602702D01*
X141182983Y-115602702D01*
X140526384Y-115585866D02*
X140728415Y-115787896D01*
X140627400Y-115686881D02*
X140980953Y-115333328D01*
X140964117Y-115417507D01*
X140964117Y-115484851D01*
X140980953Y-115535358D01*
X140762087Y-115114461D02*
X140543220Y-114895595D01*
X140526384Y-115148133D01*
X140475877Y-115097625D01*
X140425369Y-115080790D01*
X140391697Y-115080790D01*
X140341190Y-115097625D01*
X140257010Y-115181805D01*
X140240174Y-115232312D01*
X140240174Y-115265984D01*
X140257010Y-115316492D01*
X140358025Y-115417507D01*
X140408533Y-115434343D01*
X140442205Y-115434343D01*
X140425369Y-114777744D02*
X140206503Y-114558877D01*
X140189667Y-114811416D01*
X140139159Y-114760908D01*
X140088651Y-114744072D01*
X140054980Y-114744072D01*
X140004472Y-114760908D01*
X139920293Y-114845087D01*
X139903457Y-114895595D01*
X139903457Y-114929267D01*
X139920293Y-114979774D01*
X140021308Y-115080790D01*
X140071816Y-115097625D01*
X140105487Y-115097625D01*
X139448974Y-114364912D02*
X139448974Y-114398583D01*
X139482645Y-114465927D01*
X139516317Y-114499599D01*
X139583661Y-114533270D01*
X139651004Y-114533270D01*
X139701512Y-114516435D01*
X139785691Y-114465927D01*
X139836199Y-114415419D01*
X139886706Y-114331240D01*
X139903542Y-114280732D01*
X139903542Y-114213389D01*
X139869870Y-114146045D01*
X139836199Y-114112374D01*
X139768855Y-114078702D01*
X139735183Y-114078702D01*
X139078584Y-114061866D02*
X139280615Y-114263896D01*
X139179600Y-114162881D02*
X139533153Y-113809328D01*
X139516317Y-113893507D01*
X139516317Y-113960851D01*
X139533153Y-114011358D01*
X139314287Y-113590461D02*
X139095420Y-113371595D01*
X139078584Y-113624133D01*
X139028077Y-113573625D01*
X138977569Y-113556790D01*
X138943897Y-113556790D01*
X138893390Y-113573625D01*
X138809210Y-113657805D01*
X138792374Y-113708312D01*
X138792374Y-113741984D01*
X138809210Y-113792492D01*
X138910225Y-113893507D01*
X138960733Y-113910343D01*
X138994405Y-113910343D01*
X138674523Y-113186400D02*
X138438821Y-113422103D01*
X138893390Y-113135893D02*
X138725031Y-113472610D01*
X138506164Y-113253744D01*
X141377912Y-86141625D02*
X141411583Y-86141625D01*
X141478927Y-86107954D01*
X141512599Y-86074282D01*
X141546270Y-86006938D01*
X141546270Y-85939595D01*
X141529435Y-85889087D01*
X141478927Y-85804908D01*
X141428419Y-85754400D01*
X141344240Y-85703893D01*
X141293732Y-85687057D01*
X141226389Y-85687057D01*
X141159045Y-85720729D01*
X141125374Y-85754400D01*
X141091702Y-85821744D01*
X141091702Y-85855416D01*
X141074866Y-86512015D02*
X141276896Y-86309984D01*
X141175881Y-86411000D02*
X140822328Y-86057446D01*
X140906507Y-86074282D01*
X140973851Y-86074282D01*
X141024358Y-86057446D01*
X140603461Y-86276312D02*
X140384595Y-86495179D01*
X140637133Y-86512015D01*
X140586625Y-86562522D01*
X140569790Y-86613030D01*
X140569790Y-86646702D01*
X140586625Y-86697209D01*
X140670805Y-86781389D01*
X140721312Y-86798225D01*
X140754984Y-86798225D01*
X140805492Y-86781389D01*
X140906507Y-86680374D01*
X140923343Y-86629866D01*
X140923343Y-86596194D01*
X140266744Y-86613030D02*
X140031042Y-86848732D01*
X140536118Y-87050763D01*
X135283374Y-75756912D02*
X135283374Y-75790583D01*
X135317045Y-75857927D01*
X135350717Y-75891599D01*
X135418061Y-75925270D01*
X135485404Y-75925270D01*
X135535912Y-75908435D01*
X135620091Y-75857927D01*
X135670599Y-75807419D01*
X135721106Y-75723240D01*
X135737942Y-75672732D01*
X135737942Y-75605389D01*
X135704270Y-75538045D01*
X135670599Y-75504374D01*
X135603255Y-75470702D01*
X135569583Y-75470702D01*
X134912984Y-75453866D02*
X135115015Y-75655896D01*
X135014000Y-75554881D02*
X135367553Y-75201328D01*
X135350717Y-75285507D01*
X135350717Y-75352851D01*
X135367553Y-75403358D01*
X135148687Y-74982461D02*
X134929820Y-74763595D01*
X134912984Y-75016133D01*
X134862477Y-74965625D01*
X134811969Y-74948790D01*
X134778297Y-74948790D01*
X134727790Y-74965625D01*
X134643610Y-75049805D01*
X134626774Y-75100312D01*
X134626774Y-75133984D01*
X134643610Y-75184492D01*
X134744625Y-75285507D01*
X134795133Y-75302343D01*
X134828805Y-75302343D01*
X134576267Y-74713087D02*
X134626774Y-74729923D01*
X134660446Y-74729923D01*
X134710954Y-74713087D01*
X134727790Y-74696251D01*
X134744625Y-74645744D01*
X134744625Y-74612072D01*
X134727790Y-74561564D01*
X134660446Y-74494221D01*
X134609938Y-74477385D01*
X134576267Y-74477385D01*
X134525759Y-74494221D01*
X134508923Y-74511057D01*
X134492087Y-74561564D01*
X134492087Y-74595236D01*
X134508923Y-74645744D01*
X134576267Y-74713087D01*
X134593103Y-74763595D01*
X134593103Y-74797267D01*
X134576267Y-74847774D01*
X134508923Y-74915118D01*
X134458416Y-74931954D01*
X134424744Y-74931954D01*
X134374236Y-74915118D01*
X134306893Y-74847774D01*
X134290057Y-74797267D01*
X134290057Y-74763595D01*
X134306893Y-74713087D01*
X134374236Y-74645744D01*
X134424744Y-74628908D01*
X134458416Y-74628908D01*
X134508923Y-74645744D01*
X152429628Y-79756971D02*
X152453438Y-79780780D01*
X152524866Y-79804590D01*
X152572485Y-79804590D01*
X152643914Y-79780780D01*
X152691533Y-79733161D01*
X152715342Y-79685542D01*
X152739152Y-79590304D01*
X152739152Y-79518876D01*
X152715342Y-79423638D01*
X152691533Y-79376019D01*
X152643914Y-79328400D01*
X152572485Y-79304590D01*
X152524866Y-79304590D01*
X152453438Y-79328400D01*
X152429628Y-79352209D01*
X152262961Y-79304590D02*
X151929628Y-79304590D01*
X152143914Y-79804590D01*
X151667723Y-79518876D02*
X151715342Y-79495066D01*
X151739152Y-79471257D01*
X151762961Y-79423638D01*
X151762961Y-79399828D01*
X151739152Y-79352209D01*
X151715342Y-79328400D01*
X151667723Y-79304590D01*
X151572485Y-79304590D01*
X151524866Y-79328400D01*
X151501057Y-79352209D01*
X151477247Y-79399828D01*
X151477247Y-79423638D01*
X151501057Y-79471257D01*
X151524866Y-79495066D01*
X151572485Y-79518876D01*
X151667723Y-79518876D01*
X151715342Y-79542685D01*
X151739152Y-79566495D01*
X151762961Y-79614114D01*
X151762961Y-79709352D01*
X151739152Y-79756971D01*
X151715342Y-79780780D01*
X151667723Y-79804590D01*
X151572485Y-79804590D01*
X151524866Y-79780780D01*
X151501057Y-79756971D01*
X151477247Y-79709352D01*
X151477247Y-79614114D01*
X151501057Y-79566495D01*
X151524866Y-79542685D01*
X151572485Y-79518876D01*
X170498571Y-101837571D02*
X170522380Y-101813761D01*
X170546190Y-101742333D01*
X170546190Y-101694714D01*
X170522380Y-101623285D01*
X170474761Y-101575666D01*
X170427142Y-101551857D01*
X170331904Y-101528047D01*
X170260476Y-101528047D01*
X170165238Y-101551857D01*
X170117619Y-101575666D01*
X170070000Y-101623285D01*
X170046190Y-101694714D01*
X170046190Y-101742333D01*
X170070000Y-101813761D01*
X170093809Y-101837571D01*
X170546190Y-102313761D02*
X170546190Y-102028047D01*
X170546190Y-102170904D02*
X170046190Y-102170904D01*
X170117619Y-102123285D01*
X170165238Y-102075666D01*
X170189047Y-102028047D01*
X170046190Y-102766142D02*
X170046190Y-102528047D01*
X170284285Y-102504238D01*
X170260476Y-102528047D01*
X170236666Y-102575666D01*
X170236666Y-102694714D01*
X170260476Y-102742333D01*
X170284285Y-102766142D01*
X170331904Y-102789952D01*
X170450952Y-102789952D01*
X170498571Y-102766142D01*
X170522380Y-102742333D01*
X170546190Y-102694714D01*
X170546190Y-102575666D01*
X170522380Y-102528047D01*
X170498571Y-102504238D01*
X148238628Y-121743171D02*
X148262438Y-121766980D01*
X148333866Y-121790790D01*
X148381485Y-121790790D01*
X148452914Y-121766980D01*
X148500533Y-121719361D01*
X148524342Y-121671742D01*
X148548152Y-121576504D01*
X148548152Y-121505076D01*
X148524342Y-121409838D01*
X148500533Y-121362219D01*
X148452914Y-121314600D01*
X148381485Y-121290790D01*
X148333866Y-121290790D01*
X148262438Y-121314600D01*
X148238628Y-121338409D01*
X148071961Y-121290790D02*
X147762438Y-121290790D01*
X147929104Y-121481266D01*
X147857676Y-121481266D01*
X147810057Y-121505076D01*
X147786247Y-121528885D01*
X147762438Y-121576504D01*
X147762438Y-121695552D01*
X147786247Y-121743171D01*
X147810057Y-121766980D01*
X147857676Y-121790790D01*
X148000533Y-121790790D01*
X148048152Y-121766980D01*
X148071961Y-121743171D01*
X147333866Y-121290790D02*
X147429104Y-121290790D01*
X147476723Y-121314600D01*
X147500533Y-121338409D01*
X147548152Y-121409838D01*
X147571961Y-121505076D01*
X147571961Y-121695552D01*
X147548152Y-121743171D01*
X147524342Y-121766980D01*
X147476723Y-121790790D01*
X147381485Y-121790790D01*
X147333866Y-121766980D01*
X147310057Y-121743171D01*
X147286247Y-121695552D01*
X147286247Y-121576504D01*
X147310057Y-121528885D01*
X147333866Y-121505076D01*
X147381485Y-121481266D01*
X147476723Y-121481266D01*
X147524342Y-121505076D01*
X147548152Y-121528885D01*
X147571961Y-121576504D01*
X159454586Y-112445561D02*
X159168376Y-112731771D01*
X159117869Y-112748607D01*
X159084197Y-112748607D01*
X159033689Y-112731771D01*
X158966346Y-112664427D01*
X158949510Y-112613920D01*
X158949510Y-112580248D01*
X158966346Y-112529740D01*
X159252556Y-112243530D01*
X158932674Y-111923649D02*
X159000017Y-111990992D01*
X159016853Y-112041500D01*
X159016853Y-112075172D01*
X159000017Y-112159351D01*
X158949510Y-112243530D01*
X158814823Y-112378217D01*
X158764315Y-112395053D01*
X158730643Y-112395053D01*
X158680136Y-112378217D01*
X158612792Y-112310874D01*
X158595956Y-112260366D01*
X158595956Y-112226695D01*
X158612792Y-112176187D01*
X158696972Y-112092008D01*
X158747479Y-112075172D01*
X158781151Y-112075172D01*
X158831659Y-112092008D01*
X158899002Y-112159351D01*
X158915838Y-112209859D01*
X158915838Y-112243530D01*
X158899002Y-112294038D01*
X163586953Y-112471983D02*
X163620625Y-112471983D01*
X163687968Y-112438311D01*
X163721640Y-112404640D01*
X163755312Y-112337296D01*
X163755312Y-112269953D01*
X163738476Y-112219445D01*
X163687968Y-112135266D01*
X163637461Y-112084758D01*
X163553281Y-112034250D01*
X163502774Y-112017415D01*
X163435430Y-112017415D01*
X163368087Y-112051086D01*
X163334415Y-112084758D01*
X163300743Y-112152102D01*
X163300743Y-112185773D01*
X163216564Y-112505655D02*
X163233400Y-112455147D01*
X163233400Y-112421476D01*
X163216564Y-112370968D01*
X163199728Y-112354132D01*
X163149220Y-112337296D01*
X163115548Y-112337296D01*
X163065041Y-112354132D01*
X162997697Y-112421476D01*
X162980861Y-112471983D01*
X162980861Y-112505655D01*
X162997697Y-112556163D01*
X163014533Y-112572999D01*
X163065041Y-112589834D01*
X163098712Y-112589834D01*
X163149220Y-112572999D01*
X163216564Y-112505655D01*
X163267071Y-112488819D01*
X163300743Y-112488819D01*
X163351251Y-112505655D01*
X163418594Y-112572999D01*
X163435430Y-112623506D01*
X163435430Y-112657178D01*
X163418594Y-112707686D01*
X163351251Y-112775029D01*
X163300743Y-112791865D01*
X163267071Y-112791865D01*
X163216564Y-112775029D01*
X163149220Y-112707686D01*
X163132384Y-112657178D01*
X163132384Y-112623506D01*
X163149220Y-112572999D01*
X162812503Y-112606670D02*
X162576800Y-112842373D01*
X163081877Y-113044403D01*
X156503171Y-76793071D02*
X156526980Y-76769261D01*
X156550790Y-76697833D01*
X156550790Y-76650214D01*
X156526980Y-76578785D01*
X156479361Y-76531166D01*
X156431742Y-76507357D01*
X156336504Y-76483547D01*
X156265076Y-76483547D01*
X156169838Y-76507357D01*
X156122219Y-76531166D01*
X156074600Y-76578785D01*
X156050790Y-76650214D01*
X156050790Y-76697833D01*
X156074600Y-76769261D01*
X156098409Y-76793071D01*
X156550790Y-77031166D02*
X156550790Y-77126404D01*
X156526980Y-77174023D01*
X156503171Y-77197833D01*
X156431742Y-77245452D01*
X156336504Y-77269261D01*
X156146028Y-77269261D01*
X156098409Y-77245452D01*
X156074600Y-77221642D01*
X156050790Y-77174023D01*
X156050790Y-77078785D01*
X156074600Y-77031166D01*
X156098409Y-77007357D01*
X156146028Y-76983547D01*
X156265076Y-76983547D01*
X156312695Y-77007357D01*
X156336504Y-77031166D01*
X156360314Y-77078785D01*
X156360314Y-77174023D01*
X156336504Y-77221642D01*
X156312695Y-77245452D01*
X156265076Y-77269261D01*
X156098409Y-77459738D02*
X156074600Y-77483547D01*
X156050790Y-77531166D01*
X156050790Y-77650214D01*
X156074600Y-77697833D01*
X156098409Y-77721642D01*
X156146028Y-77745452D01*
X156193647Y-77745452D01*
X156265076Y-77721642D01*
X156550790Y-77435928D01*
X156550790Y-77745452D01*
X143701571Y-76589971D02*
X143725380Y-76566161D01*
X143749190Y-76494733D01*
X143749190Y-76447114D01*
X143725380Y-76375685D01*
X143677761Y-76328066D01*
X143630142Y-76304257D01*
X143534904Y-76280447D01*
X143463476Y-76280447D01*
X143368238Y-76304257D01*
X143320619Y-76328066D01*
X143273000Y-76375685D01*
X143249190Y-76447114D01*
X143249190Y-76494733D01*
X143273000Y-76566161D01*
X143296809Y-76589971D01*
X143749190Y-76828066D02*
X143749190Y-76923304D01*
X143725380Y-76970923D01*
X143701571Y-76994733D01*
X143630142Y-77042352D01*
X143534904Y-77066161D01*
X143344428Y-77066161D01*
X143296809Y-77042352D01*
X143273000Y-77018542D01*
X143249190Y-76970923D01*
X143249190Y-76875685D01*
X143273000Y-76828066D01*
X143296809Y-76804257D01*
X143344428Y-76780447D01*
X143463476Y-76780447D01*
X143511095Y-76804257D01*
X143534904Y-76828066D01*
X143558714Y-76875685D01*
X143558714Y-76970923D01*
X143534904Y-77018542D01*
X143511095Y-77042352D01*
X143463476Y-77066161D01*
X143249190Y-77375685D02*
X143249190Y-77423304D01*
X143273000Y-77470923D01*
X143296809Y-77494733D01*
X143344428Y-77518542D01*
X143439666Y-77542352D01*
X143558714Y-77542352D01*
X143653952Y-77518542D01*
X143701571Y-77494733D01*
X143725380Y-77470923D01*
X143749190Y-77423304D01*
X143749190Y-77375685D01*
X143725380Y-77328066D01*
X143701571Y-77304257D01*
X143653952Y-77280447D01*
X143558714Y-77256638D01*
X143439666Y-77256638D01*
X143344428Y-77280447D01*
X143296809Y-77304257D01*
X143273000Y-77328066D01*
X143249190Y-77375685D01*
X169006333Y-93828571D02*
X169030142Y-93852380D01*
X169101571Y-93876190D01*
X169149190Y-93876190D01*
X169220619Y-93852380D01*
X169268238Y-93804761D01*
X169292047Y-93757142D01*
X169315857Y-93661904D01*
X169315857Y-93590476D01*
X169292047Y-93495238D01*
X169268238Y-93447619D01*
X169220619Y-93400000D01*
X169149190Y-93376190D01*
X169101571Y-93376190D01*
X169030142Y-93400000D01*
X169006333Y-93423809D01*
X168815857Y-93423809D02*
X168792047Y-93400000D01*
X168744428Y-93376190D01*
X168625380Y-93376190D01*
X168577761Y-93400000D01*
X168553952Y-93423809D01*
X168530142Y-93471428D01*
X168530142Y-93519047D01*
X168553952Y-93590476D01*
X168839666Y-93876190D01*
X168530142Y-93876190D01*
X167558533Y-93879371D02*
X167582342Y-93903180D01*
X167653771Y-93926990D01*
X167701390Y-93926990D01*
X167772819Y-93903180D01*
X167820438Y-93855561D01*
X167844247Y-93807942D01*
X167868057Y-93712704D01*
X167868057Y-93641276D01*
X167844247Y-93546038D01*
X167820438Y-93498419D01*
X167772819Y-93450800D01*
X167701390Y-93426990D01*
X167653771Y-93426990D01*
X167582342Y-93450800D01*
X167558533Y-93474609D01*
X167129961Y-93593657D02*
X167129961Y-93926990D01*
X167249009Y-93403180D02*
X167368057Y-93760323D01*
X167058533Y-93760323D01*
X165147256Y-97441994D02*
X165147256Y-97475666D01*
X165180928Y-97543009D01*
X165214600Y-97576681D01*
X165281943Y-97610353D01*
X165349287Y-97610353D01*
X165399794Y-97593517D01*
X165483974Y-97543009D01*
X165534481Y-97492502D01*
X165584989Y-97408322D01*
X165601825Y-97357815D01*
X165601825Y-97290471D01*
X165568153Y-97223128D01*
X165534481Y-97189456D01*
X165467138Y-97155784D01*
X165433466Y-97155784D01*
X165113584Y-97071605D02*
X165164092Y-97088441D01*
X165197764Y-97088441D01*
X165248271Y-97071605D01*
X165265107Y-97054769D01*
X165281943Y-97004261D01*
X165281943Y-96970590D01*
X165265107Y-96920082D01*
X165197764Y-96852738D01*
X165147256Y-96835903D01*
X165113584Y-96835903D01*
X165063077Y-96852738D01*
X165046241Y-96869574D01*
X165029405Y-96920082D01*
X165029405Y-96953754D01*
X165046241Y-97004261D01*
X165113584Y-97071605D01*
X165130420Y-97122112D01*
X165130420Y-97155784D01*
X165113584Y-97206292D01*
X165046241Y-97273635D01*
X164995733Y-97290471D01*
X164962061Y-97290471D01*
X164911554Y-97273635D01*
X164844210Y-97206292D01*
X164827374Y-97155784D01*
X164827374Y-97122112D01*
X164844210Y-97071605D01*
X164911554Y-97004261D01*
X164962061Y-96987425D01*
X164995733Y-96987425D01*
X165046241Y-97004261D01*
X170447771Y-97722771D02*
X170471580Y-97698961D01*
X170495390Y-97627533D01*
X170495390Y-97579914D01*
X170471580Y-97508485D01*
X170423961Y-97460866D01*
X170376342Y-97437057D01*
X170281104Y-97413247D01*
X170209676Y-97413247D01*
X170114438Y-97437057D01*
X170066819Y-97460866D01*
X170019200Y-97508485D01*
X169995390Y-97579914D01*
X169995390Y-97627533D01*
X170019200Y-97698961D01*
X170043009Y-97722771D01*
X170043009Y-97913247D02*
X170019200Y-97937057D01*
X169995390Y-97984676D01*
X169995390Y-98103723D01*
X170019200Y-98151342D01*
X170043009Y-98175152D01*
X170090628Y-98198961D01*
X170138247Y-98198961D01*
X170209676Y-98175152D01*
X170495390Y-97889438D01*
X170495390Y-98198961D01*
X170495390Y-98675152D02*
X170495390Y-98389438D01*
X170495390Y-98532295D02*
X169995390Y-98532295D01*
X170066819Y-98484676D01*
X170114438Y-98437057D01*
X170138247Y-98389438D01*
X142166774Y-86247112D02*
X142166774Y-86280783D01*
X142200445Y-86348127D01*
X142234117Y-86381799D01*
X142301461Y-86415470D01*
X142368804Y-86415470D01*
X142419312Y-86398635D01*
X142503491Y-86348127D01*
X142553999Y-86297619D01*
X142604506Y-86213440D01*
X142621342Y-86162932D01*
X142621342Y-86095589D01*
X142587670Y-86028245D01*
X142553999Y-85994574D01*
X142486655Y-85960902D01*
X142452983Y-85960902D01*
X141796384Y-85944066D02*
X141998415Y-86146096D01*
X141897400Y-86045081D02*
X142250953Y-85691528D01*
X142234117Y-85775707D01*
X142234117Y-85843051D01*
X142250953Y-85893558D01*
X141931071Y-85371646D02*
X141897400Y-85337974D01*
X141846892Y-85321138D01*
X141813220Y-85321138D01*
X141762712Y-85337974D01*
X141678533Y-85388482D01*
X141594354Y-85472661D01*
X141543846Y-85556841D01*
X141527010Y-85607348D01*
X141527010Y-85641020D01*
X141543846Y-85691528D01*
X141577518Y-85725200D01*
X141628025Y-85742035D01*
X141661697Y-85742035D01*
X141712205Y-85725200D01*
X141796384Y-85674692D01*
X141880564Y-85590512D01*
X141931071Y-85506333D01*
X141947907Y-85455825D01*
X141947907Y-85422154D01*
X141931071Y-85371646D01*
X141594354Y-85034929D02*
X141560682Y-85001257D01*
X141510174Y-84984421D01*
X141476503Y-84984421D01*
X141425995Y-85001257D01*
X141341816Y-85051764D01*
X141257636Y-85135944D01*
X141207129Y-85220123D01*
X141190293Y-85270631D01*
X141190293Y-85304303D01*
X141207129Y-85354810D01*
X141240800Y-85388482D01*
X141291308Y-85405318D01*
X141324980Y-85405318D01*
X141375487Y-85388482D01*
X141459667Y-85337974D01*
X141543846Y-85253795D01*
X141594354Y-85169616D01*
X141611190Y-85119108D01*
X141611190Y-85085436D01*
X141594354Y-85034929D01*
X160707312Y-91983625D02*
X160740983Y-91983625D01*
X160808327Y-91949954D01*
X160841999Y-91916282D01*
X160875670Y-91848938D01*
X160875670Y-91781595D01*
X160858835Y-91731087D01*
X160808327Y-91646908D01*
X160757819Y-91596400D01*
X160673640Y-91545893D01*
X160623132Y-91529057D01*
X160555789Y-91529057D01*
X160488445Y-91562729D01*
X160454774Y-91596400D01*
X160421102Y-91663744D01*
X160421102Y-91697416D01*
X160404266Y-92354015D02*
X160606296Y-92151984D01*
X160505281Y-92253000D02*
X160151728Y-91899446D01*
X160235907Y-91916282D01*
X160303251Y-91916282D01*
X160353758Y-91899446D01*
X160067548Y-92690732D02*
X160269579Y-92488702D01*
X160168564Y-92589717D02*
X159815010Y-92236164D01*
X159899190Y-92252999D01*
X159966533Y-92252999D01*
X160017041Y-92236164D01*
X159394113Y-92657061D02*
X159562472Y-92488702D01*
X159747667Y-92640225D01*
X159713995Y-92640225D01*
X159663487Y-92657061D01*
X159579308Y-92741240D01*
X159562472Y-92791748D01*
X159562472Y-92825419D01*
X159579308Y-92875927D01*
X159663487Y-92960106D01*
X159713995Y-92976942D01*
X159747667Y-92976942D01*
X159798174Y-92960106D01*
X159882354Y-92875927D01*
X159899190Y-92825419D01*
X159899190Y-92791748D01*
X157695615Y-85790496D02*
X158049168Y-85436943D01*
X157964989Y-85352764D01*
X157897645Y-85319092D01*
X157830302Y-85319092D01*
X157779794Y-85335928D01*
X157695615Y-85386435D01*
X157645107Y-85436943D01*
X157594600Y-85521122D01*
X157577764Y-85571630D01*
X157577764Y-85638974D01*
X157611435Y-85706317D01*
X157695615Y-85790496D01*
X157156867Y-85251748D02*
X157358897Y-85453779D01*
X157257882Y-85352764D02*
X157611435Y-84999210D01*
X157594600Y-85083390D01*
X157594600Y-85150733D01*
X157611435Y-85201241D01*
X175154730Y-78578008D02*
X175440940Y-78864218D01*
X175457775Y-78914726D01*
X175457775Y-78948397D01*
X175440940Y-78998905D01*
X175373596Y-79066249D01*
X175323088Y-79083084D01*
X175289417Y-79083084D01*
X175238909Y-79066249D01*
X174952699Y-78780039D01*
X174952699Y-79487145D02*
X175154730Y-79285115D01*
X175053714Y-79386130D02*
X174700161Y-79032577D01*
X174784340Y-79049413D01*
X174851684Y-79049413D01*
X174902192Y-79032577D01*
X174498131Y-79301951D02*
X174464459Y-79301951D01*
X174413951Y-79318787D01*
X174329772Y-79402966D01*
X174312936Y-79453474D01*
X174312936Y-79487145D01*
X174329772Y-79537653D01*
X174363444Y-79571325D01*
X174430787Y-79604997D01*
X174834848Y-79604997D01*
X174615982Y-79823863D01*
X142522374Y-90107912D02*
X142522374Y-90141583D01*
X142556045Y-90208927D01*
X142589717Y-90242599D01*
X142657061Y-90276270D01*
X142724404Y-90276270D01*
X142774912Y-90259435D01*
X142859091Y-90208927D01*
X142909599Y-90158419D01*
X142960106Y-90074240D01*
X142976942Y-90023732D01*
X142976942Y-89956389D01*
X142943270Y-89889045D01*
X142909599Y-89855374D01*
X142842255Y-89821702D01*
X142808583Y-89821702D01*
X142151984Y-89804866D02*
X142354015Y-90006896D01*
X142253000Y-89905881D02*
X142606553Y-89552328D01*
X142589717Y-89636507D01*
X142589717Y-89703851D01*
X142606553Y-89754358D01*
X142337179Y-89350297D02*
X142337179Y-89316625D01*
X142320343Y-89266118D01*
X142236164Y-89181938D01*
X142185656Y-89165103D01*
X142151984Y-89165103D01*
X142101477Y-89181938D01*
X142067805Y-89215610D01*
X142034133Y-89282954D01*
X142034133Y-89687015D01*
X141815267Y-89468148D01*
X142000461Y-89013580D02*
X142000461Y-88979908D01*
X141983625Y-88929400D01*
X141899446Y-88845221D01*
X141848938Y-88828385D01*
X141815267Y-88828385D01*
X141764759Y-88845221D01*
X141731087Y-88878893D01*
X141697416Y-88946236D01*
X141697416Y-89350297D01*
X141478549Y-89131431D01*
X138990312Y-106690225D02*
X139023983Y-106690225D01*
X139091327Y-106656554D01*
X139124999Y-106622882D01*
X139158670Y-106555538D01*
X139158670Y-106488195D01*
X139141835Y-106437687D01*
X139091327Y-106353508D01*
X139040819Y-106303000D01*
X138956640Y-106252493D01*
X138906132Y-106235657D01*
X138838789Y-106235657D01*
X138771445Y-106269329D01*
X138737774Y-106303000D01*
X138704102Y-106370344D01*
X138704102Y-106404016D01*
X138687266Y-107060615D02*
X138889296Y-106858584D01*
X138788281Y-106959600D02*
X138434728Y-106606046D01*
X138518907Y-106622882D01*
X138586251Y-106622882D01*
X138636758Y-106606046D01*
X138232697Y-106875420D02*
X138199025Y-106875420D01*
X138148518Y-106892256D01*
X138064338Y-106976435D01*
X138047503Y-107026943D01*
X138047503Y-107060615D01*
X138064338Y-107111122D01*
X138098010Y-107144794D01*
X138165354Y-107178466D01*
X138569415Y-107178466D01*
X138350548Y-107397332D01*
X137879144Y-107161630D02*
X137643442Y-107397332D01*
X138148518Y-107599363D01*
X161927974Y-94375112D02*
X161927974Y-94408783D01*
X161961645Y-94476127D01*
X161995317Y-94509799D01*
X162062661Y-94543470D01*
X162130004Y-94543470D01*
X162180512Y-94526635D01*
X162264691Y-94476127D01*
X162315199Y-94425619D01*
X162365706Y-94341440D01*
X162382542Y-94290932D01*
X162382542Y-94223589D01*
X162348870Y-94156245D01*
X162315199Y-94122574D01*
X162247855Y-94088902D01*
X162214183Y-94088902D01*
X161557584Y-94072066D02*
X161759615Y-94274096D01*
X161658600Y-94173081D02*
X162012153Y-93819528D01*
X161995317Y-93903707D01*
X161995317Y-93971051D01*
X162012153Y-94021558D01*
X161742779Y-93617497D02*
X161742779Y-93583825D01*
X161725943Y-93533318D01*
X161641764Y-93449138D01*
X161591256Y-93432303D01*
X161557584Y-93432303D01*
X161507077Y-93449138D01*
X161473405Y-93482810D01*
X161439733Y-93550154D01*
X161439733Y-93954215D01*
X161220867Y-93735348D01*
X161052508Y-93566990D02*
X160985164Y-93499646D01*
X160968329Y-93449138D01*
X160968329Y-93415467D01*
X160985164Y-93331287D01*
X161035672Y-93247108D01*
X161170359Y-93112421D01*
X161220867Y-93095585D01*
X161254538Y-93095585D01*
X161305046Y-93112421D01*
X161372390Y-93179764D01*
X161389225Y-93230272D01*
X161389225Y-93263944D01*
X161372390Y-93314451D01*
X161288210Y-93398631D01*
X161237703Y-93415467D01*
X161204031Y-93415467D01*
X161153523Y-93398631D01*
X161086180Y-93331287D01*
X161069344Y-93280780D01*
X161069344Y-93247108D01*
X161086180Y-93196600D01*
X166523912Y-108595225D02*
X166557583Y-108595225D01*
X166624927Y-108561554D01*
X166658599Y-108527882D01*
X166692270Y-108460538D01*
X166692270Y-108393195D01*
X166675435Y-108342687D01*
X166624927Y-108258508D01*
X166574419Y-108208000D01*
X166490240Y-108157493D01*
X166439732Y-108140657D01*
X166372389Y-108140657D01*
X166305045Y-108174329D01*
X166271374Y-108208000D01*
X166237702Y-108275344D01*
X166237702Y-108309016D01*
X166220866Y-108965615D02*
X166422896Y-108763584D01*
X166321881Y-108864600D02*
X165968328Y-108511046D01*
X166052507Y-108527882D01*
X166119851Y-108527882D01*
X166170358Y-108511046D01*
X165749461Y-108729912D02*
X165530595Y-108948779D01*
X165783133Y-108965615D01*
X165732625Y-109016122D01*
X165715790Y-109066630D01*
X165715790Y-109100302D01*
X165732625Y-109150809D01*
X165816805Y-109234989D01*
X165867312Y-109251825D01*
X165900984Y-109251825D01*
X165951492Y-109234989D01*
X166052507Y-109133974D01*
X166069343Y-109083466D01*
X166069343Y-109049794D01*
X165311729Y-109167645D02*
X165278057Y-109201317D01*
X165261221Y-109251825D01*
X165261221Y-109285496D01*
X165278057Y-109336004D01*
X165328564Y-109420183D01*
X165412744Y-109504363D01*
X165496923Y-109554870D01*
X165547431Y-109571706D01*
X165581103Y-109571706D01*
X165631610Y-109554870D01*
X165665282Y-109521199D01*
X165682118Y-109470691D01*
X165682118Y-109437019D01*
X165665282Y-109386512D01*
X165614774Y-109302332D01*
X165530595Y-109218153D01*
X165446416Y-109167645D01*
X165395908Y-109150809D01*
X165362236Y-109150809D01*
X165311729Y-109167645D01*
X139227183Y-111803897D02*
X139176676Y-111517687D01*
X139429214Y-111601867D02*
X139075661Y-111248313D01*
X138940974Y-111383000D01*
X138924138Y-111433508D01*
X138924138Y-111467180D01*
X138940974Y-111517687D01*
X138991481Y-111568195D01*
X139041989Y-111585031D01*
X139075661Y-111585031D01*
X139126168Y-111568195D01*
X139260855Y-111433508D01*
X138890466Y-112140615D02*
X139092496Y-111938584D01*
X138991481Y-112039600D02*
X138637928Y-111686046D01*
X138722107Y-111702882D01*
X138789451Y-111702882D01*
X138839958Y-111686046D01*
X138318046Y-112005928D02*
X138284374Y-112039600D01*
X138267538Y-112090107D01*
X138267538Y-112123779D01*
X138284374Y-112174287D01*
X138334882Y-112258466D01*
X138419061Y-112342645D01*
X138503241Y-112393153D01*
X138553748Y-112409989D01*
X138587420Y-112409989D01*
X138637928Y-112393153D01*
X138671600Y-112359481D01*
X138688435Y-112308974D01*
X138688435Y-112275302D01*
X138671600Y-112224794D01*
X138621092Y-112140615D01*
X138536912Y-112056435D01*
X138452733Y-112005928D01*
X138402225Y-111989092D01*
X138368554Y-111989092D01*
X138318046Y-112005928D01*
X138217031Y-112814050D02*
X138419061Y-112612019D01*
X138318046Y-112713035D02*
X137964493Y-112359481D01*
X138048672Y-112376317D01*
X138116016Y-112376317D01*
X138166523Y-112359481D01*
X137398383Y-110051297D02*
X137347876Y-109765087D01*
X137600414Y-109849267D02*
X137246861Y-109495713D01*
X137112174Y-109630400D01*
X137095338Y-109680908D01*
X137095338Y-109714580D01*
X137112174Y-109765087D01*
X137162681Y-109815595D01*
X137213189Y-109832431D01*
X137246861Y-109832431D01*
X137297368Y-109815595D01*
X137432055Y-109680908D01*
X137061666Y-110388015D02*
X137263696Y-110185984D01*
X137162681Y-110287000D02*
X136809128Y-109933446D01*
X136893307Y-109950282D01*
X136960651Y-109950282D01*
X137011158Y-109933446D01*
X136489246Y-110253328D02*
X136455574Y-110287000D01*
X136438738Y-110337507D01*
X136438738Y-110371179D01*
X136455574Y-110421687D01*
X136506082Y-110505866D01*
X136590261Y-110590045D01*
X136674441Y-110640553D01*
X136724948Y-110657389D01*
X136758620Y-110657389D01*
X136809128Y-110640553D01*
X136842800Y-110606881D01*
X136859635Y-110556374D01*
X136859635Y-110522702D01*
X136842800Y-110472194D01*
X136792292Y-110388015D01*
X136708112Y-110303835D01*
X136623933Y-110253328D01*
X136573425Y-110236492D01*
X136539754Y-110236492D01*
X136489246Y-110253328D01*
X136270380Y-110539538D02*
X136236708Y-110539538D01*
X136186200Y-110556374D01*
X136102021Y-110640553D01*
X136085185Y-110691061D01*
X136085185Y-110724732D01*
X136102021Y-110775240D01*
X136135693Y-110808912D01*
X136203036Y-110842583D01*
X136607097Y-110842583D01*
X136388231Y-111061450D01*
X139430383Y-91331497D02*
X139379876Y-91045287D01*
X139632414Y-91129467D02*
X139278861Y-90775913D01*
X139144174Y-90910600D01*
X139127338Y-90961108D01*
X139127338Y-90994780D01*
X139144174Y-91045287D01*
X139194681Y-91095795D01*
X139245189Y-91112631D01*
X139278861Y-91112631D01*
X139329368Y-91095795D01*
X139464055Y-90961108D01*
X139093666Y-91668215D02*
X139295696Y-91466184D01*
X139194681Y-91567200D02*
X138841128Y-91213646D01*
X138925307Y-91230482D01*
X138992651Y-91230482D01*
X139043158Y-91213646D01*
X138521246Y-91533528D02*
X138487574Y-91567200D01*
X138470738Y-91617707D01*
X138470738Y-91651379D01*
X138487574Y-91701887D01*
X138538082Y-91786066D01*
X138622261Y-91870245D01*
X138706441Y-91920753D01*
X138756948Y-91937589D01*
X138790620Y-91937589D01*
X138841128Y-91920753D01*
X138874800Y-91887081D01*
X138891635Y-91836574D01*
X138891635Y-91802902D01*
X138874800Y-91752394D01*
X138824292Y-91668215D01*
X138740112Y-91584035D01*
X138655933Y-91533528D01*
X138605425Y-91516692D01*
X138571754Y-91516692D01*
X138521246Y-91533528D01*
X138588590Y-92173291D02*
X138521246Y-92240635D01*
X138470738Y-92257470D01*
X138437067Y-92257470D01*
X138352887Y-92240635D01*
X138268708Y-92190127D01*
X138134021Y-92055440D01*
X138117185Y-92004932D01*
X138117185Y-91971261D01*
X138134021Y-91920753D01*
X138201364Y-91853409D01*
X138251872Y-91836574D01*
X138285544Y-91836574D01*
X138336051Y-91853409D01*
X138420231Y-91937589D01*
X138437067Y-91988096D01*
X138437067Y-92021768D01*
X138420231Y-92072276D01*
X138352887Y-92139619D01*
X138302380Y-92156455D01*
X138268708Y-92156455D01*
X138218200Y-92139619D01*
X156676190Y-122300476D02*
X156438095Y-122133809D01*
X156676190Y-122014761D02*
X156176190Y-122014761D01*
X156176190Y-122205238D01*
X156200000Y-122252857D01*
X156223809Y-122276666D01*
X156271428Y-122300476D01*
X156342857Y-122300476D01*
X156390476Y-122276666D01*
X156414285Y-122252857D01*
X156438095Y-122205238D01*
X156438095Y-122014761D01*
X156676190Y-122776666D02*
X156676190Y-122490952D01*
X156676190Y-122633809D02*
X156176190Y-122633809D01*
X156247619Y-122586190D01*
X156295238Y-122538571D01*
X156319047Y-122490952D01*
X156676190Y-123252857D02*
X156676190Y-122967142D01*
X156676190Y-123110000D02*
X156176190Y-123110000D01*
X156247619Y-123062380D01*
X156295238Y-123014761D01*
X156319047Y-122967142D01*
X156342857Y-123681428D02*
X156676190Y-123681428D01*
X156152380Y-123562380D02*
X156509523Y-123443333D01*
X156509523Y-123752857D01*
X173419523Y-106576190D02*
X173586190Y-106338095D01*
X173705238Y-106576190D02*
X173705238Y-106076190D01*
X173514761Y-106076190D01*
X173467142Y-106100000D01*
X173443333Y-106123809D01*
X173419523Y-106171428D01*
X173419523Y-106242857D01*
X173443333Y-106290476D01*
X173467142Y-106314285D01*
X173514761Y-106338095D01*
X173705238Y-106338095D01*
X172943333Y-106576190D02*
X173229047Y-106576190D01*
X173086190Y-106576190D02*
X173086190Y-106076190D01*
X173133809Y-106147619D01*
X173181428Y-106195238D01*
X173229047Y-106219047D01*
X172467142Y-106576190D02*
X172752857Y-106576190D01*
X172610000Y-106576190D02*
X172610000Y-106076190D01*
X172657619Y-106147619D01*
X172705238Y-106195238D01*
X172752857Y-106219047D01*
X172014761Y-106076190D02*
X172252857Y-106076190D01*
X172276666Y-106314285D01*
X172252857Y-106290476D01*
X172205238Y-106266666D01*
X172086190Y-106266666D01*
X172038571Y-106290476D01*
X172014761Y-106314285D01*
X171990952Y-106361904D01*
X171990952Y-106480952D01*
X172014761Y-106528571D01*
X172038571Y-106552380D01*
X172086190Y-106576190D01*
X172205238Y-106576190D01*
X172252857Y-106552380D01*
X172276666Y-106528571D01*
X173419523Y-93776190D02*
X173586190Y-93538095D01*
X173705238Y-93776190D02*
X173705238Y-93276190D01*
X173514761Y-93276190D01*
X173467142Y-93300000D01*
X173443333Y-93323809D01*
X173419523Y-93371428D01*
X173419523Y-93442857D01*
X173443333Y-93490476D01*
X173467142Y-93514285D01*
X173514761Y-93538095D01*
X173705238Y-93538095D01*
X172943333Y-93776190D02*
X173229047Y-93776190D01*
X173086190Y-93776190D02*
X173086190Y-93276190D01*
X173133809Y-93347619D01*
X173181428Y-93395238D01*
X173229047Y-93419047D01*
X172467142Y-93776190D02*
X172752857Y-93776190D01*
X172610000Y-93776190D02*
X172610000Y-93276190D01*
X172657619Y-93347619D01*
X172705238Y-93395238D01*
X172752857Y-93419047D01*
X172038571Y-93276190D02*
X172133809Y-93276190D01*
X172181428Y-93300000D01*
X172205238Y-93323809D01*
X172252857Y-93395238D01*
X172276666Y-93490476D01*
X172276666Y-93680952D01*
X172252857Y-93728571D01*
X172229047Y-93752380D01*
X172181428Y-93776190D01*
X172086190Y-93776190D01*
X172038571Y-93752380D01*
X172014761Y-93728571D01*
X171990952Y-93680952D01*
X171990952Y-93561904D01*
X172014761Y-93514285D01*
X172038571Y-93490476D01*
X172086190Y-93466666D01*
X172181428Y-93466666D01*
X172229047Y-93490476D01*
X172252857Y-93514285D01*
X172276666Y-93561904D01*
X127699523Y-93876190D02*
X127866190Y-93638095D01*
X127985238Y-93876190D02*
X127985238Y-93376190D01*
X127794761Y-93376190D01*
X127747142Y-93400000D01*
X127723333Y-93423809D01*
X127699523Y-93471428D01*
X127699523Y-93542857D01*
X127723333Y-93590476D01*
X127747142Y-93614285D01*
X127794761Y-93638095D01*
X127985238Y-93638095D01*
X127223333Y-93876190D02*
X127509047Y-93876190D01*
X127366190Y-93876190D02*
X127366190Y-93376190D01*
X127413809Y-93447619D01*
X127461428Y-93495238D01*
X127509047Y-93519047D01*
X126747142Y-93876190D02*
X127032857Y-93876190D01*
X126890000Y-93876190D02*
X126890000Y-93376190D01*
X126937619Y-93447619D01*
X126985238Y-93495238D01*
X127032857Y-93519047D01*
X126580476Y-93376190D02*
X126247142Y-93376190D01*
X126461428Y-93876190D01*
M02*
